<?xml version="1.0" standalone="no"?>
<!DOCTYPE svg PUBLIC "-//W3C//DTD SVG 1.1//EN" "http://www.w3.org/Graphics/SVG/1.1/DTD/svg11.dtd" >
<svg xmlns="http://www.w3.org/2000/svg">
<metadata></metadata>
<defs>
<font id="futura-boldregular" horiz-adv-x="1404" >
<font-face units-per-em="2048" ascent="1638" descent="-410" />
<missing-glyph horiz-adv-x="702" />
<glyph horiz-adv-x="2048" />
<glyph horiz-adv-x="2048" />
<glyph unicode="&#xd;" horiz-adv-x="2048" />
<glyph unicode=" "  horiz-adv-x="702" />
<glyph unicode="&#x09;" horiz-adv-x="702" />
<glyph unicode="&#xa0;" horiz-adv-x="702" />
<glyph unicode="!" horiz-adv-x="786" d="M154 197q0 101 69 170t170 69v2q101 -2 170 -71q70 -70 70 -170q0 -98 -70 -168t-170 -70t-170 70q-69 69 -69 168zM201 524v1020h387v-1020h-387z" />
<glyph unicode="&#x22;" horiz-adv-x="1024" d="M96 1544h348l-55 -678h-237zM580 1544h348l-56 -678h-237z" />
<glyph unicode="#" d="M139 354v232h232l49 254h-197v231h240l80 416h217l-80 -416h207l80 416h215l-80 -416h164v-231h-201l-49 -254h192v-232h-241l-68 -354h-217l68 354h-207l-68 -354h-217l68 354h-187zM588 586h209l53 254h-213z" />
<glyph unicode="$" d="M139 176v2l168 309q58 -55 130 -98t153 -65q30 -6 45 -8q23 -3 43 -3q13 0 21 1t22 3q55 10 102 47q47 36 47 99q0 62 -53 92q-52 30 -131 57q-56 18 -68 22q-11 4 -34 11.5t-35 11.5q-2 0 -3 1t-3 1q-117 44 -217 131q-99 86 -99 269q0 180 116 325q115 144 302 156v250 h191v-248q10 -3 29 -5q20 -2 30 -5q82 -12 163 -39t150 -72l-151 -295q-57 45 -123 71q-70 28 -139 28t-121 -27q-53 -27 -53 -88q0 -51 38 -80q39 -30 84 -51q7 -3 20.5 -8t20.5 -7l20 -7.5t17 -6.5q178 -58 311 -146q134 -89 134 -302t-115 -333q-113 -117 -315 -167v-254 h-191v244q-67 0 -133 12q-58 11 -131 37l-12 4q-2 1 -6 2.5t-5 1.5q-52 21 -115 54q-59 31 -104 73z" />
<glyph unicode="%" horiz-adv-x="1996" d="M39 1188q0 184 125 279q126 96 297 96v2q170 -1 297 -98q125 -95 125 -279q0 -187 -123 -284q-122 -97 -299 -97t-299 97q-123 97 -123 284zM287 1184q0 -72 51 -122q52 -50 123 -50t123 50q51 50 51 122t-51 123t-123 51v2q-71 -1 -123 -53q-51 -51 -51 -123zM449 0 l897 1544h200l-897 -1544h-200zM1114 358q0 185 125 280t297 95v2q171 -1 297 -97q125 -95 125 -280q0 -186 -123 -282t-299 -96t-299 96t-123 282zM1362 354q0 -72 51 -122q52 -50 123 -50t123 50q51 50 51 122t-51 123t-123 51v2q-71 -1 -123 -53q-51 -51 -51 -123z" />
<glyph unicode="&#x26;" horiz-adv-x="1736" d="M78 399q0 175 93 271t239 159l36 19l-32 45q-9 9 -13 15q-1 2 -3.5 6t-4.5 7t-4 5q-30 41 -59 99q-27 54 -27 134q0 201 147 312q148 112 332 112q185 0 334 -110q150 -111 150 -310q0 -142 -83 -227q-81 -82 -204 -143l195 -203q57 50 108 102q47 48 94 115l228 -215 l-195 -209l-18 -18l346 -365h-502l-133 143q-104 -74 -237 -127q-127 -51 -261 -57h-15h-16q-197 0 -347 115q-148 114 -148 325zM494 459q0 -62 47 -98t102 -42q8 -2 12 -2h13q53 0 112 19q58 19 103 45v2l-244 262q-10 -8 -15 -11q-9 -5 -16 -11q-42 -28 -79 -69 q-35 -39 -35 -95zM684 1184q0 -42 26 -85q27 -45 58 -77q8 -13 18 -23q17 -17 19 -20v2q3 0 5 1q4 2 5 3q51 30 92 77t41 105q0 61 -37 102q-37 42 -98 42q-53 0 -91 -35t-38 -92z" />
<glyph unicode="'" horiz-adv-x="512" d="M82 1544h348l-55 -678h-238z" />
<glyph unicode="(" horiz-adv-x="720" d="M100 584q0 81 10 189q10 106 29 198q33 174 98 344q65 168 160 301v2l224 -127q-93 -151 -144 -317q-54 -174 -76 -345q-7 -68 -12 -137q-4 -60 -4 -133q0 -87 9 -185q8 -86 28 -198q28 -152 76 -289q50 -141 123 -252l-224 -127q-98 128 -163 303q-61 165 -95 347 q-19 102 -29 219q-10 120 -10 207z" />
<glyph unicode=")" horiz-adv-x="720" d="M100 -365q74 111 123 252q48 137 76 289q20 112 28 198q9 98 9 185q0 73 -4 133q-3 45 -13 137q-23 177 -75 345q-51 165 -144 315v2l224 127q95 -133 160 -303t98 -344q19 -92 29 -198q10 -108 10 -189q0 -87 -10 -207q-10 -117 -29 -219q-33 -177 -96 -347 q-65 -178 -162 -303z" />
<glyph unicode="*" horiz-adv-x="989" d="M139 1288l94 156l179 -113l-11 213h185l-11 -219l183 115l92 -156l-195 -102l193 -107l-92 -153l-181 116l9 -207h-185l13 205l-174 -110l-93 155l185 103z" />
<glyph unicode="+" d="M178 373v307h371v371h307v-371h371v-307h-371v-373h-307v373h-371z" />
<glyph unicode="," horiz-adv-x="702" d="M45 -289l266 680h351l-377 -680h-240z" />
<glyph unicode="-" horiz-adv-x="802" d="M109 504v307h585v-307h-585z" />
<glyph unicode="." horiz-adv-x="702" d="M113 197q0 101 69 170t170 69v2q101 -2 170 -71q70 -70 70 -170q0 -98 -70 -168t-170 -70t-170 70q-69 69 -69 168z" />
<glyph unicode="/" horiz-adv-x="1185" d="M55 -190l783 1890h292l-782 -1890h-293z" />
<glyph unicode="0" d="M47 770q0 27 1 40t1 40q18 281 175 518q156 236 478 236v2q322 -2 479 -238q157 -237 175 -518q0 -27 1 -40t1 -40t-1 -40t-1 -40q-18 -283 -174 -517t-480 -234q-323 0 -479 234t-174 517q0 27 -1 40t-1 40zM446 772q0 -21 6 -93q4 -52 17 -112q23 -102 79 -190 q54 -86 154 -86q101 0 155 86q56 88 79 190q13 60 17 112q5 60 5 93q0 34 -5 92q-4 51 -17 111q-24 100 -79 188q-54 86 -155 86v2q-99 -1 -154 -88q-55 -88 -79 -188q-13 -60 -17 -111q-6 -70 -6 -92z" />
<glyph unicode="1" d="M330 1204v340h622v-1544h-401v1204h-221z" />
<glyph unicode="2" d="M68 0l630 686q69 73 122 171q54 99 54 206v5v7q-4 69 -51 129q-46 60 -125 60q-81 0 -125 -56q-43 -55 -43 -133q0 -8 2 -32q1 -6 3 -17t2 -16l-443 2q10 264 170 428q159 164 432 164q244 0 420 -149t176 -400q0 -145 -49 -244q-50 -102 -141 -193l-29 -28 q-9 -9 -31 -29l-239 -221h506v-340h-1241z" />
<glyph unicode="3" d="M70 492v1v3v3v1l409 2q0 -94 61 -158q60 -63 154 -63t154 56q61 57 61 150q0 88 -64 148q-63 59 -149 59q-20 0 -36 -4q-4 -1 -15.5 -3.5t-17.5 -4.5v270h41q78 -2 127 43t49 125q0 72 -45 114t-113 42q-76 0 -120 -50t-44 -124v-1v-1v-1v-1v2h-372q12 118 59 212 q45 90 121 158q73 65 174 100q99 34 219 34q205 0 350 -116q144 -116 144 -333v-20l-3 -21q-6 -81 -45 -158q-38 -75 -114 -118q103 -27 164 -115q61 -87 79 -191q6 -28 7 -42q2 -28 2 -41q0 -254 -185 -382t-415 -128q-134 0 -249 38q-116 38 -212 134q-50 51 -93 123 q-45 75 -67 149q-8 29 -12 55q-4 24 -4 54z" />
<glyph unicode="4" d="M33 319v256l596 969h526v-917h186v-308h-186v-319h-373v319h-749zM418 627h364v594h-4z" />
<glyph unicode="5" horiz-adv-x="1411" d="M117 76l59 381q88 -81 201 -131q112 -50 229 -50q95 0 171 64q75 63 75 164q0 126 -91 189q-91 62 -202 73q-14 0 -22 1t-23 1q-75 0 -150 -15q-77 -15 -145 -48l135 839h803v-340h-534l-27 -176l127 10h21h20q222 0 363 -162q143 -164 143 -393q0 -120 -51 -230 q-50 -107 -148 -187q-70 -56 -147 -81q-85 -28 -168 -38q-34 -5 -69 -6q-46 -2 -66 -2h-18h-17q-129 5 -244 36q-118 32 -225 101z" />
<glyph unicode="6" d="M47 477v8v9q0 166 74 325q75 160 174 289l332 436h454l-438 -522l4 -4q4 1 12 3.5t12 4.5q19 7 21 8q37 14 82 22q38 7 88 7q228 0 362 -165q134 -166 134 -378q0 -284 -200 -433q-199 -148 -464 -148q-32 0 -67 3q-49 4 -70 7q-83 15 -161 43q-79 28 -142 78 q-88 73 -145 183q-58 110 -62 224zM438 508q0 -106 75 -181t179 -75v2q107 -2 177 73q71 76 71 181q0 104 -71 178t-177 74q-103 0 -179 -74q-75 -74 -75 -178z" />
<glyph unicode="7" d="M86 0l705 1204h-646v340h1268l-887 -1544h-440z" />
<glyph unicode="8" d="M113 403q0 152 85 256q86 105 222 150v6q-106 33 -175 129t-69 219q0 221 164 331t362 110v2q198 -2 363 -112q164 -110 164 -331q0 -123 -69 -219q-70 -97 -175 -131v-2q138 -46 223 -152q84 -105 84 -256q0 -204 -146 -314q-148 -112 -321 -140q-33 -7 -61 -8 q-40 -2 -62 -2q-21 0 -61 2q-28 1 -61 8q-173 28 -321 140q-146 110 -146 314zM518 455q0 -77 54 -133t130 -56q79 0 132 56t53 133q0 78 -53 136q-52 56 -132 56v2q-76 -1 -130 -58t-54 -136zM532 1151q0 -70 51 -123q49 -51 119 -51q72 0 121 51q49 50 49 123t-49 123 q-49 51 -121 51v2q-69 -2 -119 -53q-51 -53 -51 -123z" />
<glyph unicode="9" d="M47 1020q0 284 200 434t464 150q21 0 67 -2q24 -1 70 -9q81 -12 161 -42q79 -30 142 -81q88 -72 146 -183q56 -108 61 -228v-6v-9q0 -167 -74 -324t-174 -290l-330 -430h-456l440 520l-4 4q-7 -4 -21 -10l-20 -8q-43 -16 -84 -23q-46 -8 -92 -8q-229 0 -362 166 q-134 167 -134 379zM465 1032q0 -106 71 -180t177 -74q105 0 181 74q75 74 75 180t-75 180q-76 74 -181 74v2q-106 -1 -177 -76q-71 -74 -71 -180z" />
<glyph unicode=":" horiz-adv-x="702" d="M113 197q0 101 69 170t170 69v2q101 -2 170 -71q70 -70 70 -170q0 -98 -70 -168t-170 -70t-170 70q-69 69 -69 168zM113 887q0 101 69 170t170 69v2q101 -2 170 -71q70 -70 70 -170q0 -97 -70 -169q-69 -71 -170 -71t-170 71q-69 70 -69 169z" />
<glyph unicode=";" horiz-adv-x="702" d="M16 -289l267 680h350l-377 -680h-240zM207 887q0 101 69 170t170 69v2q100 -2 170 -71q70 -70 70 -170q0 -97 -70 -169q-69 -71 -170 -71t-170 71q-69 70 -69 169z" />
<glyph unicode="&#x3c;" d="M203 403v246l1001 373v-307l-561 -187v-4l561 -186v-307z" />
<glyph unicode="=" d="M178 127v307h1049v-307h-1049zM178 618v308h1049v-308h-1049z" />
<glyph unicode="&#x3e;" d="M203 31v307l561 186v4l-561 187v307l1001 -373v-246z" />
<glyph unicode="?" horiz-adv-x="1218" d="M31 1104q1 230 173 355q170 124 388 124q93 0 189 -31q92 -30 169 -96q77 -62 127 -158q49 -94 49 -196q0 -175 -106 -284q-106 -110 -264 -159v-143h-375v397q22 -6 44 -9q21 -3 42 -3q20 0 31 1q19 2 30 5q78 15 140 64q63 49 63 133q0 63 -42 108t-107 45 q-70 0 -107 -45q-37 -44 -37 -110zM336 197q0 100 70 170q69 69 169 69v2q101 -2 170 -71q70 -70 70 -170q0 -98 -70 -168t-170 -70q-99 0 -169 70t-70 168z" />
<glyph unicode="@" horiz-adv-x="1515" d="M10 770q0 348 228 581q228 232 555 232q136 0 258 -43t223 -135q103 -90 167 -213q62 -120 62 -266q0 -127 -33 -241t-94 -196q-36 -48 -78 -85q-38 -34 -81 -56q-38 -21 -74 -30q-37 -9 -72 -9h-3h-1h-3h-3q-43 1 -79 36t-48 83q-38 -44 -105 -82q-65 -37 -157 -37 q-134 0 -240 112q-104 110 -104 269q0 189 113 341q114 153 304 153q76 0 143 -31q64 -30 109 -96l21 110h194l-102 -532q0 -7 -1 -10l-3 -9q-1 -5 -3 -17t-3 -17q-2 -14 -3 -20t-1 -19q0 -22 7 -33q7 -12 25 -12h4h3q16 1 33 13q13 9 38 30q44 46 84 133q39 86 45 180v19 v18q0 242 -160 371q-161 129 -389 129q-255 0 -420 -177q-163 -175 -163 -444q0 -285 178 -453q177 -167 440 -167q129 0 222 25q95 26 145 56l168 -133q-109 -58 -247 -98q-143 -41 -304 -41q-330 0 -562 229q-233 230 -233 582zM573 723v2q0 -78 40 -134t116 -56 q82 0 125 56q42 55 59 124q1 4 3 11.5t2 11.5q1 4 2.5 11.5t1.5 10.5q2 14 2 17v16q0 72 -41 119q-40 46 -109 46q-80 0 -135 -65q-57 -67 -64 -143q-2 -8 -2 -14v-13z" />
<glyph unicode="A" horiz-adv-x="1599" d="M-8 0l594 1544h438l582 -1544h-428l-101 268h-553l-106 -268h-426zM635 575h334l-164 492h-4z" />
<glyph unicode="B" horiz-adv-x="1386" d="M131 0v1544h574q205 -1 332 -92q126 -90 126 -311q0 -103 -38 -187q-37 -82 -132 -129v-2q166 -22 241 -128q75 -105 75 -267q0 -242 -173 -335q-172 -93 -386 -93h-619zM532 307h52q2 -2 5 -2h7h51q17 0 53 2q77 6 140 39t63 123q0 105 -69 135q-73 32 -152 33h-38h-38 h-16h-17l-41 2v-332zM532 938h46q2 -2 5 -2h7q74 1 140 29q65 27 65 120q0 94 -62 121q-63 28 -133 29h-19h-20l-29 2v-299z" />
<glyph unicode="C" horiz-adv-x="1351" d="M53 768q0 157 59 305q59 149 169 260q113 114 260 179q151 67 309 71h9h9q101 0 188 -20q92 -21 179 -58v2v-481q-60 81 -156 125q-93 43 -196 43q-184 0 -298 -124q-114 -125 -114 -304q0 -182 116 -301t302 -119q97 0 190 44q94 45 156 120v-479q-65 -21 -105 -32 q-50 -13 -96 -24q-38 -7 -75 -12q-33 -4 -78 -4q-164 0 -311 58q-146 57 -269 167q-126 113 -187 263q-61 151 -61 321z" />
<glyph unicode="D" horiz-adv-x="1540" d="M131 0v1544h569q323 -1 554 -225q231 -223 231 -549q0 -325 -232 -548q-231 -222 -553 -222h-569zM532 340h91h7q177 0 305 101q132 103 132 329q0 208 -123 320q-122 112 -317 112l-95 2v-864z" />
<glyph unicode="E" horiz-adv-x="1126" d="M131 0v1544h879v-340h-478v-258h453v-340h-453v-266h478v-340h-879z" />
<glyph unicode="F" horiz-adv-x="1110" d="M131 0v1544h887v-340h-486v-258h441v-340h-441v-606h-401z" />
<glyph unicode="G" horiz-adv-x="1724" d="M53 762q0 376 233 604q231 227 605 227q240 0 417 -107q179 -108 279 -325l-381 -157q-40 108 -127 176q-85 67 -207 67q-185 0 -287 -139t-112 -305q-2 -14 -2 -22v-21v-5v-7q5 -178 109 -324q106 -148 299 -148q130 0 221 68q90 68 102 201l-328 2v315h797 q-2 -172 -28 -318q-27 -147 -130 -294q-113 -159 -277 -230q-163 -71 -359 -71q-366 0 -594 224q-230 225 -230 589z" />
<glyph unicode="H" horiz-adv-x="1644" d="M131 0v1544h401v-596h580v596h401v-1544h-401v633h-580v-633h-401z" />
<glyph unicode="I" horiz-adv-x="663" d="M131 0v1544h401v-1544h-401z" />
<glyph unicode="J" horiz-adv-x="1001" d="M-29 184l230 246q2 -2 4.5 -6t2.5 -5t2.5 -5t4.5 -6q41 -47 43 -49q21 -22 45 -40q13 -9 30 -16q15 -6 29 -6q65 0 87 46q21 44 26 99q2 28 2 39v35v4v4v1020h402v-1042q0 -245 -128 -394t-384 -149q-132 0 -229 59q-100 61 -167 166z" />
<glyph unicode="K" horiz-adv-x="1552" d="M131 0v1544h401v-637h5l485 637h498l-615 -731l670 -813h-520l-518 670h-5v-670h-401z" />
<glyph unicode="L" horiz-adv-x="1013" d="M131 0v1544h401v-1204h482v-340h-883z" />
<glyph unicode="M" horiz-adv-x="2013" d="M39 0l262 1544h395l314 -825l331 825h400l233 -1544h-401l-113 889h-4l-371 -889h-159l-355 889h-4l-129 -889h-399z" />
<glyph unicode="N" horiz-adv-x="1804" d="M131 0v1544h401l736 -944h4v944h401v-1544h-401l-735 946h-5v-946h-401z" />
<glyph unicode="O" horiz-adv-x="1816" d="M53 799q0 350 260 572q259 222 594 222v2q334 -1 594 -224q260 -222 260 -572q0 -376 -240 -613t-614 -237q-371 0 -612 237q-242 237 -242 613zM471 797q0 -199 128 -330t308 -131t308 131t128 330q0 158 -128 283q-127 124 -308 124v2q-181 -2 -308 -126 q-128 -125 -128 -283z" />
<glyph unicode="P" horiz-adv-x="1353" d="M131 0v1544h614q250 -1 406 -123q156 -121 156 -387q0 -272 -143 -398q-142 -126 -404 -126l-228 2v-512h-401zM532 836h68h18q103 0 181 21q90 24 90 165q0 145 -86 171q-87 26 -203 26l-68 2v-385z" />
<glyph unicode="Q" horiz-adv-x="1816" d="M53 799q0 350 260 572q259 222 594 222q359 0 607 -225q247 -225 247 -602q0 -154 -51 -288t-147 -255l260 -262l-369 -57l-123 145q-90 -53 -193 -77q-101 -23 -231 -23q-371 0 -612 237q-242 237 -242 613zM471 797q0 -199 129 -330t309 -131q29 0 62 5q32 5 61 15 l-248 248l379 47l109 -112q27 34 43 77t24 89q1 5 2 14.5t1 14.5q1 10 1 30q0 175 -125 307q-126 133 -309 133q-181 0 -309 -124q-129 -124 -129 -283z" />
<glyph unicode="R" horiz-adv-x="1392" d="M131 0v1544h600q229 -1 383 -116t154 -361q0 -159 -87 -284q-86 -123 -251 -152v2l485 -633h-500l-378 594h-5v-594h-401zM532 852h39q14 -2 21 -2h18q90 4 165 42t75 150q0 114 -75 151t-165 42h-18h-21l-39 2v-385z" />
<glyph unicode="S" horiz-adv-x="1261" d="M61 133l172 326q79 -70 165 -115q89 -47 192 -47h8h8q68 5 123 42t55 114q0 58 -46 92t-103 55q-8 3 -24.5 8t-24.5 7q-43 13 -45 14t-5 2t-5 1l-9 3q-182 51 -291 131q-108 80 -108 299q0 236 150 377t382 141q42 0 97 -5q45 -4 98 -17q79 -17 152 -43q74 -27 137 -62v2 l-160 -311q-58 47 -124 73q-69 27 -142 27q-15 0 -23 -1q-16 -2 -24 -5q-46 -10 -86 -41q-39 -30 -39 -82q0 -49 37 -79q40 -32 79 -48q22 -8 32 -11l30 -9l102 -29q164 -50 272 -142q109 -93 109 -282v-16v-17q-4 -105 -39 -207q-34 -101 -121 -176q-78 -67 -176 -100 q-101 -34 -200 -41q-22 0 -32 -1t-30 -1q-147 0 -285 46q-142 47 -258 128z" />
<glyph unicode="T" horiz-adv-x="1091" d="M12 1204v340h1065v-340h-332v-1204h-401v1204h-332z" />
<glyph unicode="U" horiz-adv-x="1593" d="M123 674v870h401v-813v-25v-24q1 -139 48 -256q46 -117 225 -117q177 0 224 117t48 256v24v23v815h401v-868q0 -158 -23 -293q-24 -142 -138 -254q-75 -75 -175 -112q-104 -38 -208 -50q-33 -5 -66 -6q-44 -2 -63 -2q-20 0 -64 2q-32 1 -65 6q-104 12 -208 50 q-100 37 -175 112q-115 114 -139 254q-23 135 -23 291z" />
<glyph unicode="V" horiz-adv-x="1558" d="M-31 1544h437l372 -938l375 938h436l-659 -1544h-312z" />
<glyph unicode="W" horiz-adv-x="2287" d="M-31 1544h418l268 -997h4l324 997h320l303 -997h4l291 997h417l-493 -1544h-410l-270 895h-4l-303 -895h-408z" />
<glyph unicode="X" horiz-adv-x="1615" d="M-16 0l604 825l-494 719h494l235 -399l236 399h493l-493 -719l571 -825h-483l-324 504l-354 -504h-485z" />
<glyph unicode="Y" horiz-adv-x="1462" d="M-39 1544h481l289 -420l289 420h481l-569 -803v-741h-402v741z" />
<glyph unicode="Z" horiz-adv-x="1447" d="M23 0l731 1204h-607v340h1278l-727 -1204h648v-340h-1323z" />
<glyph unicode="[" horiz-adv-x="716" d="M106 -492v2110h504v-217h-219v-1675h219v-218h-504z" />
<glyph unicode="\" horiz-adv-x="1185" d="M55 1700h295l780 -1700h-290z" />
<glyph unicode="]" horiz-adv-x="716" d="M106 -274h220v1675h-220v217h504v-2110h-504v218z" />
<glyph unicode="^" d="M211 834l369 772h245l369 -772l-233 -138l-259 551l-258 -551z" />
<glyph unicode="_" horiz-adv-x="1024" d="M0 -231h1024v-154h-1024v154z" />
<glyph unicode="`" horiz-adv-x="823" d="M154 1516l227 163l289 -352l-166 -121z" />
<glyph unicode="a" horiz-adv-x="1396" d="M47 524q0 226 147 392q147 167 379 167h21q6 0 20 -2q82 -6 157 -40q79 -35 128 -95v105h373v-1051h-373v117h-4q-45 -74 -123 -110q-77 -35 -162 -40q-10 -2 -16 -2h-16q-233 0 -382 167t-149 392zM432 522q0 -99 64 -168q63 -67 176 -67q114 0 177 67q62 66 62 168 q0 98 -62 167q-63 71 -177 71v2q-112 -1 -176 -73t-64 -167z" />
<glyph unicode="b" horiz-adv-x="1396" d="M111 0v1700h372v-752q55 61 134 95q78 34 161 40h16h15q233 0 380 -167q146 -165 146 -392q0 -226 -147 -393q-147 -166 -383 -166h-12h-13q-88 5 -166 40q-80 36 -127 110l-4 2v-117h-372zM471 522q0 -99 64 -168q63 -67 176 -67q114 0 177 67q62 66 62 168 q0 98 -62 167q-63 71 -177 71v2q-112 -1 -176 -73t-64 -167z" />
<glyph unicode="c" horiz-adv-x="989" d="M47 512q0 254 170 413q168 158 418 158q65 0 128 -15q59 -14 118 -46v2v-315q-42 30 -90 50q-50 21 -103 21q-107 0 -181 -73q-75 -73 -75 -183q0 -113 74 -185q75 -73 188 -73q14 0 22 1q4 0 7.5 0.5t7.5 1.5t6 1q40 6 77 24q42 20 67 44v-313q-61 -30 -128 -45 q-66 -15 -135 -15q-232 0 -402 155q-169 154 -169 392z" />
<glyph unicode="d" horiz-adv-x="1396" d="M61 524q0 226 147 392q147 167 380 167h20q7 0 21 -2q81 -6 156 -40q79 -35 128 -95v754h373v-1700h-373v117h-4q-45 -74 -123 -110q-77 -35 -161 -40q-10 -2 -17 -2h-16q-233 0 -382 167t-149 392zM446 522q0 -99 64 -168q63 -67 176 -67q114 0 177 67q63 68 63 168 q0 96 -63 167t-177 71v2q-112 -1 -176 -73t-64 -167z" />
<glyph unicode="e" horiz-adv-x="1249" d="M45 522q0 262 163 412q162 149 419 149q275 0 425 -157q150 -158 150 -426v2v-39h-784q0 -116 59 -175q61 -61 174 -61q60 0 104 23t74 74l359 2q-45 -189 -200 -275t-335 -86q-259 0 -434 143q-174 142 -174 414zM424 676v2h432q-15 74 -75 119t-136 45q-81 0 -143 -42 t-78 -124z" />
<glyph unicode="f" horiz-adv-x="794" d="M29 743v308h131v133q0 78 8 155q7 72 47 140q2 4 23 35q13 20 28 36q67 80 165 125q93 43 202 43q40 0 82 -8q38 -7 78 -29v-319q-10 2 -18 6q-9 5 -19 6q-26 12 -45 16q-25 5 -49 5q-73 0 -101 -43q-29 -44 -29 -133v-168h261v-308h-261v-743h-372v743h-131z" />
<glyph unicode="g" horiz-adv-x="1386" d="M51 514q0 230 149 400q148 169 390 169q96 0 173 -33q81 -34 136 -112l4 2v111h373v-949q0 -335 -159 -481q-158 -145 -449 -145q-43 0 -82 4q-49 5 -86 14q-152 33 -282 127t-148 256h417q7 -26 27 -48q18 -19 43 -32q20 -10 31 -13q22 -6 33 -7q2 0 6 -1t7.5 -1.5 t7.5 -0.5q8 -1 22 -1q152 0 195 87q44 88 44 212v51q-75 -76 -150 -109q-78 -34 -184 -34q-229 0 -373 153q-145 154 -145 381zM436 530q0 -99 64 -168q63 -67 176 -67q114 0 177 67q62 66 62 168q0 98 -62 167q-63 71 -177 71v2q-112 -1 -176 -73t-64 -167z" />
<glyph unicode="h" horiz-adv-x="1353" d="M123 0v1700h373v-782h4q66 84 146 124q82 41 190 41q202 0 298 -120q97 -121 97 -322v-641h-373v539v3v7q0 88 -30 163q-30 74 -138 74q-106 0 -149 -74q-44 -75 -45 -163v-7v-5v-537h-373z" />
<glyph unicode="i" horiz-adv-x="618" d="M100 1452q0 85 62 147t147 62v2q85 -1 148 -64q61 -61 61 -147t-61 -147q-62 -62 -148 -62q-85 0 -147 62t-62 147zM123 0v1051h373v-1051h-373z" />
<glyph unicode="j" horiz-adv-x="618" d="M100 1452q0 85 62 147t147 62v2q85 -1 148 -64q61 -61 61 -147t-61 -147q-62 -62 -148 -62q-85 0 -147 62t-62 147zM123 -524v1575h373v-1575h-373z" />
<glyph unicode="k" horiz-adv-x="1409" d="M123 0v1700h373v-1028l387 379h510l-527 -486l559 -565h-522l-407 428v-428h-373z" />
<glyph unicode="l" horiz-adv-x="618" d="M123 0v1700h373v-1700h-373z" />
<glyph unicode="m" horiz-adv-x="2025" d="M123 0v1051h373v-131h4q66 85 148 124t183 39q115 0 208 -48q95 -49 151 -152q52 98 151 149t205 51q201 0 280 -116t79 -299v-668h-373v502v2v4v45q0 17 -2 49q-6 70 -36 127t-116 57q-104 0 -138 -67q-33 -65 -38 -148q-2 -24 -2 -36v-35v-500h-373v502v45q0 15 -2 51 q-6 74 -39 135q-33 62 -124 62q-92 0 -125 -62q-33 -61 -39 -135q-2 -36 -2 -51v-47v-500h-373z" />
<glyph unicode="n" horiz-adv-x="1353" d="M123 0v1051h373v-136h4q66 95 146 132q78 36 190 36q214 0 304 -120q91 -121 91 -316v-647h-373v512v10v13v38q0 13 -2 41q-5 65 -37 118q-33 54 -129 54q-112 0 -153 -72q-41 -73 -41 -171v-543h-373z" />
<glyph unicode="o" horiz-adv-x="1355" d="M45 522q0 268 189 415q188 146 444 146v2q255 -2 443 -148q190 -148 190 -415q0 -265 -190 -411t-443 -146q-250 0 -442 145q-191 144 -191 412zM438 522q0 -99 64 -168q63 -67 176 -67q114 0 177 67q63 68 63 168q0 96 -63 167t-177 71v2q-112 -1 -176 -73t-64 -167z " />
<glyph unicode="p" horiz-adv-x="1396" d="M111 -524v1575h372v-119h4q46 71 127 109q79 37 166 42h13h12q236 0 383 -169t147 -394q0 -229 -146 -391q-147 -164 -380 -164h-15h-16q-80 6 -161 38q-77 31 -134 95v-622h-372zM471 522q0 -99 64 -168q63 -67 176 -67q114 0 177 67q62 66 62 168q0 98 -62 167 q-63 71 -177 71v2q-112 -1 -176 -73t-64 -167z" />
<glyph unicode="q" horiz-adv-x="1396" d="M61 520q0 224 149 394q148 169 382 169h16q7 0 17 -2q83 -4 161 -42t123 -109l4 2v119h373v-1575h-373v624q-51 -63 -128 -95q-78 -32 -156 -38q-14 -2 -21 -2h-20q-235 0 -381 164t-146 391zM446 522q0 -99 64 -168q63 -67 176 -67q114 0 177 67q63 68 63 168 q0 96 -63 167t-177 71v2q-112 -1 -176 -73t-64 -167z" />
<glyph unicode="r" horiz-adv-x="927" d="M123 0v1051h373v-172h4q52 93 142 139q88 45 198 45l71 2v-358q-7 1 -15 6t-15 6q-27 11 -62 16q-27 4 -65 4q-156 0 -207 -91q-51 -92 -51 -226v-422h-373z" />
<glyph unicode="s" horiz-adv-x="1050" d="M53 84l135 262q34 -26 80 -48q48 -22 92 -38q27 -9 64 -16q30 -6 59 -6q12 0 18 1q12 2 19 3q31 6 55 24q25 19 25 51q0 46 -43 65q-47 21 -102 32q-30 6 -44 9t-44 11q-90 23 -161 79q-73 58 -73 198q0 190 141 280q142 90 310 92h7h5q90 0 177 -15q88 -15 169 -52v2 l-125 -238q-27 14 -54 23q-25 9 -61 16q-13 3 -44 7q-21 3 -42 3q-13 0 -21 -1q-15 -2 -22 -5q-29 -6 -51 -21t-22 -44q0 -35 29 -52q31 -19 67 -26q21 -6 39 -9q26 -4 33 -5q129 -27 218 -97q87 -69 87 -215q0 -200 -148 -292q-146 -91 -325 -97h-12h-11q-108 0 -220 31 q-105 29 -204 88z" />
<glyph unicode="t" horiz-adv-x="737" d="M37 743v308h121v315h372v-315h211v-308h-211v-743h-372v743h-121z" />
<glyph unicode="u" horiz-adv-x="1349" d="M117 416v635h372v-562q0 -102 36 -165q37 -64 151 -64q113 0 150 64q36 63 36 163v564h373v-633q0 -263 -161 -358t-398 -95q-234 0 -397 95q-162 94 -162 356z" />
<glyph unicode="v" horiz-adv-x="1275" d="M-31 1051h418l252 -539l250 539h418l-549 -1051h-238z" />
<glyph unicode="w" horiz-adv-x="2039" d="M-31 1051h414l262 -570l264 570h221l265 -570l264 570h412l-549 -1051h-242l-260 575l-260 -575h-242z" />
<glyph unicode="x" horiz-adv-x="1458" d="M-31 0l525 569l-426 482h473l188 -217l189 217h481l-434 -482l524 -569h-490l-270 311l-270 -311h-490z" />
<glyph unicode="y" horiz-adv-x="1339" d="M-31 1051h430l281 -539l274 539h424l-841 -1575h-418l358 667z" />
<glyph unicode="z" horiz-adv-x="1144" d="M16 0l494 741h-428v310h1048l-491 -742h442v-309h-1065z" />
<glyph unicode="{" horiz-adv-x="720" d="M74 463v2v213q2 -2 4 -2h4h27q15 0 28 4q31 6 56 28q24 21 24 76v521q0 104 42 173q41 68 93 103q31 21 52 27q27 8 45 8l198 2v-246h-51q-64 -2 -79 -35t-15 -73v-7v-8v-458q0 -89 -36 -133q-36 -43 -79 -64q-22 -10 -44 -15q-37 -8 -38 -8v-2q6 -2 20.5 -4.5t17.5 -3.5 q22 -5 44 -12q42 -17 79 -67q36 -48 36 -154v-453v-3v-3q0 -44 13 -79q13 -36 81 -36h51v-246h-198q-14 0 -45 9q-23 7 -52 26q-50 34 -93 103q-42 68 -42 172v518q0 66 -24 91q-24 26 -56 32q-3 1 -10 2t-10 1q-7 1 -19 1h-14h-10z" />
<glyph unicode="|" horiz-adv-x="1185" d="M440 0v1700h308v-1700h-308z" />
<glyph unicode="}" horiz-adv-x="720" d="M74 -246h51q67 0 81 36q13 35 13 79v3v3v455q0 104 36 152q37 50 79 67q22 7 44 12q21 4 38 6v6q-10 0 -38 6q-22 5 -44 15q-43 21 -79 64q-36 44 -36 130v463v6v7q0 40 -15 73t-79 33l-51 2v246h198q14 -1 44 -10q22 -7 53 -27q52 -35 93 -103q42 -69 42 -175v-517 q0 -57 24 -78q25 -22 56 -28q13 -4 28 -4h27h4h4v2v-213q-6 -2 -11 -2h-15q-12 0 -18 -1q-12 -2 -19 -3q-32 -6 -56 -32q-24 -25 -24 -93v-516q0 -104 -42 -172q-43 -69 -93 -103q-28 -19 -53 -26q-31 -9 -44 -9h-198v246z" />
<glyph unicode="~" d="M100 487q17 18 46 60q8 12 24.5 35t24.5 34q53 72 117 132q63 59 149 59q28 0 55 -7q28 -8 57 -18q42 -18 78 -40q44 -27 72 -50q25 -20 49 -36t55 -29q26 -15 62 -27q29 -10 55 -10t52 32q28 34 44 68q10 21 18 39q3 7 7.5 18.5t5.5 14.5v2l234 -199q-7 -14 -33 -56 q-18 -30 -39 -60q-51 -74 -124 -141q-70 -64 -163 -64q-59 0 -108 21q-51 22 -95 48q-4 2 -12 8t-12 8t-25 13l-21 12q-3 2 -22 15q-13 8 -48 30t-53 33q-47 29 -85 29q-29 0 -56 -35q-28 -36 -49 -76q-10 -22 -15 -32q-7 -14 -13 -29z" />
<glyph unicode="&#xa1;" horiz-adv-x="786" d="M154 848q0 101 69 170t170 69v3q99 -1 170 -72q70 -70 70 -170q0 -97 -70 -169q-69 -71 -170 -71t-170 71t-69 169zM201 -498v1020h387v-1020h-387z" />
<glyph unicode="&#xa2;" d="M289 770q0 233 145 385q146 153 373 174v193h190v-203l119 -35v-334q-40 36 -82 55q-45 21 -98 21q-107 0 -183 -70q-75 -69 -75 -180q0 -103 70 -178q69 -74 176 -74h8h8q45 1 96 21q47 18 80 57v-332q-30 -13 -58 -21q-26 -8 -61 -13v-216h-190v203q-215 8 -367 170 q-151 161 -151 377z" />
<glyph unicode="&#xa3;" d="M39 614v156h221q-34 56 -54 123q-20 69 -20 137q0 112 43 213t123 178q91 87 202 118q113 32 230 32q307 0 437 -140q132 -142 133 -442l-398 2v72q0 75 -54 134q-54 58 -132 58q-95 0 -144 -64q-51 -66 -51 -153q0 -74 23 -143q23 -68 61 -127l320 2v-156h-291 q9 -25 14 -64q5 -40 5 -77v-8v-8q-1 -23 -7 -65q-4 -32 -12 -54l23 -6q5 -2 14.5 -6.5t14.5 -6.5q10 -4 34 -10q30 -10 46 -14t46 -12q44 -11 79 -17q38 -6 69 -6q48 0 76 27t28 73l250 2q-12 -170 -103 -282q-92 -113 -274 -113q-46 0 -84 7q-44 8 -82 18q-17 5 -41 10 q-28 6 -43 10q-7 4 -16 6l-16 5l-29 8q-6 2 -18 4.5t-15 3.5q-11 3 -35 9q-6 2 -18.5 5t-18.5 4t-30 5.5t-37 6.5q-37 5 -59 5q-12 0 -17 -1t-14 -1q-34 -6 -62 -24q-30 -19 -37 -48h-266q0 1 1.5 6t2.5 8l4 17q29 121 120 225q89 102 225 104q6 11 9 22q4 16 7 24q0 2 1 6 t1.5 7.5t0.5 7.5q1 8 1 22q-1 41 -17 83q-14 38 -40 80z" />
<glyph unicode="&#xa4;" d="M100 311l136 135q-49 65 -75 147q-28 89 -28 179v8v8q1 88 28 177q25 85 75 145l-136 139l127 129l138 -137q62 45 142 71q86 28 169 34h16h17q92 0 182 -29q88 -28 145 -78l138 139l126 -127l-126 -129q46 -65 76 -151q29 -84 34 -176v-10v-9q0 -91 -31 -182 q-29 -85 -84 -148l136 -133l-123 -133l-138 135q-62 -53 -150 -83q-86 -29 -185 -29q-103 0 -191 28q-90 29 -156 84l-135 -133zM440 766q0 -117 78 -186q79 -70 191 -70q113 0 191 70q77 69 77 186q0 113 -77 193q-76 79 -191 79v2q-116 -2 -192 -81q-77 -80 -77 -193z" />
<glyph unicode="&#xa5;" d="M-23 1544h455l270 -420l271 420h454l-317 -475h186v-156h-290l-115 -172h405v-155h-405v-586h-377v586h-410v155h408l-117 172h-291v156h189z" />
<glyph unicode="&#xa6;" horiz-adv-x="702" />
<glyph unicode="&#xa7;" d="M117 618q0 102 51 187t125 147q-28 28 -50 70t-32 86q-3 14 -7 42q-3 21 -3 42q0 194 145 293q144 98 322 98q182 0 329 -87q149 -88 156 -292v2h-322q-12 51 -50 86t-95 35q-44 0 -80 -28q-35 -27 -35 -76q0 -59 41 -94q39 -33 90 -58l31 -15q24 -12 29 -14l227 -112 q5 -4 15 -9l14 -8q116 -59 194 -133t78 -225q0 -98 -48 -180t-124 -142q44 -41 66 -89q26 -58 33 -107q3 -11 5 -35q1 -11 1 -33q0 -223 -167 -331q-168 -109 -368 -109h-16h-17q-203 11 -369 123q-167 113 -165 334v5v5v4v4l375 2v-5v-1q0 -77 59 -126q60 -50 129 -54h7h5 q64 0 110 36t46 101q0 53 -38 86q-36 31 -83 55l-26 13l-25 12l-324 160q-107 51 -173 131t-66 204zM430 705q0 -52 35 -82q37 -32 78 -52q17 -10 20 -11l21 -9v2l342 -170q15 11 29 33q15 23 20 43q1 2 2 7.5t1 8.5q1 5 1 17q0 49 -34 79q-39 34 -75 54q-17 10 -20 11 l-21 9l-335 172q-29 -19 -47 -48q-17 -28 -17 -64z" />
<glyph unicode="&#xa8;" horiz-adv-x="1236" d="M154 1436q0 84 59 142t143 58v2q85 -2 143 -60t58 -142q0 -85 -58 -143t-143 -58q-84 0 -143 58t-59 143zM678 1436q0 84 59 142t144 58v2q83 -1 142 -60q58 -58 58 -142q0 -85 -58 -143t-142 -58q-85 0 -144 58t-59 143z" />
<glyph unicode="&#xa9;" horiz-adv-x="1638" d="M8 768q0 340 236 578q236 237 575 237q338 0 575 -237q236 -236 236 -578q0 -336 -236 -572q-237 -237 -575 -237q-339 0 -575 237q-236 238 -236 572zM201 768q0 -270 176 -444q175 -174 442 -174v2q263 -2 441 172t178 444q0 275 -178 449t-441 174q-267 0 -442 -174 q-176 -174 -176 -449zM403 776q0 202 119 336q118 133 328 133q146 0 252 -81q107 -82 131 -226v2h-184q-12 74 -69 111q-55 36 -132 36q-120 0 -186 -93t-66 -214v-8v-8q6 -114 75 -205q69 -92 183 -92q71 0 131 42q59 42 64 116l184 2q-17 -150 -127 -234 q-111 -84 -252 -84q-205 0 -328 136t-123 331z" />
<glyph unicode="&#xaa;" horiz-adv-x="837" d="M23 645v154h794v-154h-794zM23 1247q0 137 95 237q95 99 247 99h13q5 0 13 -2q58 -5 102 -23q47 -19 82 -57v64h242v-631h-242v70h-4q-29 -46 -78 -67q-51 -22 -106 -26h-9h-11q-152 0 -248 101q-96 100 -96 235zM272 1247q0 -59 46 -101q47 -42 110 -42v2q67 -2 111 40 q45 42 45 101q0 60 -45 102t-111 42q-64 0 -110 -42t-46 -102z" />
<glyph unicode="&#xab;" horiz-adv-x="1234" d="M53 655l353 504l204 -141l-258 -363l264 -356l-210 -147zM563 655l352 504l205 -141l-258 -363l264 -356l-211 -147z" />
<glyph unicode="&#xac;" horiz-adv-x="702" />
<glyph unicode="&#xad;" horiz-adv-x="1024" />
<glyph unicode="&#xae;" horiz-adv-x="1638" d="M8 768q0 340 236 578q236 237 575 237q338 0 575 -237q236 -236 236 -578q0 -336 -236 -572q-237 -237 -575 -237q-339 0 -575 237q-236 238 -236 572zM201 768q0 -270 176 -444q175 -174 442 -174v2q263 -2 441 172t178 444q0 275 -178 449t-441 174q-267 0 -442 -174 q-176 -174 -176 -449zM496 358v844h409q144 -1 237 -47q91 -45 91 -213q0 -117 -58 -169q-59 -53 -171 -60v2l204 -357h-204l-189 357h-131v-357h-188zM684 842h225q75 -2 110 21q38 24 38 104q0 50 -44 67q-46 18 -95 19h-27h-25l-182 2v-213z" />
<glyph unicode="&#xaf;" horiz-adv-x="702" />
<glyph unicode="&#xb0;" horiz-adv-x="819" d="M102 1274v1v3v3v1q0 124 89 213q88 88 217 88q127 0 218 -91t91 -218v2q0 -127 -91 -217q-92 -90 -218 -90q-130 0 -218 90q-88 89 -88 215zM276 1276q0 -55 39 -94t95 -39q55 0 94 39t39 94v2q0 50 -39 91q-39 40 -96 40q-51 0 -92 -38q-40 -37 -40 -91v-1v-1v-1v-1z " />
<glyph unicode="&#xb1;" d="M178 0v307h1049v-307h-1049zM178 741v308h371v290h307v-290h371v-308h-371v-290h-307v290h-371z" />
<glyph unicode="&#xb2;" horiz-adv-x="702" />
<glyph unicode="&#xb3;" horiz-adv-x="702" />
<glyph unicode="&#xb4;" horiz-adv-x="823" d="M154 1327l288 352l228 -163l-351 -310z" />
<glyph unicode="&#xb5;" horiz-adv-x="1349" d="M117 -524v1575h372v-562q0 -102 36 -165q37 -64 151 -64q113 0 150 64q36 63 36 163v564h373v-633q0 -206 -101 -304q-103 -100 -225 -128q-45 -12 -78 -16q-43 -5 -73 -5q-82 0 -144 24t-100 52q-8 8 -12 11q-8 6 -13 11v-587h-372z" />
<glyph unicode="&#xb6;" d="M94 1053v9v11q0 176 135 323q134 146 308 146v2h772v-186h-135v-1706h-207v1704h-191v-1704h-207v942q-180 15 -312 107q-134 93 -161 331q0 8 -1 11t-1 10z" />
<glyph unicode="&#xb7;" horiz-adv-x="702" />
<glyph unicode="&#xb9;" horiz-adv-x="702" />
<glyph unicode="&#xba;" horiz-adv-x="839" d="M10 645v154h821v-154h-821zM10 1247q0 162 123 249t287 87v2q163 -1 288 -89q123 -86 123 -249t-123 -249q-124 -87 -288 -87t-287 87t-123 249zM266 1247q0 -59 45 -100q46 -41 109 -41q64 0 110 41q45 41 45 100q0 61 -45 101q-46 41 -110 41v2q-63 -1 -109 -43 q-45 -40 -45 -101z" />
<glyph unicode="&#xbb;" horiz-adv-x="1234" d="M109 299l264 356l-258 363l204 141l353 -504l-353 -503zM618 299l265 356l-258 363l204 141l353 -504l-353 -503z" />
<glyph unicode="&#xbc;" horiz-adv-x="702" />
<glyph unicode="&#xbd;" horiz-adv-x="2107" d="M205 1341v203h403v-926h-260v723h-143zM367 0l897 1544h200l-897 -1544h-200zM1096 0l411 412q42 39 79 101q36 60 36 124v5v5q-4 41 -36 75q-31 34 -79 34q-53 0 -82 -33q-28 -32 -28 -80q0 -11 1 -18l3 -21l-287 2q6 156 110 256q104 99 281 99q157 0 273 -90 q114 -89 114 -240q0 -84 -30 -144q-29 -57 -88 -112q-14 -14 -21 -20q-14 -12 -22 -19v2l-156 -135h328v-203h-807z" />
<glyph unicode="&#xbe;" horiz-adv-x="702" />
<glyph unicode="&#xbf;" horiz-adv-x="1218" d="M92 -59q0 172 108 281q108 110 263 159v147h375v-397q-14 1 -42 5q-21 3 -44 3q-20 0 -31 -1q-21 -2 -31 -5q-78 -15 -139 -63q-64 -50 -64 -131q0 -65 43 -109q44 -45 107 -45q71 0 107 45t36 111h408q-1 -233 -173 -358q-170 -124 -388 -124q-94 0 -190 31 q-92 30 -169 96q-76 63 -126 158t-50 197zM403 848q0 100 70 170q69 69 170 69v3q99 -1 170 -72q70 -70 70 -170q0 -97 -70 -169q-69 -71 -170 -71t-170 71q-70 72 -70 169z" />
<glyph unicode="&#xc0;" horiz-adv-x="1599" d="M-8 0l594 1544h438l582 -1544h-428l-101 268h-553l-106 -268h-426zM543 2009l227 164l289 -352l-166 -121zM635 575h334l-164 492h-4z" />
<glyph unicode="&#xc1;" horiz-adv-x="1599" d="M-8 0l594 1544h438l582 -1544h-428l-101 268h-553l-106 -268h-426zM543 1821l288 352l228 -164l-350 -309zM635 575h334l-164 492h-4z" />
<glyph unicode="&#xc2;" horiz-adv-x="1599" d="M-8 0l594 1544h438l582 -1544h-428l-101 268h-553l-106 -268h-426zM350 1855l447 336l452 -336l-157 -172l-295 228l-295 -228zM635 575h334l-164 492h-4z" />
<glyph unicode="&#xc3;" horiz-adv-x="1599" d="M-8 0l594 1544h438l582 -1544h-428l-101 268h-553l-106 -268h-426zM391 1778q0 49 10 93q10 45 35 87q28 46 77 81q47 34 105 34q29 0 67 -8q48 -10 71 -17q7 -1 19 -5q11 -4 20 -5q50 -13 86 -24q37 -11 71 -11q38 0 53 18q13 16 27 50q0 2 1 3t1 3l174 2 q-1 -7 -2.5 -18.5t-1.5 -15.5q0 -5 -1.5 -15.5t-2.5 -16.5q-21 -97 -83 -178q-63 -82 -175 -82q-26 0 -47 4q-25 5 -47 12q-11 3 -33 11q-11 4 -31 12q-12 4 -25.5 8t-29 9t-23.5 8q-38 12 -75 12q-33 0 -45 -20q-15 -24 -21 -46q-1 -1 -3 -5q-1 -2 -1 -5v2h-168zM635 575 h334l-164 492h-4z" />
<glyph unicode="&#xc4;" horiz-adv-x="1599" d="M-8 0l594 1544h438l582 -1544h-428l-101 268h-553l-106 -268h-426zM336 1929q0 85 59 143t144 58v2q83 -1 142 -60q58 -58 58 -143q0 -84 -58 -142t-142 -58q-85 0 -144 58t-59 142zM635 575h334l-164 492h-4zM860 1929q0 85 60 143q59 58 143 58v2q83 -1 142 -60 t59 -143q0 -83 -59 -142q-58 -58 -142 -58t-143 58q-60 59 -60 142z" />
<glyph unicode="&#xc5;" horiz-adv-x="1599" d="M-8 0l594 1544h438l582 -1544h-428l-101 268h-553l-106 -268h-426zM485 1923q0 129 94 182q97 55 205 56h8h5v2q8 -2 13 -2h13q108 -6 200 -59q91 -52 91 -177t-90 -178q-87 -52 -199 -57h-11h-11h-18q-5 0 -19 2q-104 6 -193 57q-88 51 -88 174zM635 575h334l-164 492 h-4zM680 1925q0 -45 33 -64q33 -20 73 -24h7h8h9h9q41 5 70 25q31 22 31 63q0 42 -31 64q-27 19 -70 24h-9h-9v2q-6 -2 -8 -2h-7q-42 -5 -73 -23q-33 -20 -33 -65z" />
<glyph unicode="&#xc6;" horiz-adv-x="2101" d="M-8 0l596 1544h946l125 -340h-508l94 -258h506l129 -340h-510l100 -266h508l123 -340h-930l-100 268h-559l-96 -268h-424zM623 575h340l-166 459z" />
<glyph unicode="&#xc7;" horiz-adv-x="1351" d="M53 768q0 157 59 305q59 149 169 260q113 114 260 179q151 67 309 71h9h9q101 0 188 -20q92 -21 179 -58v2v-481q-60 81 -156 125q-93 43 -196 43q-184 0 -298 -124q-114 -125 -114 -304q0 -182 116 -301t302 -119q97 0 190 44q94 45 156 120v-479q-65 -21 -105 -32 q-50 -13 -96 -24q-38 -7 -75 -12q-33 -4 -78 -4q-164 0 -311 58q-146 57 -269 167q-126 113 -187 263q-61 151 -61 321zM440 -385l267 324l202 -132l-309 -292z" />
<glyph unicode="&#xc8;" horiz-adv-x="1126" d="M131 0v1544h879v-340h-478v-258h453v-340h-453v-266h478v-340h-879zM305 2009l227 164l289 -352l-166 -121z" />
<glyph unicode="&#xc9;" horiz-adv-x="1126" d="M131 0v1544h879v-340h-478v-258h453v-340h-453v-266h478v-340h-879zM305 1821l289 352l227 -164l-350 -309z" />
<glyph unicode="&#xca;" horiz-adv-x="1126" d="M113 1855l446 336l453 -336l-158 -172l-295 228l-295 -228zM131 0v1544h879v-340h-478v-258h453v-340h-453v-266h478v-340h-879z" />
<glyph unicode="&#xcb;" horiz-adv-x="1126" d="M98 1929q0 85 60 143q59 58 143 58v2q83 -1 142 -60t59 -143q0 -83 -59 -142q-58 -58 -142 -58t-143 58q-60 59 -60 142zM131 0v1544h879v-340h-478v-258h453v-340h-453v-266h478v-340h-879zM623 1929q0 85 59 143t143 58v2q85 -2 143 -60t58 -143q0 -84 -58 -142 t-143 -58q-84 0 -143 58t-59 142z" />
<glyph unicode="&#xcc;" horiz-adv-x="663" d="M74 2009l227 164l289 -352l-166 -121zM131 0v1544h401v-1544h-401z" />
<glyph unicode="&#xcd;" horiz-adv-x="663" d="M74 1821l288 352l228 -164l-350 -309zM131 0v1544h401v-1544h-401z" />
<glyph unicode="&#xce;" horiz-adv-x="663" d="M-119 1855l447 336l452 -336l-157 -172l-295 228l-295 -228zM131 0v1544h401v-1544h-401z" />
<glyph unicode="&#xcf;" horiz-adv-x="663" d="M-131 1929q0 85 59 143t142 58v2q83 -1 142 -60q58 -58 58 -143q0 -84 -58 -142t-142 -58q-83 0 -142 58t-59 142zM131 0v1544h401v-1544h-401zM391 1929q0 85 60 143q59 58 143 58v2q83 -1 142 -60t59 -143q0 -83 -59 -142q-58 -58 -142 -58t-143 58q-60 59 -60 142z " />
<glyph unicode="&#xd0;" horiz-adv-x="1540" d="M-41 633v315h172v596h569q323 -1 554 -225q231 -223 231 -549q0 -325 -232 -548q-231 -222 -553 -222h-569v633h-172zM532 340h91q181 -2 312 101q132 103 132 329q0 208 -123 320q-122 112 -317 112l-95 2v-256h226v-315h-226v-293z" />
<glyph unicode="&#xd1;" horiz-adv-x="1804" d="M131 0v1544h401l736 -944h4v944h401v-1544h-401l-735 946h-5v-946h-401zM494 1778q0 49 10 93q10 45 35 87q29 47 76 81t106 34q28 0 66 -8q48 -10 71 -17q9 -1 20 -5q12 -4 19 -5q50 -13 86 -24q37 -11 72 -11q37 0 52 18t28 50q0 2 1 3t1 3l174 2q-1 -7 -2.5 -18.5 t-1.5 -15.5q0 -5 -1.5 -15.5t-2.5 -16.5q-21 -97 -83 -178q-63 -82 -176 -82q-26 0 -47 4q-25 5 -47 12q-7 2 -32 11q-11 4 -31 12q-12 4 -79 25q-38 12 -75 12q-33 0 -45 -20q-13 -21 -20 -46q-1 -1 -3 -5q-1 -2 -1 -5v2h-168z" />
<glyph unicode="&#xd2;" horiz-adv-x="702" />
<glyph unicode="&#xd3;" horiz-adv-x="1816" d="M53 799q0 350 260 572q259 222 594 222v2q334 -1 594 -224q260 -222 260 -572q0 -376 -240 -613t-614 -237q-371 0 -612 237q-242 237 -242 613zM471 797q0 -199 128 -330t308 -131t308 131t128 330q0 158 -128 283q-127 124 -308 124v2q-181 -2 -308 -126 q-128 -125 -128 -283zM651 1821l289 352l227 -164l-350 -309z" />
<glyph unicode="&#xd4;" horiz-adv-x="1816" d="M53 799q0 350 260 572q259 222 594 222v2q334 -1 594 -224q260 -222 260 -572q0 -376 -240 -613t-614 -237q-371 0 -612 237q-242 237 -242 613zM459 1855l446 336l453 -336l-158 -172l-295 228l-295 -228zM471 797q0 -199 128 -330t308 -131t308 131t128 330 q0 158 -128 283q-127 124 -308 124v2q-181 -2 -308 -126q-128 -125 -128 -283z" />
<glyph unicode="&#xd5;" horiz-adv-x="1816" d="M53 799q0 350 260 572q259 222 594 222v2q334 -1 594 -224q260 -222 260 -572q0 -376 -240 -613t-614 -237q-371 0 -612 237q-242 237 -242 613zM471 797q0 -199 128 -330t308 -131t308 131t128 330q0 158 -128 283q-127 124 -308 124v2q-181 -2 -308 -126 q-128 -125 -128 -283zM500 1778q0 49 10 93q10 45 35 87q28 46 77 81q47 34 105 34q29 0 67 -8q45 -9 70 -17q9 -1 20 -5q12 -4 19 -5q50 -13 86 -24q37 -11 72 -11q37 0 52 18t28 50q0 2 1 3t1 3l174 2q-1 -7 -2.5 -18.5t-1.5 -15.5q0 -5 -1.5 -15.5t-2.5 -16.5 q-21 -97 -83 -178q-63 -82 -175 -82q-26 0 -47 4q-27 5 -48 12q-7 2 -32 11q-11 4 -31 12q-12 4 -79 25q-38 12 -75 12q-33 0 -45 -20q-13 -21 -20 -46q-1 -1 -3 -5q-1 -2 -1 -5v2h-168z" />
<glyph unicode="&#xd6;" horiz-adv-x="1816" d="M53 799q0 350 260 572q259 222 594 222v2q334 -1 594 -224q260 -222 260 -572q0 -376 -240 -613t-614 -237q-371 0 -612 237q-242 237 -242 613zM444 1929q0 85 60 143q59 58 143 58v2q85 -2 143 -60t58 -143q0 -84 -58 -142t-143 -58q-84 0 -143 58q-60 59 -60 142z M471 797q0 -199 128 -330t308 -131t308 131t128 330q0 158 -128 283q-127 124 -308 124v2q-181 -2 -308 -126q-128 -125 -128 -283zM969 1929q0 85 59 143t143 58v2q85 -2 143 -60t58 -143q0 -84 -58 -142t-143 -58q-84 0 -143 58t-59 142z" />
<glyph unicode="&#xd7;" horiz-adv-x="702" />
<glyph unicode="&#xd8;" horiz-adv-x="1816" d="M23 100l190 183q-77 111 -118 231q-42 122 -42 283q0 334 244 566q242 230 602 230q45 0 93 -3q43 -3 98 -11q95 -16 187 -51q91 -34 159 -96l196 192l158 -168l-188 -184q12 -17 25 -39q4 -6 12 -18.5t12 -18.5q56 -93 83 -188q27 -96 27 -211q0 -380 -247 -614 q-248 -234 -605 -234h-15h-15q-135 5 -264 46q-130 42 -238 120l-195 -183zM471 797q0 -67 13 -122q14 -57 40 -100v3l598 571q-32 19 -62 29q-39 14 -71 20l-41 4q-28 2 -39 2q-177 0 -307 -123q-131 -123 -131 -284zM680 399q24 -14 41 -21q32 -13 39 -16q31 -14 70 -20 q36 -6 79 -6q180 0 308 131q126 129 126 330q0 53 -12 100q-12 46 -41 86v2z" />
<glyph unicode="&#xd9;" horiz-adv-x="1593" d="M123 674v870h401v-813v-25v-24q1 -139 48 -256q46 -117 225 -117q177 0 224 117t48 256v24v23v815h401v-868q0 -158 -23 -293q-24 -142 -138 -254q-75 -75 -175 -112q-104 -38 -208 -50q-33 -5 -66 -6q-44 -2 -63 -2q-20 0 -64 2q-32 1 -65 6q-104 12 -208 50 q-100 37 -175 112q-115 114 -139 254q-23 135 -23 291zM539 2009l227 164l289 -352l-166 -121z" />
<glyph unicode="&#xda;" horiz-adv-x="1593" d="M123 674v870h401v-813v-25v-24q1 -139 48 -256q46 -117 225 -117q177 0 224 117t48 256v24v23v815h401v-868q0 -158 -23 -293q-24 -142 -138 -254q-75 -75 -175 -112q-104 -38 -208 -50q-33 -5 -66 -6q-44 -2 -63 -2q-20 0 -64 2q-32 1 -65 6q-104 12 -208 50 q-100 37 -175 112q-115 114 -139 254q-23 135 -23 291zM539 1821l288 352l228 -164l-350 -309z" />
<glyph unicode="&#xdb;" horiz-adv-x="1593" d="M123 674v870h401v-813v-25v-24q1 -139 48 -256q46 -117 225 -117q177 0 224 117t48 256v24v23v815h401v-868q0 -158 -23 -293q-24 -142 -138 -254q-75 -75 -175 -112q-104 -38 -208 -50q-33 -5 -66 -6q-44 -2 -63 -2q-20 0 -64 2q-32 1 -65 6q-104 12 -208 50 q-100 37 -175 112q-115 114 -139 254q-23 135 -23 291zM346 1855l447 336l452 -336l-158 -172l-294 228l-295 -228z" />
<glyph unicode="&#xdc;" horiz-adv-x="1593" d="M123 674v870h401v-813v-25v-24q1 -139 48 -256q46 -117 225 -117q177 0 224 117t48 256v24v23v815h401v-868q0 -158 -23 -293q-24 -142 -138 -254q-75 -75 -175 -112q-104 -38 -208 -50q-33 -5 -66 -6q-44 -2 -63 -2q-20 0 -64 2q-32 1 -65 6q-104 12 -208 50 q-100 37 -175 112q-115 114 -139 254q-23 135 -23 291zM332 1929q0 85 59 143t144 58v2q83 -1 142 -60q58 -58 58 -143q0 -84 -58 -142t-142 -58q-85 0 -144 58t-59 142zM856 1929q0 85 59 143t144 58v2q83 -1 142 -60t59 -143q0 -83 -59 -142q-58 -58 -142 -58 q-85 0 -144 58t-59 142z" />
<glyph unicode="&#xdd;" horiz-adv-x="702" />
<glyph unicode="&#xde;" horiz-adv-x="1353" d="M131 0v1544h401v-246h213q251 -2 406 -122q156 -121 156 -388q0 -272 -143 -398q-142 -126 -404 -126l-228 2v-266h-401zM532 590h68q114 -2 199 21q90 24 90 165q0 145 -86 171q-87 26 -203 26l-68 2v-385z" />
<glyph unicode="&#xdf;" horiz-adv-x="1333" d="M16 608v297h107v301v7v10q1 101 24 195q23 95 103 165q63 60 147 90q86 31 172 41q28 2 43 3t43 1q211 0 360 -113q150 -114 150 -339q0 -112 -48 -184q-47 -71 -134 -138q152 -60 228 -157q77 -98 77 -279q0 -29 -3 -59q-3 -34 -9 -62q-15 -83 -52 -160t-100 -129 q-64 -55 -140 -82q-83 -30 -161 -41q-38 -7 -70 -8q-48 -2 -69 -2h-80v318q2 -2 4 -2h4h4h5q110 0 185 66t75 181q0 114 -76 183q-76 68 -182 67h-10h-9v299q2 -2 4 -2h4h2h4q84 0 136 39q53 39 53 127q0 72 -42 114t-114 42q-108 0 -132 -70q-23 -66 -23 -151v-8v-5v-1163 h-373v608h-107z" />
<glyph unicode="&#xe0;" horiz-adv-x="1396" d="M47 524q0 226 147 392q147 167 379 167h21q6 0 20 -2q82 -6 157 -40q79 -35 128 -95v105h373v-1051h-373v117h-4q-45 -74 -123 -110q-77 -35 -162 -40q-10 -2 -16 -2h-16q-233 0 -382 167t-149 392zM432 522q0 -99 64 -168q63 -67 176 -67q114 0 177 67q62 66 62 168 q0 98 -62 167q-63 71 -177 71v2q-112 -1 -176 -73t-64 -167zM440 1516l228 163l288 -352l-165 -121z" />
<glyph unicode="&#xe1;" horiz-adv-x="1396" d="M47 524q0 226 147 392q147 167 379 167h21q6 0 20 -2q82 -6 157 -40q79 -35 128 -95v105h373v-1051h-373v117h-4q-45 -74 -123 -110q-77 -35 -162 -40q-10 -2 -16 -2h-16q-233 0 -382 167t-149 392zM432 522q0 -99 64 -168q63 -67 176 -67q114 0 177 67q62 66 62 168 q0 98 -62 167q-63 71 -177 71v2q-112 -1 -176 -73t-64 -167zM440 1327l289 352l227 -163l-350 -310z" />
<glyph unicode="&#xe2;" horiz-adv-x="1396" d="M47 524q0 226 147 392q147 167 379 167h21q6 0 20 -2q82 -6 157 -40q79 -35 128 -95v105h373v-1051h-373v117h-4q-45 -74 -123 -110q-77 -35 -162 -40q-10 -2 -16 -2h-16q-233 0 -382 167t-149 392zM248 1362l446 336l453 -336l-158 -172l-295 227l-295 -227zM432 522 q0 -99 64 -168q63 -67 176 -67q114 0 177 67q62 66 62 168q0 98 -62 167q-63 71 -177 71v2q-112 -1 -176 -73t-64 -167z" />
<glyph unicode="&#xe3;" horiz-adv-x="1396" d="M47 524q0 226 147 392q147 167 379 167h21q6 0 20 -2q82 -6 157 -40q79 -35 128 -95v105h373v-1051h-373v117h-4q-45 -74 -123 -110q-77 -35 -162 -40q-10 -2 -16 -2h-16q-233 0 -382 167t-149 392zM291 1284q0 49 10 93q10 45 35 87q28 46 77 81q47 34 105 34 q33 0 67 -7t70 -18q9 -1 20 -5q12 -4 19 -5q84 -22 86 -23q40 -12 72 -12q36 0 52 19t28 49q0 2 1 3t1 3l174 2q-1 -7 -2.5 -18.5t-1.5 -15.5q0 -5 -1.5 -15t-2.5 -16q-22 -99 -83 -179q-62 -81 -175 -81q-26 0 -47 4q-25 5 -47 12q-22 6 -33 10t-31 12q-12 4 -79 25 q-37 12 -75 12q-33 0 -45 -19q-13 -21 -20 -46q-1 -1 -3 -5q-1 -2 -1 -5v2h-168zM432 522q0 -99 64 -168q63 -67 176 -67q114 0 177 67q62 66 62 168q0 98 -62 167q-63 71 -177 71v2q-112 -1 -176 -73t-64 -167z" />
<glyph unicode="&#xe4;" horiz-adv-x="1396" d="M47 524q0 226 147 392q147 167 379 167h21q6 0 20 -2q82 -6 157 -40q79 -35 128 -95v105h373v-1051h-373v117h-4q-45 -74 -123 -110q-77 -35 -162 -40q-10 -2 -16 -2h-16q-233 0 -382 167t-149 392zM233 1436q0 84 60 142q59 58 143 58v2q85 -2 143 -60t58 -142 q0 -85 -58 -143t-143 -58q-84 0 -143 58q-60 59 -60 143zM432 522q0 -99 64 -168q63 -67 176 -67q114 0 177 67q62 66 62 168q0 98 -62 167q-63 71 -177 71v2q-112 -1 -176 -73t-64 -167zM758 1436q0 84 59 142t144 58v2q83 -1 142 -60q58 -58 58 -142q0 -85 -58 -143 t-142 -58q-85 0 -144 58t-59 143z" />
<glyph unicode="&#xe5;" horiz-adv-x="1396" d="M47 524q0 226 147 392q147 167 379 167h21q6 0 20 -2q82 -6 157 -40q79 -35 128 -95v105h373v-1051h-373v117h-4q-45 -74 -123 -110q-77 -35 -162 -40q-10 -2 -16 -2h-16q-233 0 -382 167t-149 392zM385 1430q0 130 93 182q95 54 206 55h7h5v2q8 -2 14 -2h13 q110 -6 200 -58q91 -52 91 -177q0 -126 -90 -179q-87 -52 -199 -57h-11h-12h-17q-5 0 -19 2q-104 6 -193 57q-88 51 -88 175zM432 522q0 -99 64 -168q63 -67 176 -67q114 0 177 67q62 66 62 168q0 98 -62 167q-63 71 -177 71v2q-112 -1 -176 -73t-64 -167zM580 1432 q0 -46 32 -65q33 -19 74 -24h6h8h10h9q40 5 69 25q31 22 31 64q0 41 -31 63q-29 20 -69 25h-9h-10v2q-6 -2 -8 -2h-6q-41 -5 -74 -24q-32 -19 -32 -64z" />
<glyph unicode="&#xe6;" horiz-adv-x="1925" d="M43 301q0 188 133 269q134 81 299 81q50 0 86 -4q49 -5 82 -14q11 -2 30.5 -8t22.5 -7q25 -7 56 -20v33q0 107 -78 144q-79 38 -172 38q-63 0 -114 -10q-61 -12 -107 -25q-24 -8 -36 -11t-36 -11v280q15 3 53.5 12t59.5 13q57 12 114 18q14 1 40 3q13 1 38 1q28 0 42 -1 t44 -3q91 -12 178 -53q86 -41 131 -129q52 79 140 124q87 44 180 56q12 3 38 5q13 1 38 1q275 0 425 -157q150 -158 150 -426v-37h-784q0 -116 59 -175q61 -61 174 -61q60 0 104 23t74 74l359 2q-45 -189 -200 -275t-335 -86q-31 0 -47 1q-32 2 -47 5q-100 12 -194 58 q-90 44 -134 141q-79 -99 -189 -151q-114 -54 -237 -54q-14 0 -42 2q-7 0 -21.5 1.5t-22.5 2.5q-131 21 -243 101q-111 80 -111 229zM406 332q0 -51 36 -75q40 -27 82 -34q4 -1 12.5 -2t12.5 -1q8 -1 24 -1q10 0 36 2q16 1 40 8q41 11 76 35t35 66q0 47 -38 71 q-38 25 -83 35q-21 5 -41 6q-28 2 -37 2v2q-7 -1 -19 -3q-6 -1 -20 -3q-47 -6 -81 -32q-35 -26 -35 -76zM1108 676v2h432q-15 74 -75 119t-136 45q-81 0 -143 -42t-78 -124z" />
<glyph unicode="&#xe7;" horiz-adv-x="989" d="M47 512q0 254 170 413q168 158 418 158q65 0 128 -15q59 -14 118 -46v2v-315q-42 30 -90 50q-50 21 -103 21q-107 0 -181 -73q-75 -73 -75 -183q0 -113 74 -185q75 -73 188 -73q14 0 22 1q4 0 7.5 0.5t7.5 1.5t6 1q40 6 77 24q42 20 67 44v-313q-61 -30 -128 -45 q-66 -15 -135 -15q-232 0 -402 155q-169 154 -169 392zM260 -385l266 324l203 -132l-309 -292z" />
<glyph unicode="&#xe8;" horiz-adv-x="1249" d="M45 522q0 262 163 412q162 149 419 149q275 0 425 -157q150 -158 150 -426v2v-39h-784q0 -116 59 -175q61 -61 174 -61q60 0 104 23t74 74l359 2q-45 -189 -200 -275t-335 -86q-259 0 -434 143q-174 142 -174 414zM367 1516l227 163l289 -352l-166 -121zM424 676v2h432 q-15 74 -75 119t-136 45q-81 0 -143 -42t-78 -124z" />
<glyph unicode="&#xe9;" horiz-adv-x="1249" d="M45 522q0 262 163 412q162 149 419 149q275 0 425 -157q150 -158 150 -426v2v-39h-784q0 -116 59 -175q61 -61 174 -61q60 0 104 23t74 74l359 2q-45 -189 -200 -275t-335 -86q-259 0 -434 143q-174 142 -174 414zM367 1327l288 352l228 -163l-351 -310zM424 676v2h432 q-15 74 -75 119t-136 45q-81 0 -143 -42t-78 -124z" />
<glyph unicode="&#xea;" horiz-adv-x="1249" d="M45 522q0 262 163 412q162 149 419 149q275 0 425 -157q150 -158 150 -426v2v-39h-784q0 -116 59 -175q61 -61 174 -61q60 0 104 23t74 74l359 2q-45 -189 -200 -275t-335 -86q-259 0 -434 143q-174 142 -174 414zM174 1362l447 336l452 -336l-158 -172l-294 227 l-295 -227zM424 676v2h432q-15 74 -75 119t-136 45q-81 0 -143 -42t-78 -124z" />
<glyph unicode="&#xeb;" horiz-adv-x="1249" d="M45 522q0 262 163 412q162 149 419 149q275 0 425 -157q150 -158 150 -426v2v-39h-784q0 -116 59 -175q61 -61 174 -61q60 0 104 23t74 74l359 2q-45 -189 -200 -275t-335 -86q-259 0 -434 143q-174 142 -174 414zM160 1436q0 84 59 142t143 58v2q85 -2 143 -60t58 -142 q0 -85 -58 -143t-143 -58q-84 0 -143 58t-59 143zM424 676v2h432q-15 74 -75 119t-136 45q-81 0 -143 -42t-78 -124zM684 1436q0 84 59 142t144 58v2q83 -1 142 -60q58 -58 58 -142q0 -85 -58 -143t-142 -58q-85 0 -144 58t-59 143z" />
<glyph unicode="&#xec;" horiz-adv-x="618" d="M51 1516l228 163l288 -352l-166 -121zM123 0v1051h373v-1051h-373z" />
<glyph unicode="&#xed;" horiz-adv-x="618" d="M51 1327l289 352l227 -163l-350 -310zM123 0v1051h373v-1051h-373z" />
<glyph unicode="&#xee;" horiz-adv-x="618" d="M-141 1362l446 336l453 -336l-158 -172l-295 227l-295 -227zM123 0v1051h373v-1051h-373z" />
<glyph unicode="&#xef;" horiz-adv-x="618" d="M-154 1436q0 84 60 142q59 58 141 58v2q83 -1 142 -60t59 -142q0 -84 -59 -143q-58 -58 -142 -58q-82 0 -141 58q-60 59 -60 143zM123 0v1051h373v-1051h-373zM369 1436q0 84 59 142t143 58v2q85 -2 143 -60t58 -142q0 -85 -58 -143t-143 -58q-84 0 -143 58t-59 143z" />
<glyph unicode="&#xf0;" horiz-adv-x="1355" d="M-4 1536l127 164q95 -37 171 -70q86 -38 165 -84l225 154l162 -123l-203 -135l143 -115q83 -71 150 -133q74 -70 129 -143q7 -7 11 -14q3 -5 9 -13q70 -92 127 -205q58 -116 58 -297q0 -22 -1 -33q-2 -22 -5 -34q-27 -183 -191 -337q-163 -153 -395 -153q-250 0 -442 145 q-191 144 -191 412q0 181 92 300q90 116 203 179q54 29 104 47q45 16 93 23q22 4 31 12q10 8 10 21q0 16 -16 38q-16 23 -38 46q-16 16 -26 24l-29 25q-16 15 -38 30q-21 14 -34 21l-239 -172l-158 121l229 156zM438 522q0 -100 71 -168q70 -67 169 -67t159 67q60 68 60 168 q0 96 -60 167t-159 71v2q-97 -1 -169 -73q-71 -71 -71 -167z" />
<glyph unicode="&#xf1;" horiz-adv-x="1353" d="M123 0v1051h373v-136h4q66 95 146 132q78 36 190 36q214 0 304 -120q91 -121 91 -316v-647h-373v512v10v13v38q0 13 -2 41q-5 65 -37 118q-33 54 -129 54q-112 0 -153 -72q-41 -73 -41 -171v-543h-373zM268 1284q0 44 11 93q11 48 34 87q28 46 77 81q47 34 106 34 q32 0 66 -7q38 -8 71 -18q7 -1 19 -5q11 -4 20 -5q84 -22 86 -23q41 -12 71 -12q37 0 53 19q14 17 27 49q0 2 1 3t1 3l174 2q-1 -7 -2.5 -18.5t-1.5 -15.5q0 -5 -1.5 -15t-2.5 -16q-22 -99 -83 -179q-62 -81 -175 -81q-26 0 -47 4q-25 5 -47 12q-22 6 -33 10l-30 12 q-12 4 -79 25q-37 12 -75 12q-33 0 -45 -19q-15 -24 -21 -46q-1 -1 -3 -5q-1 -2 -1 -5v2h-168z" />
<glyph unicode="&#xf2;" horiz-adv-x="1355" d="M45 522q0 268 189 415q188 146 444 146v2q255 -2 443 -148q190 -148 190 -415q0 -265 -190 -411t-443 -146q-250 0 -442 145q-191 144 -191 412zM420 1516l227 163l289 -352l-166 -121zM438 522q0 -99 64 -168q63 -67 176 -67q114 0 177 67q63 68 63 168q0 96 -63 167 t-177 71v2q-112 -1 -176 -73t-64 -167z" />
<glyph unicode="&#xf3;" horiz-adv-x="1355" d="M45 522q0 268 189 415q188 146 444 146v2q255 -2 443 -148q190 -148 190 -415q0 -265 -190 -411t-443 -146q-250 0 -442 145q-191 144 -191 412zM420 1327l289 352l227 -163l-350 -310zM438 522q0 -99 64 -168q63 -67 176 -67q114 0 177 67q63 68 63 168q0 96 -63 167 t-177 71v2q-112 -1 -176 -73t-64 -167z" />
<glyph unicode="&#xf4;" horiz-adv-x="1355" d="M45 522q0 268 189 415q188 146 444 146v2q255 -2 443 -148q190 -148 190 -415q0 -265 -190 -411t-443 -146q-250 0 -442 145q-191 144 -191 412zM227 1362l447 336l452 -336l-157 -172l-295 227l-295 -227zM438 522q0 -99 64 -168q63 -67 176 -67q114 0 177 67 q63 68 63 168q0 96 -63 167t-177 71v2q-112 -1 -176 -73t-64 -167z" />
<glyph unicode="&#xf5;" horiz-adv-x="1355" d="M45 522q0 268 189 415q188 146 444 146v2q255 -2 443 -148q190 -148 190 -415q0 -265 -190 -411t-443 -146q-250 0 -442 145q-191 144 -191 412zM270 1284q0 44 11 93q11 48 34 87q28 46 77 81q47 34 106 34q32 0 66 -7q38 -8 71 -18q7 -1 19 -5q11 -4 20 -5 q84 -22 86 -23q41 -12 71 -12q37 0 53 19q14 17 27 49q0 2 1 3t1 3l174 2q-1 -7 -2.5 -18.5t-1.5 -15.5q0 -5 -1.5 -15t-2.5 -16q-22 -99 -83 -179q-62 -81 -175 -81q-26 0 -47 4q-25 5 -47 12q-22 6 -33 10l-30 12q-12 4 -79 25q-37 12 -75 12q-33 0 -45 -19 q-15 -24 -21 -46q-1 -1 -3 -5q-1 -2 -1 -5v2h-168zM438 522q0 -99 64 -168q63 -67 176 -67q114 0 177 67q63 68 63 168q0 96 -63 167t-177 71v2q-112 -1 -176 -73t-64 -167z" />
<glyph unicode="&#xf6;" horiz-adv-x="1355" d="M45 522q0 268 189 415q188 146 444 146v2q255 -2 443 -148q190 -148 190 -415q0 -265 -190 -411t-443 -146q-250 0 -442 145q-191 144 -191 412zM213 1436q0 84 59 142t144 58v2q83 -1 142 -60q58 -58 58 -142q0 -85 -58 -143t-142 -58q-85 0 -144 58t-59 143zM438 522 q0 -99 64 -168q63 -67 176 -67q114 0 177 67q63 68 63 168q0 96 -63 167t-177 71v2q-112 -1 -176 -73t-64 -167zM737 1436q0 84 60 142q59 58 143 58v2q83 -1 142 -60t59 -142q0 -84 -59 -143q-58 -58 -142 -58t-143 58q-60 58 -60 143z" />
<glyph unicode="&#xf7;" horiz-adv-x="702" />
<glyph unicode="&#xf8;" horiz-adv-x="1355" d="M-35 55l182 144q-30 41 -53 94q-24 55 -35 108q-3 17 -10 61q-4 27 -4 58q0 273 188 418t443 145q25 0 37 -1t37 -1q90 -7 183 -37q90 -29 161 -88l206 170l101 -127l-195 -153q1 -2 8.5 -12t10.5 -15q10 -16 14 -24q35 -51 54 -114q18 -59 18 -130q0 -286 -179 -436 q-178 -150 -458 -150q-22 0 -66 2q-28 1 -65 8q-80 12 -151 39q-74 28 -130 72v2l-196 -160zM438 524q0 -28 4 -49q3 -18 13 -47v2l356 295q-3 1 -8 4t-8 5q-2 1 -8.5 4t-8.5 5q-23 11 -43 14q-23 3 -51 3q-101 0 -174 -67q-72 -66 -72 -169zM549 328q29 -23 59 -32t64 -9 q101 0 171 67t70 168q0 22 -3 45q-3 22 -9 43v2z" />
<glyph unicode="&#xf9;" horiz-adv-x="1349" d="M117 416v635h372v-562q0 -102 36 -165q37 -64 151 -64q113 0 150 64q36 63 36 163v564h373v-633q0 -263 -161 -358t-398 -95q-234 0 -397 95q-162 94 -162 356zM418 1516l227 163l289 -352l-166 -121z" />
<glyph unicode="&#xfa;" horiz-adv-x="1349" d="M117 416v635h372v-562q0 -102 36 -165q37 -64 151 -64q113 0 150 64q36 63 36 163v564h373v-633q0 -263 -161 -358t-398 -95q-234 0 -397 95q-162 94 -162 356zM418 1327l289 352l227 -163l-350 -310z" />
<glyph unicode="&#xfb;" horiz-adv-x="1349" d="M117 416v635h372v-562q0 -102 36 -165q37 -64 151 -64q113 0 150 64q36 63 36 163v564h373v-633q0 -263 -161 -358t-398 -95q-234 0 -397 95q-162 94 -162 356zM225 1362l447 336l452 -336l-157 -172l-295 227l-295 -227z" />
<glyph unicode="&#xfc;" horiz-adv-x="1349" d="M117 416v635h372v-562q0 -102 36 -165q37 -64 151 -64q113 0 150 64q36 63 36 163v564h373v-633q0 -263 -161 -358t-398 -95q-234 0 -397 95q-162 94 -162 356zM211 1436q0 84 59 142t144 58v2q83 -1 142 -60q58 -58 58 -142q0 -85 -58 -143t-142 -58q-85 0 -144 58 t-59 143zM735 1436q0 84 60 142q59 58 143 58v2q83 -1 142 -60t59 -142q0 -84 -59 -143q-58 -58 -142 -58t-143 58q-60 58 -60 143z" />
<glyph unicode="&#xfd;" horiz-adv-x="702" />
<glyph unicode="&#xfe;" horiz-adv-x="1396" d="M123 -524v2224h373v-768h4q46 71 127 109q79 37 166 42h12h12q236 0 383 -169q148 -171 148 -394q0 -228 -147 -391q-147 -164 -380 -164h-15h-15q-80 6 -161 38q-77 31 -134 95v-622h-373zM483 522q0 -100 71 -168q70 -67 169 -67t169 67q71 68 71 168q0 96 -71 167 t-169 71v2q-97 -1 -169 -73q-71 -71 -71 -167z" />
<glyph unicode="&#xff;" horiz-adv-x="1339" d="M-31 1051h430l281 -539l274 539h424l-841 -1575h-418l358 667zM205 1436q0 84 59 142t144 58v2q83 -1 142 -60q58 -58 58 -142q0 -85 -58 -143t-142 -58q-85 0 -144 58t-59 143zM729 1436q0 84 59 142t144 58v2q83 -1 142 -60t59 -142q0 -84 -59 -143q-58 -58 -142 -58 q-85 0 -144 58t-59 143z" />
<glyph unicode="&#x152;" horiz-adv-x="2334" d="M53 770q0 328 238 577q236 246 569 246q150 0 273 -48t219 -144v143h868v-340h-469v-258h436v-340h-436v-266h469v-340h-868v170q-107 -116 -224 -168q-120 -53 -268 -53q-332 0 -569 247q-238 249 -238 574zM471 770q0 -179 127 -306q128 -128 305 -128q180 0 305 128 t125 306q0 179 -125 307q-124 127 -305 127v2q-177 -1 -305 -129q-127 -127 -127 -307z" />
<glyph unicode="&#x153;" horiz-adv-x="2093" d="M43 522q0 265 174 413q173 148 428 148q136 0 234 -33q102 -35 196 -124q56 74 140 108q85 34 176 45l42 3q14 1 42 1q275 0 425 -157q150 -158 150 -426v2v-39h-784q0 -116 59 -175q61 -61 174 -61q60 0 104 23t74 74l359 2q-45 -189 -200 -275t-335 -86q-140 0 -247 40 q-108 40 -179 140q-89 -99 -189 -140q-98 -40 -237 -40q-258 0 -432 144t-174 413zM436 522q0 -100 71 -168q70 -67 169 -67t169 67t70 168q0 97 -70 167q-71 71 -169 71v2q-97 -1 -169 -73q-71 -71 -71 -167zM1266 676v2h432q-15 74 -75 119t-136 45q-83 0 -144 -42 q-60 -41 -77 -124z" />
<glyph unicode="&#x178;" horiz-adv-x="1462" d="M-39 1544h481l289 -420l289 420h481l-569 -803v-741h-402v741zM266 1929q0 85 60 143q59 58 143 58v2q83 -1 142 -60t59 -143q0 -83 -59 -142q-58 -58 -142 -58t-143 58q-60 59 -60 142zM791 1929q0 85 59 143t143 58v2q85 -2 143 -60t58 -143q0 -84 -58 -142t-143 -58 q-84 0 -143 58t-59 142z" />
<glyph unicode="&#x2c6;" horiz-adv-x="1124" d="M154 1284q0 49 10 93q10 45 35 87q29 47 76 81t106 34q32 0 66 -7q38 -8 71 -18q9 -1 20 -5q12 -4 19 -5q84 -22 86 -23q40 -12 72 -12q36 0 52 19t28 49q0 2 1 3t1 3l174 2q-1 -7 -2.5 -18.5t-1.5 -15.5q0 -5 -1.5 -15t-2.5 -16q-22 -99 -83 -179q-62 -81 -175 -81 q-27 0 -48 4q-25 5 -47 12q-18 5 -32 10q-11 4 -31 12q-12 4 -79 25q-38 12 -75 12q-33 0 -45 -19q-13 -21 -20 -46q-1 -1 -3 -5q-1 -2 -1 -5v2h-168z" />
<glyph unicode="&#x2dc;" horiz-adv-x="1208" d="M154 1362l446 336l453 -336l-158 -172l-295 227l-295 -227z" />
<glyph unicode="&#x2000;" horiz-adv-x="1095" />
<glyph unicode="&#x2001;" horiz-adv-x="2191" />
<glyph unicode="&#x2002;" horiz-adv-x="1095" />
<glyph unicode="&#x2003;" horiz-adv-x="2191" />
<glyph unicode="&#x2004;" horiz-adv-x="730" />
<glyph unicode="&#x2005;" horiz-adv-x="547" />
<glyph unicode="&#x2006;" horiz-adv-x="365" />
<glyph unicode="&#x2007;" horiz-adv-x="365" />
<glyph unicode="&#x2008;" horiz-adv-x="273" />
<glyph unicode="&#x2009;" horiz-adv-x="438" />
<glyph unicode="&#x200a;" horiz-adv-x="121" />
<glyph unicode="&#x2010;" horiz-adv-x="802" d="M109 504v307h585v-307h-585z" />
<glyph unicode="&#x2011;" horiz-adv-x="802" d="M109 504v307h585v-307h-585z" />
<glyph unicode="&#x2012;" horiz-adv-x="802" d="M109 504v307h585v-307h-585z" />
<glyph unicode="&#x2013;" horiz-adv-x="1024" d="M0 504v307h1024v-307h-1024z" />
<glyph unicode="&#x2014;" horiz-adv-x="2048" d="M0 504v307h2048v-307h-2048z" />
<glyph unicode="&#x2018;" horiz-adv-x="761" d="M39 866l377 678h237l-266 -678h-348z" />
<glyph unicode="&#x2019;" horiz-adv-x="761" d="M109 866l266 678h348l-377 -678h-237z" />
<glyph unicode="&#x201a;" horiz-adv-x="702" />
<glyph unicode="&#x201c;" horiz-adv-x="1286" d="M39 866l377 678h237l-266 -678h-348zM563 866l377 678h238l-267 -678h-348z" />
<glyph unicode="&#x201d;" horiz-adv-x="1286" d="M109 866l266 678h348l-377 -678h-237zM633 866l266 678h348l-377 -678h-237z" />
<glyph unicode="&#x201e;" horiz-adv-x="1216" d="M39 -287l266 678h348l-377 -678h-237zM563 -287l266 678h349l-377 -678h-238z" />
<glyph unicode="&#x2022;" horiz-adv-x="778" d="M154 -385l266 324l203 -132l-310 -292z" />
<glyph unicode="&#x2026;" horiz-adv-x="2048" d="M102 197q0 100 70 170q69 69 170 69v2q100 -2 170 -71q70 -70 70 -170q0 -98 -70 -168t-170 -70t-170 70t-70 168zM784 197q0 100 70 170q69 69 170 69v2q100 -2 170 -71q70 -70 70 -170q0 -98 -70 -168t-170 -70t-170 70t-70 168zM1466 197q0 100 70 170q69 69 170 69v2 q100 -2 170 -71q70 -70 70 -170q0 -98 -70 -168t-170 -70t-170 70t-70 168z" />
<glyph unicode="&#x202f;" horiz-adv-x="438" />
<glyph unicode="&#x2039;" horiz-adv-x="724" d="M53 655l353 504l204 -141l-258 -363l264 -356l-210 -147z" />
<glyph unicode="&#x203a;" horiz-adv-x="724" d="M109 299l264 356l-258 363l204 141l353 -504l-353 -503z" />
<glyph unicode="&#x205f;" horiz-adv-x="547" />
<glyph unicode="&#x2122;" horiz-adv-x="1925" d="M84 1384v160h702v-160h-251v-667h-199v667h-252zM887 717v827h291l186 -489l186 489h291v-827h-180v667h-4l-240 -667h-106l-240 667h-4v-667h-180z" />
<glyph unicode="&#xe000;" horiz-adv-x="1054" d="M0 0v1055h1055v-1055h-1055z" />
</font>
</defs>
</svg>
