<?xml version="1.0" encoding="utf-8"?>
<!-- Generator: Adobe Illustrator 15.0.0, SVG Export Plug-In . SVG Version: 6.00 Build 0)  -->
<!DOCTYPE svg PUBLIC "-//W3C//DTD SVG 1.1//EN" "http://www.w3.org/Graphics/SVG/1.1/DTD/svg11.dtd">
<svg version="1.1" id="Layer_1" xmlns="http://www.w3.org/2000/svg" xmlns:xlink="http://www.w3.org/1999/xlink" x="0px" y="0px"
	 width="300px" height="1200px" viewBox="0 0 300 1200" enable-background="new 0 0 300 1200" xml:space="preserve">
<rect x="334.182" y="1.273" fill="none" stroke="#70706E" stroke-width="0.7484" stroke-miterlimit="10" width="299.371" height="299.363"/>
<rect x="334.182" y="300.637" fill="none" stroke="#70706E" stroke-width="0.7484" stroke-miterlimit="10" width="299.371" height="299.362"/>
<rect x="334.182" y="600.001" fill="none" stroke="#70706E" stroke-width="0.7484" stroke-miterlimit="10" width="299.371" height="299.362"/>
<rect x="334.182" y="899.363" fill="none" stroke="#70706E" stroke-width="0.7484" stroke-miterlimit="10" width="299.371" height="299.361"/>
<g>
	<path fill="none" d="M171.259,103.02h-0.565v3.264h0.375c0.771,0,0.818-0.405,0.818-1.742
		C171.887,103.451,171.775,103.02,171.259,103.02z"/>
	<path fill="none" d="M121.887,105.372c0,0.382,0.031,1.004,0.622,1.004c0.087,0,0.161-0.013,0.223-0.029l-0.166-0.161l0.468-0.395
		l0.042,0.043c0.032-0.142,0.049-0.314,0.049-0.462l0.008-1.28c0-0.357,0.055-1.166-0.623-1.166c-0.677,0-0.622,0.809-0.622,1.166
		L121.887,105.372L121.887,105.372z"/>
	<path fill="none" d="M179.035,103.629c0-0.529-0.208-0.609-0.696-0.609h-0.394v1.33h0.462
		C178.783,104.35,179.035,104.189,179.035,103.629z"/>
	<path fill="none" d="M114.851,103.803c-0.044-0.218-0.062-0.425-0.087-0.643c-0.006-0.104-0.019-0.209-0.03-0.308h-0.013
		c-0.012,0.099-0.024,0.204-0.031,0.308c-0.024,0.218-0.042,0.425-0.086,0.643l-0.259,1.311h0.737L114.851,103.803z"/>
	<path fill="none" d="M119.096,103.629c0-0.518-0.216-0.603-0.542-0.609h-0.642v1.275h0.679
		C118.874,104.276,119.096,104.092,119.096,103.629z"/>
	<path fill="none" d="M181.568,105.372c0,0.382,0.031,1.004,0.623,1.004c0.615,0,0.623-0.635,0.623-1.078v-1.183
		c0-0.369,0.017-1.189-0.623-1.189c-0.68,0-0.623,0.809-0.623,1.166V105.372z"/>
	<path fill="#FFFFFF" d="M140.5,99.34c-1.513,4.916-3.12,9.831-4.539,14.841c0.096,0.757,0.379,1.419,1.136,1.892
		c0.474,0.284,1.135,0.472,1.701,0.188c4.159-2.741,8.13-6.05,12.29-8.791l11.533,8.508c0.662,0.473,1.605,0.473,2.27,0.095
		c0.754-0.473,1.135-1.324,1.039-2.079l-4.443-14.559c2.839-2.554,6.052-4.821,9.074-7.185c1.138-1.135,3.688-1.796,3.025-3.97
		c-0.188-0.569-0.755-1.111-1.322-1.3c-4.916-0.189-9.928,0.188-14.746,0l-4.635-14.677c-0.283-0.757-1.133-1.229-1.984-1.229
		c-0.662,0-1.322,0.283-1.701,0.85l-4.821,15.056c-5.011,0.094-9.925-0.189-14.747,0c-0.472,0.188-0.944,0.543-1.134,1.109
		c-0.377,0.662-0.094,1.512,0.189,2.08L140.5,99.34z M145.983,88.941c1.796-5.104,3.213-10.304,4.914-15.504l4.918,15.504h15.408
		l-12.289,9.549c1.512,5.197,3.311,10.303,4.819,15.503l-12.761-9.359l-12.762,9.359c1.512-5.2,3.403-10.306,4.821-15.599
		c-4.065-3.214-8.225-6.24-12.289-9.453H145.983z"/>
	<path fill="#CE2828" d="M138.231,113.993l12.762-9.359l12.761,9.359c-1.511-5.2-3.309-10.306-4.818-15.503l12.287-9.549h-15.408
		l-4.916-15.504c-1.702,5.2-3.119,10.399-4.915,15.504h-15.22c4.064,3.213,8.224,6.239,12.289,9.453
		C141.635,103.688,139.743,108.793,138.231,113.993z"/>
	<path fill="#FFFFFF" d="M250.536,155.918c-1.418-2.836-0.853-6.807,0.851-9.359c0.852-1.323,2.176-2.363,3.402-3.024l-6.237-21.365
		l-35.594-7.468v8.438H87.136v-8.391l-35.78,7.562l-6.145,21.459c2.836,1.134,4.443,4.16,5.01,6.996
		c0.379,3.97-1.323,7.941-5.01,9.736c1.984,7.185,3.97,14.37,6.239,21.459l35.686,7.468v-8.482h125.822v8.437l35.215-7.373
		l0.565-0.285l6.051-21.363C252.805,159.604,251.48,157.714,250.536,155.918z M246.85,179.74l-0.377,0.283l-31.315,6.333
		c-0.095-2.552,0.284-5.293,0-7.751L84.82,178.652v7.847l-31.669-6.523l-5.104-18.339c3.781-2.836,5.388-8.034,4.159-12.762
		c-0.662-2.458-1.985-4.821-4.159-6.428l5.104-18.057l31.669-6.711v7.94l130.334-0.048v-7.94l31.601,6.522l5.2,18.246
		c-3.403,2.74-4.917,6.993-4.352,11.531c0.475,2.932,1.893,5.673,4.352,7.658C250.346,167.641,248.645,173.69,246.85,179.74z"/>
	<path fill="#231F20" d="M247.604,153.932c-0.564-4.538,0.947-8.791,4.353-11.531l-5.2-18.246l-31.602-6.522v7.94L84.82,125.62
		v-7.94l-31.669,6.711l-5.104,18.057c2.174,1.606,3.497,3.97,4.159,6.428c1.229,4.728-0.378,9.926-4.159,12.762l5.104,18.339
		L84.82,186.5v-7.847l130.334-0.047c0.287,2.458-0.092,5.199,0,7.751l31.316-6.333l0.379-0.283c1.795-6.05,3.496-12.1,5.104-18.15
		C249.496,159.604,248.078,156.863,247.604,153.932z M245.053,177.943l-27.507,5.578v-7.185L82.504,176.32
		c-0.283,2.363,0.094,4.885,0,7.154l-27.367-5.39l-0.283-0.378l-4.254-15.03c3.875-4.065,5.293-10.21,3.402-15.503
		c-0.661-2.08-1.701-3.971-3.402-5.578l4.442-15.315l3.687-0.85l23.775-4.821v7.185l135.042,0.047v-7.278l27.319,5.578l4.535,15.313
		c-3.592,3.687-5.01,9.074-3.781,14.085c0.662,2.553,1.609,5.01,3.781,6.901L245.053,177.943z"/>
	<path fill="#FFFFFF" d="M245.619,155.539c-1.229-5.011,0.189-10.398,3.781-14.085l-4.535-15.313l-27.319-5.578v7.278
		l-135.042-0.047v-7.185l-23.775,4.821l-3.687,0.85L50.6,141.596c1.701,1.607,2.741,3.498,3.402,5.578
		c1.891,5.293,0.473,11.438-3.402,15.503l4.254,15.03l0.283,0.378l27.367,5.39c0.094-2.27-0.283-4.791,0-7.154l135.042,0.017v7.185
		l27.507-5.578l4.35-15.503C247.229,160.549,246.281,158.092,245.619,155.539z M219.932,123.397l21.248,4.443h-21.248V123.397z
		 M80.094,123.54v4.35h-21.27C65.914,126.376,73.002,124.863,80.094,123.54z M80.094,180.732l-21.459-4.412
		c7.09-0.094,14.274,0,21.459,0V180.732z M219.932,180.685v-4.348h21.437L219.932,180.685z M243.825,173.784L56.27,173.926
		l-2.93-10.588c3.781-4.727,5.104-12.006,2.647-17.865c-0.662-1.607-1.419-3.12-2.647-4.539l2.93-10.658h187.364
		c1.136,3.498,2.175,7.019,3.024,10.611c-4.064,5.104-5.01,13.045-2.08,19.002c0.568,1.133,1.23,2.269,2.176,3.213L243.825,173.784z
		"/>
	<polygon fill="#231F20" points="219.932,123.397 219.932,127.841 241.18,127.841 	"/>
	<path fill="#231F20" d="M80.094,123.54c-7.092,1.323-14.18,2.836-21.27,4.35h21.27V123.54z"/>
	<path fill="#231F20" d="M246.659,140.887c-0.851-3.593-1.89-7.113-3.024-10.611H56.271l-2.93,10.658
		c1.229,1.419,1.985,2.932,2.647,4.539c2.457,5.859,1.134,13.139-2.647,17.865l2.93,10.588l187.555-0.142l2.93-10.683
		c-0.945-0.944-1.605-2.08-2.176-3.213C241.648,153.932,242.596,145.991,246.659,140.887z M114.598,136.586
		c0.662-0.852,1.701-1.229,2.647-1.419c1.133,0,2.079,0.474,2.836,1.136c0.756,0.756,1.039,1.606,1.039,2.646
		c-0.188,0.944-0.378,1.89-1.229,2.553c-0.852,0.851-2.08,1.134-3.308,0.851c-0.946-0.189-1.893-0.945-2.363-1.797
		C113.559,139.327,113.651,137.626,114.598,136.586z M90.775,163.83c-0.189,0.378-0.095,0.876-0.566,1.063H78.581
		c-0.757-0.472-0.379-1.441-0.379-2.197c0.662-0.661,1.892-0.567,2.27-1.607c0.189-3.119,0.566-6.334,0.284-9.453l-0.378-0.473
		h-6.052l-0.472,0.566c-0.283,3.216,0.095,6.335,0.283,9.454c0.567,0.945,1.797,0.852,2.363,1.702
		c-0.095,0.661,0.19,1.229-0.188,1.796l-0.474,0.212H64.401c-0.757-0.567-0.379-1.535-0.284-2.291
		c0.756-0.663,1.938-0.758,2.315-1.797v-21.08c-0.566-0.853-1.653-0.946-2.315-1.514c-0.095-0.756-0.378-1.795,0.378-2.363h11.061
		c0.566,0.568,0.379,1.607,0.283,2.269c-0.566,0.662-1.606,0.662-1.89,1.608c-0.19,2.363-0.284,4.443-0.095,6.807l0.378,0.378h6.146
		l0.378-0.378c0.188-2.459,0.093-4.633-0.19-6.997c-0.378-0.945-1.513-0.756-1.89-1.701c0.093-0.661-0.19-1.512,0.472-1.985H90.21
		c0.755,0.568,0.472,1.701,0.283,2.458c-0.757,0.473-1.984,0.662-2.363,1.702v19.284c0.093,0.852-0.095,1.985,0.85,2.363
		C89.831,162.129,91.059,162.508,90.775,163.83z M111.384,160.219c-2.269,3.498-6.146,5.199-10.303,5.104
		c-4.351,0-8.604-3.403-9.927-7.374c-1.323-4.82-0.19-10.02,3.875-13.046c2.932-2.363,7.846-2.834,11.061-0.85
		c1.512,0.85,2.931,1.985,3.971,3.497c0.661,1.135,1.418,2.648,0.85,4.066c-3.496,3.496-8.223,4.253-12.666,5.766
		c-0.283,0.379-0.19,0.851,0,1.229c0.944,1.514,2.553,2.742,4.443,2.553c2.646,0.095,4.536-1.701,6.521-3.309
		c0.852-0.283,1.418,0.378,1.986,0.852C111.572,159.084,111.572,159.746,111.384,160.219z M123.2,164.757l-0.379,0.161h-9.925
		c-0.662-0.566-0.378-1.485-0.473-2.241c0.566-0.944,2.08-0.944,2.08-2.269l0.094-12.385c-0.094-0.85-1.134-1.228-1.701-1.984
		c0-0.757-0.283-1.927,0.472-2.4h7.563l0.472,0.568v15.729c-0.378,1.418,1.23,1.891,1.985,2.553
		C123.389,163.243,123.674,164.189,123.2,164.757z M148.207,162.488c-0.851,1.795-2.837,2.552-4.633,2.741
		c-1.701-0.189-3.619-0.663-4.469-2.458c-0.757-4.443,0.027-9.548-0.636-14.18c-0.282-0.473-0.85-0.946-1.513-0.946
		c-1.04,0.095-1.984,0.757-2.551,1.701c-0.568,3.782-0.568,8.13,0,11.817l1.701,1.324c-0.095,0.85,0.377,1.863-0.474,2.43H125.52
		c-0.662-0.566-0.379-1.485-0.473-2.241c0.567-0.851,2.092-0.944,2.187-2.175l-0.013-12.572c0.096-0.946-1.04-1.513-1.606-2.174
		c-0.095-0.757-0.284-1.648,0.379-2.122l7.656,0.015c0.378,0.283,0.283,1.445,1.135,1.067c2.552-1.606,6.807-2.742,9.263-0.096
		c0.757,1.04,1.04,2.176,1.23,3.403v12.856c0.662,1.323,1.418-0.661,2.363-0.094C148.303,161.164,148.396,161.92,148.207,162.488z
		 M165.738,163.906c-2.93,1.7-7.277,2.079-10.397,0.566c-3.591-1.701-6.333-5.293-6.428-9.264
		c-0.188-4.537,1.513-8.792,5.578-11.061c2.456-1.418,5.954-1.701,8.696-0.662c2.08,0.851,4.16,2.363,5.293,4.443
		c0.379,0.945,1.136,1.984,0.853,3.214c-1.894,3.025-5.296,3.592-8.13,4.822l-4.633,1.417c-0.473,0.283-0.189,1.04,0,1.418
		c0.851,1.418,2.363,2.458,4.158,2.458c2.742,0.095,4.631-1.606,6.619-3.31c0.943-0.377,1.795,0.379,2.361,1.041
		C169.994,161.447,167.348,162.771,165.738,163.906z M191.736,164.918h-5.387c-1.988-3.214-3.689-6.495-5.58-9.615l-1.515,1.418
		c-0.282,1.702-0.282,3.781,1.138,4.916c0.377,0.189,0.85,0.283,1.135,0.756c0,0.945,0.096,1.959-0.758,2.525h-9.928
		c-0.564-0.661-0.66-1.485-0.564-2.43c0.564-0.852,1.938-1.041,2.222-2.08v-20.419c-0.19-1.229-1.655-1.419-2.222-2.269
		c0-0.662-0.19-1.514,0.379-1.892h7.751c0.472,0,0.565,0.567,0.757,0.852c0,4.632-0.096,9.358,0.093,13.991
		c1.515-1.325,3.12-2.648,4.349-4.159c-0.188-0.567-0.943-0.474-1.229-1.04c-0.095-0.757-0.025-1.268,0.352-1.835h8.875
		c0.566,0.473,0.797,0.982,0.51,1.739c-0.471,0.473-1.227,0.283-1.699,0.852c-1.605,1.512-3.403,2.646-4.536,4.537
		c1.701,3.591,3.591,7.09,5.769,10.493c0.756,0.474,2.172,0.567,2.08,1.701C193.627,164.094,193.366,164.918,191.736,164.918z
		 M207.523,164.945c-4.729,1.418-9.267-0.283-12.291-3.97c-2.931-3.403-2.646-9.17-0.565-12.952
		c2.459-3.875,6.901-6.05,11.533-4.914c3.024,0.756,6.146,3.119,7.187,6.237c0.282,0.567,0.282,1.419,0.092,2.08
		c-1.604,2.176-4.16,2.93-6.332,3.876l-6.334,1.986c-0.474,0.283-0.283,0.944-0.188,1.228c0.853,1.513,2.458,2.742,4.255,2.647
		c2.835,0.189,4.819-1.512,6.809-3.309c0.943-0.283,1.701,0.473,2.269,1.135C213.762,162.299,210.075,164,207.523,164.945z
		 M237.868,162.488c-0.851,1.795-2.835,2.552-4.632,2.741c-1.701-0.189-3.618-0.663-4.471-2.458
		c-0.758-4.443,0.025-9.548-0.636-14.18c-0.282-0.473-0.854-0.946-1.514-0.946c-1.038,0.095-1.985,0.757-2.554,1.701
		c-0.564,3.782-0.564,8.13,0,11.817l1.703,1.324c-0.097,0.85,0.377,1.863-0.475,2.43H215.18c-0.66-0.566-0.378-1.485-0.471-2.241
		c0.566-0.851,2.092-0.944,2.186-2.175l-0.013-12.572c0.095-0.946-1.04-1.513-1.606-2.174c-0.096-0.757-0.281-1.648,0.379-2.122
		l7.656,0.015c0.379,0.283,0.282,1.445,1.135,1.067c2.553-1.606,6.809-2.742,9.265-0.096c0.757,1.04,1.04,2.176,1.229,3.403v12.856
		c0.66,1.323,1.418-0.661,2.363-0.094C237.963,161.164,238.057,161.92,237.868,162.488z M236.439,140.875
		c-2.539,0-4.599-2.058-4.599-4.596c0-2.538,2.06-4.596,4.599-4.596c2.537,0,4.595,2.058,4.595,4.596
		C241.034,138.817,238.977,140.875,236.439,140.875z"/>
	<path fill="#FFFFFF" d="M116.584,142.353c1.228,0.283,2.456,0,3.308-0.851c0.851-0.663,1.04-1.608,1.229-2.553
		c0-1.04-0.283-1.891-1.039-2.646c-0.757-0.662-1.703-1.136-2.836-1.136c-0.946,0.189-1.985,0.567-2.647,1.419
		c-0.946,1.04-1.039,2.741-0.377,3.97C114.691,141.407,115.638,142.163,116.584,142.353z"/>
	<path fill="#FFFFFF" d="M191.643,161.259c-2.176-3.403-4.063-6.902-5.767-10.493c1.133-1.891,2.931-3.025,4.536-4.537
		c0.475-0.568,1.23-0.379,1.701-0.852c0.285-0.757,0.057-1.267-0.51-1.739h-8.875c-0.379,0.567-0.446,1.078-0.354,1.835
		c0.283,0.566,1.04,0.473,1.229,1.04c-1.229,1.511-2.836,2.834-4.35,4.159c-0.188-4.633-0.093-9.359-0.093-13.991
		c-0.19-0.284-0.285-0.852-0.757-0.852h-7.752c-0.568,0.378-0.379,1.229-0.379,1.892c0.565,0.85,2.031,1.039,2.223,2.269v20.419
		c-0.283,1.039-1.655,1.229-2.223,2.08c-0.094,0.944,0,1.769,0.565,2.43h9.929c0.853-0.566,0.756-1.58,0.756-2.525
		c-0.285-0.473-0.756-0.566-1.135-0.756c-1.418-1.135-1.418-3.214-1.137-4.916l1.516-1.418c1.89,3.12,3.592,6.401,5.578,9.615h5.389
		c1.629,0,1.89-0.824,1.983-1.958C193.814,161.826,192.398,161.732,191.643,161.259z"/>
	<path fill="#FFFFFF" d="M88.979,161.656c-0.944-0.378-0.757-1.512-0.85-2.363v-19.284c0.379-1.04,1.606-1.229,2.363-1.702
		c0.188-0.757,0.472-1.89-0.283-2.458H79.147c-0.662,0.474-0.379,1.324-0.472,1.985c0.377,0.945,1.512,0.756,1.89,1.701
		c0.283,2.364,0.379,4.538,0.19,6.997l-0.378,0.378h-6.146l-0.378-0.378c-0.189-2.363-0.096-4.443,0.095-6.807
		c0.283-0.946,1.323-0.946,1.89-1.608c0.096-0.661,0.283-1.7-0.283-2.269h-11.06c-0.756,0.568-0.473,1.607-0.378,2.363
		c0.662,0.567,1.749,0.661,2.315,1.514v21.08c-0.378,1.039-1.56,1.134-2.315,1.797c-0.095,0.756-0.473,1.724,0.284,2.291h11.438
		l0.474-0.212c0.379-0.566,0.094-1.135,0.188-1.796c-0.566-0.851-1.796-0.757-2.363-1.702c-0.188-3.119-0.566-6.238-0.283-9.454
		l0.472-0.566h6.052l0.378,0.473c0.282,3.119-0.095,6.334-0.284,9.453c-0.378,1.04-1.607,0.946-2.27,1.607
		c0,0.756-0.378,1.726,0.379,2.197H90.21c0.472-0.188,0.377-0.686,0.566-1.063C91.059,162.508,89.831,162.129,88.979,161.656z"/>
	<path fill="#FFFFFF" d="M109.209,157.855c-1.985,1.607-3.875,3.403-6.521,3.309c-1.891,0.189-3.499-1.039-4.443-2.553
		c-0.19-0.378-0.283-0.85,0-1.229c4.443-1.513,9.17-2.27,12.666-5.766c0.568-1.418-0.188-2.932-0.85-4.066
		c-1.04-1.512-2.459-2.647-3.971-3.497c-3.215-1.984-8.129-1.514-11.061,0.85c-4.065,3.026-5.198,8.226-3.875,13.046
		c1.323,3.971,5.576,7.374,9.927,7.374c4.157,0.095,8.034-1.606,10.303-5.104c0.188-0.473,0.188-1.135-0.188-1.512
		C110.627,158.233,110.061,157.572,109.209,157.855z M97.582,151.332c0.093-1.795,0.662-3.496,1.985-4.536
		c1.418-0.757,3.687-0.379,4.348,1.417c0.474,0.946,1.04,2.553,0.19,3.497c-1.608,1.136-3.498,1.609-5.389,1.986
		C97.392,153.603,97.865,152.089,97.582,151.332z"/>
	<path fill="#FFFFFF" d="M211.684,157.855c-1.985,1.797-3.972,3.498-6.807,3.309c-1.797,0.095-3.402-1.135-4.255-2.647
		c-0.093-0.283-0.283-0.944,0.19-1.228l6.332-1.986c2.174-0.946,4.728-1.7,6.334-3.876c0.188-0.661,0.188-1.513-0.095-2.08
		c-1.038-3.118-4.159-5.481-7.186-6.237c-4.632-1.136-9.074,1.039-11.533,4.914c-2.08,3.782-2.363,9.549,0.565,12.952
		c3.024,3.687,7.562,5.388,12.289,3.97c2.553-0.945,6.238-2.646,6.431-5.955C213.387,158.328,212.629,157.572,211.684,157.855z
		 M200.243,153.035c-0.283-2.27-0.188-4.822,1.797-6.239c0.944-0.474,2.269-0.474,3.216,0c1.133,1.04,1.794,2.363,1.701,3.97
		c-0.283,1.512-1.986,1.701-3.027,2.27C202.702,153.129,201.096,154.453,200.243,153.035z"/>
	<path fill="#FFFFFF" d="M167.348,157.949c-1.986,1.703-3.877,3.404-6.617,3.31c-1.795,0-3.31-1.04-4.157-2.458
		c-0.19-0.378-0.476-1.135,0-1.418l4.632-1.417c2.834-1.23,6.236-1.797,8.13-4.822c0.283-1.229-0.476-2.269-0.854-3.214
		c-1.133-2.08-3.213-3.593-5.293-4.443c-2.739-1.039-6.238-0.756-8.694,0.662c-4.065,2.269-5.767,6.523-5.578,11.061
		c0.095,3.971,2.837,7.562,6.428,9.264c3.12,1.513,7.47,1.134,10.398-0.566c1.606-1.135,4.255-2.459,3.972-4.916
		C169.143,158.328,168.293,157.572,167.348,157.949z M156.003,153.035c-0.379-2.27-0.096-4.916,1.983-6.239
		c0.758-0.474,2.177-0.474,2.934,0c1.323,1.134,1.984,2.741,1.701,4.348c-0.475,1.134-1.797,1.419-2.837,1.892
		C158.555,153.035,156.947,154.547,156.003,153.035z"/>
	<path fill="#FFFFFF" d="M237.302,160.786c-0.944-0.567-1.702,1.417-2.362,0.094v-12.856c-0.189-1.228-0.475-2.363-1.229-3.403
		c-2.456-2.646-6.712-1.511-9.265,0.096c-0.853,0.378-0.756-0.784-1.135-1.067l-7.656-0.015c-0.66,0.474-0.475,1.365-0.379,2.122
		c0.566,0.661,1.701,1.228,1.606,2.174l0.013,12.572c-0.094,1.23-1.619,1.324-2.186,2.175c0.094,0.756-0.189,1.675,0.471,2.241
		h10.115c0.852-0.566,0.378-1.58,0.475-2.43l-1.703-1.324c-0.564-3.688-0.564-8.035,0-11.817c0.566-0.944,1.516-1.606,2.554-1.701
		c0.659,0,1.229,0.474,1.514,0.946c0.661,4.632-0.12,9.736,0.636,14.18c0.853,1.795,2.77,2.269,4.471,2.458
		c1.797-0.189,3.781-0.946,4.632-2.741C238.057,161.92,237.963,161.164,237.302,160.786z"/>
	<path fill="#FFFFFF" d="M147.641,160.786c-0.945-0.567-1.701,1.417-2.363,0.094v-12.856c-0.19-1.228-0.474-2.363-1.23-3.403
		c-2.456-2.646-6.711-1.511-9.263,0.096c-0.852,0.378-0.757-0.784-1.135-1.067l-7.656-0.015c-0.663,0.474-0.474,1.365-0.379,2.122
		c0.566,0.661,1.702,1.228,1.606,2.174l0.013,12.572c-0.095,1.23-1.619,1.324-2.187,2.175c0.094,0.756-0.189,1.675,0.473,2.241
		h10.114c0.851-0.566,0.379-1.58,0.474-2.43l-1.701-1.324c-0.568-3.688-0.568-8.035,0-11.817c0.566-0.944,1.511-1.606,2.551-1.701
		c0.663,0,1.23,0.474,1.513,0.946c0.663,4.632-0.121,9.736,0.636,14.18c0.85,1.795,2.768,2.269,4.469,2.458
		c1.796-0.189,3.782-0.946,4.633-2.741C148.396,161.92,148.303,161.164,147.641,160.786z"/>
	<path fill="#FFFFFF" d="M121.403,159.936v-15.729l-0.472-0.568h-7.563c-0.755,0.474-0.472,1.644-0.472,2.4
		c0.567,0.757,1.607,1.135,1.701,1.984l-0.094,12.385c0,1.324-1.514,1.324-2.08,2.269c0.095,0.756-0.189,1.675,0.473,2.241h9.925
		l0.379-0.161c0.474-0.567,0.188-1.514,0.188-2.269C122.634,161.826,121.025,161.354,121.403,159.936z"/>
	<path fill="#231F20" d="M104.105,151.71c0.85-0.944,0.283-2.551-0.19-3.497c-0.661-1.796-2.93-2.174-4.348-1.417
		c-1.323,1.04-1.893,2.741-1.985,4.536c0.283,0.757-0.19,2.271,1.135,2.364C100.607,153.319,102.497,152.846,104.105,151.71z"/>
	<path fill="#231F20" d="M203.93,153.035c1.041-0.568,2.744-0.758,3.027-2.27c0.093-1.606-0.568-2.93-1.701-3.97
		c-0.947-0.474-2.271-0.474-3.216,0c-1.983,1.417-2.08,3.97-1.797,6.239C201.096,154.453,202.702,153.129,203.93,153.035z"/>
	<path fill="#231F20" d="M159.784,153.035c1.04-0.473,2.362-0.758,2.837-1.892c0.283-1.606-0.378-3.214-1.701-4.348
		c-0.757-0.474-2.176-0.474-2.934,0c-2.079,1.323-2.362,3.97-1.983,6.239C156.947,154.547,158.555,153.035,159.784,153.035z"/>
	<polygon fill="#231F20" points="219.932,180.685 241.366,176.337 219.932,176.337 	"/>
	<path fill="#231F20" d="M58.635,176.32l21.459,4.412v-4.412C72.909,176.32,65.725,176.227,58.635,176.32z"/>
	<path fill="#FFFFFF" d="M122.066,209.942c-0.473,1.04-1.608,1.323-2.648,1.419c-1.228,0.189-0.471,1.323-0.661,2.174
		c-0.188,1.04-2.079,1.701-1.229,2.742c1.229,0,2.175,0.378,3.309,0.566c1.984,0.851,2.741-2.269,4.821-1.324
		c0.85-0.472,1.135-1.605,1.89-2.268c0.569,0.283,1.419,0.377,1.893-0.096c1.794-1.605,2.268-3.875,3.024-5.954
		c0.566-1.23,1.796-1.797,3.119-1.891c0-0.379,0.283-1.323-0.473-1.229c-0.851,0.473-2.268,0.567-3.215,0.189
		c-0.662-0.568-1.512-1.136-1.322-2.174c0.189-0.852,0.851-1.514,1.7-1.702c1.419-0.095,0.946-1.702,1.986-2.27
		c0.189-0.567,0.094-1.134-0.378-1.513c-1.229-0.283-1.039-1.795-1.892-2.457c-1.984-0.661-3.874,0.945-5.767,0
		c-0.85,0.094-1.511,0.566-1.984,1.322c-0.473,0.852-0.379,2.08-1.419,2.459c-0.566-0.379-0.755-0.852-0.755-1.419
		c-0.473-1.417-1.702-2.646-3.215-2.836c-0.852,0.474-1.797,0-2.646-0.283c-0.757,0-1.701-0.188-2.363,0.189
		c0.096,0.189-0.095,0.378,0.188,0.567c0.378,0.379,0.567,0.945,0.283,1.513c0,0.661,0.757,0.756,1.135,1.134
		c0.189,0.189,0.473,0.568,0.189,0.756c-1.513,0.19-2.647-1.04-3.876-1.606c-0.661-0.095-1.135-0.378-1.701-0.567
		c-0.662-0.473-1.229,0.284-1.797,0.378c-2.74-0.284-5.955-0.472-8.13,1.229c0.283,1.039,1.608,0.662,2.363,1.134
		c1.324,0.379,2.08,1.702,2.363,2.931c0.757,0.568,2.458,0.095,2.363,1.607c1.985,1.891,3.972-1.135,5.956,0.094
		c0.379,0.284,0.284,0.851,0.095,1.135c-0.378,0.473-0.851,0.568-1.419,0.473c-1.229-0.094-2.552,0.474-3.78,0
		c-2.458-0.094-3.97,2.27-6.145,2.931c-1.04,0-2.175-0.188-2.931-1.134c-0.283-1.701,0.472-3.781-0.566-5.294
		c-0.473-1.419-1.892-1.702-2.836-2.646c-0.757-0.851-1.985-0.379-2.837-0.946c-1.606-0.473-2.93,0.379-4.443,0.567
		c-0.283,0.945-1.606,0.756-2.08,1.419c0.852,1.322-0.283,2.646,0.852,3.97c0.093,1.323,1.133,2.268,2.08,3.214v0.473
		c0.85,0.851,2.173,0.851,2.741,1.986c2.078,0.566,4.254,0.188,5.672-1.608c1.418-0.661,2.363,0.945,3.687,1.04
		c-0.188,0.945-0.566,2.174-0.095,3.12c0.757,1.323,2.27,2.269,3.877,2.269c0.85-0.283,1.89-0.757,2.268-1.702
		c0.188-0.472,0.188-1.229-0.283-1.607c-0.378-0.473-1.04-0.473-1.512-0.283c-0.946,0.378-0.38,1.514-0.473,2.27
		c-0.379,0.472-1.229,0.283-1.702,0.094c-0.946-0.378-1.418-1.134-1.701-1.891c0-0.756-0.19-1.796,0.755-2.175
		c2.741-0.094,4.159-3.875,7.186-3.118c2.079,0.566-0.379,1.7-0.379,2.551c0.946,1.042,1.701,1.986,2.079,3.216l3.025,0.378
		c2.932,1.89,4.727-1.892,7.09-2.741C121.877,208.904,122.16,209.376,122.066,209.942z M94.273,198.977
		c0.661,0.095,1.134,0.379,1.607,0.852c0,0.283,0,0.567-0.189,0.661C95.219,199.922,93.801,200.018,94.273,198.977z M95.407,201.812
		c-0.473,0.662-1.606,0.379-2.363,0.662c-0.378-0.566-0.662-1.135-0.566-1.796C93.612,200.679,94.745,200.772,95.407,201.812z
		 M91.721,198.222c0.474,0.094,1.229,0,1.514,0.566c0.283,1.134-0.947,0.567-1.419,0.757
		C91.531,199.262,91.438,198.599,91.721,198.222z M89.831,198.505c0.566-0.189,0.755,0.283,0.755,0.757
		c0,0.283-0.188,0.473-0.472,0.566c-0.379,0.094-0.662-0.379-0.662-0.662C89.357,198.788,89.547,198.599,89.831,198.505z
		 M87.468,200.018c-0.096-0.283,0.188-0.473,0.471-0.568c0.283-0.094,0.662,0,0.569,0.473c0,0.284-0.19,0.379-0.474,0.567
		C87.751,200.489,87.468,200.301,87.468,200.018z M87.655,201.719c0.566-0.567,1.229,0.094,1.229,0.662
		c0.284,0.472-0.377,0.377-0.567,0.567C87.751,202.853,87.751,202.191,87.655,201.719z M90.209,205.312l-0.283,0.283
		c-0.568-0.473-1.135-0.756-1.23-1.513c0.283-0.283,0.566-0.379,0.945-0.474C89.831,204.082,90.586,204.649,90.209,205.312z
		 M89.735,201.057c0.474-0.188,0.945-0.473,1.419-0.284c0.283,0.474,0.283,1.136,0.473,1.608c-0.285,0.283-0.758,0.377-1.135,0.377
		C90.114,202.191,89.735,201.719,89.735,201.057z M92.382,207.202c-0.566,0.283-1.228-0.19-1.796-0.474
		c0-0.189,0.189-0.566,0.473-0.662C91.531,206.256,92.666,206.539,92.382,207.202z M91.438,204.649
		c-0.283-0.378-0.379-0.851,0.189-1.041l0.66-0.094c0.19,0.851,0.947,1.418,1.04,2.363
		C92.478,205.878,91.815,205.312,91.438,204.649z M94.367,208.146l-0.945-0.095c-0.283-0.566,0.474-0.944,0.662-1.323l1.892,0.567
		C95.881,207.958,94.935,207.958,94.367,208.146z M97.204,206.445c-1.229-0.094-2.553-0.379-3.025-1.701l-0.472-1.229
		c1.512-0.566,3.401-0.095,4.158,1.418C97.771,205.405,98.054,206.352,97.204,206.445z M98.148,203.42
		c-0.474-0.567-2.078-0.567-1.606-1.795l0.283-0.946C97.771,201.246,98.338,202.285,98.148,203.42z M116.771,210.699
		c-0.661,0.094-1.418,0.189-2.08-0.189l-2.551-0.095c-0.757-0.756-0.662-1.985-1.607-2.646c0.188-0.757,1.891-1.229,0.945-2.27
		c1.04-0.283,2.459-0.188,2.93-1.417c0.283-0.567,0-1.229-0.283-1.701c-0.378-0.568-1.04-0.756-1.701-0.852
		c-1.323-0.094-2.363,0.852-3.687,0.662c-0.379-1.419-1.985-1.513-3.12-1.985c-0.188-1.04-0.85-2.175-1.985-2.647
		c-0.378-0.283-0.852-0.188-1.229-0.377c1.892-1.229,4.727-0.663,6.996-0.285c0.189-0.283,0.473-0.851,0.945-0.472
		c1.891,0.851,3.498,2.458,5.671,2.269c0.474-0.095,0.757-0.567,0.853-1.039c0-0.662-0.283-1.324-1.04-1.513
		c-0.189-0.189-0.567-0.284-0.567-0.567c0.094-0.473,0.094-0.945,0.283-1.324c1.324-0.188,2.269,1.229,3.592,0.379
		c2.459,0.473,1.514,3.593,3.593,4.537c2.364-0.095,1.513-3.024,3.403-3.875c1.796,0.944,3.402-1.135,5.294-0.283
		c0.472,0.755,0.662,1.984,1.702,2.268c0.378,0.851-0.662,1.323-0.947,2.08c-0.945,0.379-1.984,0.945-2.456,1.891
		c-0.283,0.852-0.096,1.985,0.283,2.742c0.567,0.851,1.418,1.417,2.363,1.511c0.095,0.663-0.757,0.853-0.945,1.419
		c-0.851,1.797-0.851,4.064-2.837,5.294c-1.228-0.756-1.89,0.661-2.646,1.323l-0.661,1.04c-1.606-0.567-2.459,1.229-3.782,1.419
		l-2.741-0.568c0.283-0.851,1.418-1.607,0.946-2.553c0.472-0.851,1.605-0.661,2.269-1.322c0.566-0.473,1.229-1.136,1.133-1.892
		c-0.188-0.661-0.377-1.513-1.038-1.797C119.514,206.729,118.852,210.321,116.771,210.699z"/>
	<path fill="#FFFFFF" d="M125.941,218.546c3.592,0.756,3.877-3.31,6.05-4.917c0.662-0.473,1.892-0.283,1.892-1.322l-0.189-0.473
		c-3.119-0.283-3.97,3.498-5.482,5.294c-1.891,1.891-4.35-0.473-6.43,0.755c-0.85,0.285-1.323,1.136-1.511,1.892
		c0.094,0.567,0.283,1.134,0.661,1.607c0.662,0.944,1.89,0.851,2.646,1.513c-0.566,1.512-2.08,2.646-3.591,2.741
		c-0.853,0.095-1.514-0.095-1.987-0.663c-0.376-0.472,0.095-1.039,0-1.322c-0.283-0.095-0.472,0-0.66,0.283
		c-0.285,0.284-0.189,0.945-0.095,1.324c0.755,0.756,1.702,0.944,2.742,0.944c1.984-0.188,3.401-1.701,4.348-3.403
		c1.229-0.188,2.363-0.377,3.309-1.323c0.283-0.378,0.378-1.04,0.283-1.513c-0.379-0.661-1.323-0.567-1.796-0.283
		c-1.134,0.283-1.607,1.513-2.174,2.362c-0.853,0-1.606-0.283-2.271-0.85c-0.566-0.378-0.85-1.04-0.566-1.701
		C122.066,217.411,124.335,218.546,125.941,218.546z"/>
	<path fill="#FFFFFF" d="M141.066,216.561c-0.662-0.852,0.284-1.701,0.474-2.553c-0.945-0.852-1.229,0.945-1.892,1.229
		c-1.038,0.283-1.984-0.377-2.931-0.567c-1.984-0.094-3.403,1.136-4.727,2.553c0,1.324-1.228,2.458-1.701,3.687l0.378,0.567
		c-0.566,0.946-0.661,1.985-0.757,3.119c0,0.378-0.188,0.946,0.379,0.946l0.19,2.174c0.094,0.379,0.188,1.134,0.66,0.946
		l0.946,2.174l2.174-0.378c0.094,0.094,0.189,0.378,0.377,0.283c1.419-0.662,3.12-0.189,4.35-1.513
		c0.756-0.379,1.229-1.417,2.079-1.513c0.945-1.039,1.323-2.457,2.08-3.497c0.283-2.08,0.567-4.538-0.757-6.146
		C142.106,217.316,141.161,217.222,141.066,216.561z M137.191,215.994c-0.568,0.755-1.135,1.795-1.701,2.361
		c-0.662-0.188-1.323-0.377-1.893-0.756C134.354,216.561,135.773,215.615,137.191,215.994z M135.207,222.895
		c-0.379,0.094-0.757,0.378-1.23,0.188c-0.472-1.04-0.188-2.361,0.474-3.214c0.283-0.094,0.471-0.566,0.85-0.377
		c0.474,0.661,0.19,1.606,0.474,2.363C135.961,222.326,135.678,222.799,135.207,222.895z M133.031,218.829
		c0.283-0.095,0.566,0.189,0.379,0.473c-0.379,0.566-0.566,1.229-1.136,1.702l-0.566-0.189
		C131.896,220.059,132.465,219.302,133.031,218.829z M131.141,223.934c0.379-0.661,0-2.363,1.324-1.984c0,0.756,0.85,1.89,0,2.457
		C132.087,224.122,131.33,224.501,131.141,223.934z M131.803,227.336c-0.283-0.472-0.473-1.228-0.095-1.7
		c0.472-0.095,1.229-0.095,1.136,0.566c0.093,0.379,0,0.662,0,1.04C132.559,227.336,132.18,227.525,131.803,227.336z
		 M133.883,229.039c0.094,0.379-0.285,0.379-0.473,0.566c-0.662,0.189-0.566-0.473-0.852-0.851c0.095-0.283,0.473-0.378,0.756-0.378
		C133.598,228.472,134.071,228.565,133.883,229.039z M133.977,227.053c-0.188-0.756-0.472-1.605-0.188-2.458
		c0.662-0.188,1.419-0.756,1.985-0.283c0.283,0.567,0.378,1.229,0.473,1.891C135.584,226.676,134.828,227.242,133.977,227.053z
		 M135.584,229.418c-0.567,0.188-0.663-0.474-0.851-0.757c-0.096-0.567,0.566-0.567,0.944-0.757c0.662-0.094,0.568,0.661,0.853,1.04
		C136.435,229.418,135.867,229.418,135.584,229.418z M137.664,217.222c0.377-0.473,0.946-0.85,1.513-0.944
		c0.566,0,0.851,0.661,1.134,1.134c0.189,1.418-0.379,2.741-1.513,3.593l-1.701,0.755
		C136.435,220.342,136.813,218.451,137.664,217.222z M137.854,228.661c-0.283-0.474-0.662-0.946-0.662-1.608
		c0.945,0.095,1.702-1.229,2.457-0.377C139.648,227.621,138.61,228.282,137.854,228.661z M137.38,225.636
		c-0.379-0.851-0.662-1.985,0-2.741c0.946,0.094,2.08-1.607,2.741-0.096C139.838,224.122,138.798,225.352,137.38,225.636z
		 M140.783,226.014c-0.188,0.095-0.379-0.283-0.566-0.566c0.283-0.568,0.378-1.325,1.04-1.797c0.188,0,0.378,0.188,0.378,0.378
		C141.635,224.879,141.066,225.352,140.783,226.014z M142.39,221.949l-0.188,0.756c-0.566-0.283-1.418-0.756-1.701-1.513
		c0.378-0.757,0.661-1.606,0.851-2.458C142.39,219.302,142.484,220.814,142.39,221.949z"/>
	<path fill="#FFFFFF" d="M155.721,210.699c-0.283-0.378-0.191-0.851,0.188-1.135c2.079-0.377,2.362,2.081,3.78,3.12
		c0.759,0.757,1.516-0.473,2.363,0.378c1.135,0.662,2.08-0.474,3.024-0.945c0.379-0.378,1.136-0.188,1.514-0.661
		c0.38-1.514,0-3.12-0.565-4.444c-0.664-2.836-3.973-1.513-5.389-3.309c0-0.283-0.188-0.755,0.188-0.945
		c1.419-1.039,1.89,1.418,3.213,1.041c0.946-0.474,2.271-0.474,2.742-1.607c-1.136-1.323-0.662-3.403-1.136-5.01
		c-0.283-1.891-2.646-1.419-3.117-3.025c-1.606-0.661-3.5-0.095-5.01,0.379c-0.287,0.094-0.569-0.096-0.569-0.379
		c-0.093-0.474-0.566-0.757-1.04-0.567c-1.271,0-2.155,1.354-3.149,1.933c-0.557,0.324-1.147,0.406-1.86-0.137
		c-0.633-1.146-0.239-2.244,0.283-3.246c0.258-0.486,0.541-0.953,0.758-1.386c-0.758-0.188-1.7-0.188-2.173,0.566l-0.45,0.819
		c-0.296,1.173,0.166,2.779-1.25,3.152c-2.08-0.946-4.35-1.892-6.807-1.608c-0.569,0.096-0.474,0.757-0.757,1.136
		c-1.419,0.566-3.025,0.566-4.065,1.606c0.662,1.324-0.944,2.269-1.418,3.214c0.19,1.04,0.283,2.174,0.095,3.119
		c0.945,0.945,2.08,1.514,3.403,1.703c1.606,0.188,1.985-2.176,3.592-2.08c0.378,0.188,0.567,0.567,0.567,0.944
		c-1.134,2.553-4.254,1.607-5.86,3.403c-0.853,0.851-1.702,1.607-1.514,2.836c0.852,0.661,0.852,1.797,0.661,2.742
		c0.285,0.85,1.514,0.566,2.176,0.945c1.418,0.756,2.268-0.757,3.214-1.418c1.606,0.945,1.891-1.324,3.024-1.702
		c0.568-0.189,1.039,0,1.418,0.473c0,1.513-1.985,1.135-2.646,2.175c-0.852,1.606-0.662,3.876,0.474,5.293
		c1.04-0.094,1.323,1.135,1.701,1.891c0.756,1.229,2.269,1.041,2.835,2.553c1.04,0.852,2.175,1.891,3.401,2.363
		c0.4-0.285,0.81-0.63,1.198-1.004c0.896-0.862,1.688-1.912,2.017-2.967c0.566-0.094,0.945-0.473,1.416-0.85
		c1.516-1.891,2.363-4.254,2.363-6.807C158.178,211.834,156.664,211.739,155.721,210.699z M157.326,215.332
		c-0.566,1.7-1.04,4.063-3.118,4.631c-0.444,0.778-0.892,1.648-1.45,2.392c-0.393,0.522-0.84,0.983-1.387,1.296
		c-1.135-0.662-2.175-1.513-3.024-2.553c-0.474-1.229-2.08-0.852-2.554-2.174c-0.283-0.568-0.379-1.513-1.229-1.796
		c-0.757,0-0.851-1.04-0.944-1.702c-0.474-1.891,1.606-2.27,2.646-3.309c0.661-0.378,0.661-1.229,0.472-1.892
		c-0.284-0.661-0.945-1.038-1.512-1.321c-1.419-0.096-2.27,1.134-3.12,1.984c-1.985-1.04-2.175,2.268-3.875,0.945
		c-0.378-0.095-1.135,0.188-1.135-0.473c0.283-1.136-1.136-1.891-0.566-3.025c1.701-3.024,7.656-1.229,6.899-5.955
		c-0.188-0.756-1.04-0.756-1.606-1.041c-1.513,0-1.985,1.418-3.12,1.985c-0.945-0.094-1.796-0.567-2.552-0.944
		c0.283-1.041-0.19-1.797,0.095-2.742c1.701-0.473,0.755-2.553,1.891-3.309c1.228-0.473,3.12,0.188,3.687-1.418
		c2.646-0.851,4.631,1.513,7.185,1.229l0.662-0.567c0.566,0.756,1.323,1.512,2.458,1.322c0.223-0.047,0.43-0.139,0.63-0.246
		c0.989-0.528,1.767-1.646,2.866-2.115c0.379,0.283,0.475,1.039,1.23,1.039c1.604,0.095,2.93-1.135,4.727-0.662
		c0.188,0.189,0.379,0.379,0.473,0.662c1.039,0.472,2.457,0.944,2.74,2.269c0.096,1.419,0,3.025,0.662,4.349
		c-0.566,0.283-1.229,0.566-1.984,0.473c-0.662-0.852-1.512-1.418-2.646-1.135c-0.565,0.096-1.04,0.662-1.323,1.229
		c-0.281,0.567,0,1.23,0.379,1.703c1.323,1.984,4.254,0.566,5.293,2.93c0.473,1.039,0.854,2.174,0.566,3.309
		c-1.416,0.473-2.835,1.985-4.35,0.757c-0.472,0-0.851,0.378-1.324,0.095c-1.321-1.229-2.172-4.065-4.536-2.932
		c-0.662,0.474-1.134,1.229-1.038,2.08C155.152,212.307,158.461,212.968,157.326,215.332z"/>
	<path fill="#FFFFFF" d="M213.007,198.693c0-0.472-0.567-0.378-0.853-0.567c-1.512-0.755-3.402-0.188-4.821-0.095
		c-1.037,0.19-1.89,1.23-2.834,1.324c-1.229,1.04-1.894,2.08-2.362,3.402c-0.283,1.324,0.471,2.458,0.094,3.688
		c-0.377,0.851-1.323,1.229-2.08,1.323c-3.118-0.378-5.295-4.254-8.791-2.553c-1.039-0.472-2.459,0-3.309-0.851
		c-0.189-0.473-0.095-1.134,0.283-1.417c1.984-0.379,3.779,1.606,5.672,0.283c-0.189-1.606,1.701-1.134,2.458-1.892
		c0.093-1.229,1.134-2.552,2.363-2.931c0.755-0.378,1.702-0.188,2.269-0.851c-2.08-1.89-5.482-1.701-8.226-1.417
		c-2.269-1.229-4.063,0.944-5.954,1.701c-0.475,0.188-1.04,0.283-1.323-0.094c0.095-0.663,0.757-0.757,1.134-1.04
		c0-1.04,0.282-1.986,0.756-2.837l-0.188-0.189c-1.701-0.378-3.12,0.853-4.82,0.284c-2.177,0.283-3.121,2.646-3.877,4.255
		c-0.283,0.188-0.377-0.19-0.473-0.19c-0.475-1.418-1.23-3.402-2.932-3.687c-1.606,0.946-3.311-0.378-5.198,0
		c-1.515,0.284-1.228,2.364-2.741,2.837c-0.568,1.323,1.04,1.89,1.04,3.024c0.944,0.566,2.458,0.756,2.646,2.079
		c0.097,0.851-0.188,1.514-0.853,2.08c-0.661,0.474-1.606,0.662-2.456,0.474c-0.568,0-1.418-0.946-1.797-0.095
		c-0.189,0.661,0.283,1.039,0.945,0.944c2.268,0.189,2.646,2.741,3.119,4.443c0.853,1.324,1.229,3.593,3.215,3.687
		c1.796-0.662,1.699,2.27,3.31,2.08c1.04-0.473,1.701,0.566,2.456,1.04c1.04,0.567,2.363,0,3.498-0.189
		c0.568-0.284,1.229,0.283,1.702-0.188c0.095-1.135-1.04-1.796-1.419-2.742l0.096-1.417c-0.757-1.323-3.12-0.567-3.402-2.459
		c0.282-0.283,0.282-0.944,0.853-0.944c2.078,0.944,3.399,3.591,5.955,3.309c1.135-0.945,2.93-0.378,3.97-1.135
		c0.096-1.323,1.516-1.984,1.893-3.12c0.094-0.661-0.66-0.756-1.039-1.228c-0.096-0.189-0.19-0.568,0.188-0.758
		c2.271-1.512,4.16,1.041,6.051,2.175c0.567,0.474,1.607,0.095,2.079,1.04c0.474,0.473,0.474,1.418,0.283,1.984
		c-0.379,0.757-1.04,1.514-1.795,1.797c-2.741,1.04-0.567-1.984-2.08-2.647c-0.567-0.189-1.323-0.094-1.701,0.378
		c-0.379,0.568-0.096,1.229,0,1.796c0.283,0.663,0.944,1.04,1.511,1.229c0.947,0.284,1.895,0.096,2.742-0.283
		c1.23-0.473,1.893-1.701,2.08-2.931c0.096-0.756-0.379-1.323-0.188-1.89c0.945-0.285,1.795-0.757,2.646-1.229
		c0.755,0,1.323,0.756,1.798,1.229c1.322,1.039,3.213,1.228,4.818,0.566c0.283-1.135,1.797-1.04,2.554-1.985
		c0-0.284,0-0.567,0.188-0.661c1.605-1.323,1.984-2.836,2.554-4.727c-0.664-0.662,0-1.513,0.093-2.27
		C214.423,199.071,213.573,199.071,213.007,198.693z M190.695,208.336c-1.038,0.662-0.659,1.89-1.606,2.457
		c-1.133,0.189-2.269-0.188-3.31,0.379c-2.93,0.662-3.969-5.105-6.807-2.646c-0.472,0.662-1.039,1.513-0.472,2.268
		c0.661,1.229,1.892,1.702,3.022,2.08c-0.283,1.229,0.852,1.892,1.229,2.836l-2.837,0.568c-1.322-0.379-2.27-1.702-3.688-1.418
		c-0.944-0.852-1.229-2.08-2.459-2.553c-0.851,0.756-1.511-0.284-1.983-0.851c-1.134-1.702-1.038-4.065-2.646-5.39v-0.283
		c1.039-0.188,2.08-0.851,2.553-1.891c0.475-1.135,0-2.457-0.661-3.403l-1.701-0.851c-0.19-0.756-1.323-1.229-1.04-2.08
		c0.943-0.473,1.512-1.323,1.701-2.268c1.795-0.852,3.402,1.228,5.197,0.283c2.176,0.567,1.607,5.577,4.442,3.309
		c0.568-1.418,0.853-3.592,2.839-3.971c1.038,0.662,2.172-0.283,3.307-0.283c0.188,0.473,0.188,1.04,0.188,1.513
		c-0.564,0.472-1.415,0.755-1.512,1.513c0,0.472,0.097,0.944,0.475,1.229c2.553,0.852,4.254-1.512,6.521-2.174
		c0.757,1.513,2.079,0,3.311,0.283c1.416-0.096,2.741,0.094,4.064,0.473c-1.136,0.757-3.12,1.418-3.12,3.119
		c-1.04,0.473-2.646,0.662-3.023,1.985c-1.986,0-4.633-1.701-5.768,0.756c-0.189,0.757,0.188,1.324,0.661,1.891
		c0.661,0.473,1.419,0.567,2.27,0.662c0.189,0.378-0.38,0.661-0.097,1.134C190.129,207.391,191.169,207.675,190.695,208.336z
		 M211.723,198.666c0.283,0.094,0.473,0.283,0.379,0.661c0,0.283-0.283,0.756-0.662,0.662c-0.281-0.096-0.474-0.283-0.474-0.567
		C210.966,198.949,211.156,198.477,211.723,198.666z M208.318,198.949c0.283-0.568,1.041-0.473,1.515-0.568
		c0.283,0.379,0.188,1.041-0.095,1.325C209.266,199.516,208.036,200.083,208.318,198.949z M208.51,202.636
		c-0.757-0.283-1.892,0-2.363-0.662c0.66-1.04,1.795-1.134,2.932-1.134C209.169,201.502,208.887,202.068,208.51,202.636z
		 M207.279,199.137c0.474,1.04-0.944,0.946-1.418,1.513c-0.188-0.094-0.188-0.377-0.188-0.66
		C206.146,199.516,206.618,199.232,207.279,199.137z M204.729,200.84l0.283,0.945c0.471,1.229-1.136,1.229-1.604,1.795
		C203.215,202.446,203.783,201.406,204.729,200.84z M204.35,206.606c-0.852-0.094-0.564-1.041-0.66-1.513
		c0.754-1.514,2.646-1.986,4.156-1.418l-0.471,1.229C206.9,206.229,205.578,206.513,204.35,206.606z M208.132,208.213l-0.944,0.094
		c-0.567-0.189-1.515-0.189-1.607-0.85l1.893-0.567C207.658,207.268,208.415,207.646,208.132,208.213z M209.266,203.676l0.66,0.095
		c0.569,0.188,0.475,0.661,0.19,1.039c-0.378,0.661-1.04,1.229-1.892,1.229C208.318,205.094,209.076,204.526,209.266,203.676z
		 M209.169,207.362c-0.282-0.662,0.853-0.945,1.326-1.134c0.282,0.094,0.471,0.472,0.471,0.661
		C210.398,207.173,209.738,207.646,209.169,207.362z M209.926,202.54c0.19-0.472,0.19-1.134,0.475-1.606
		c0.475-0.189,0.945,0.094,1.418,0.283c0,0.663-0.379,1.136-0.756,1.702C210.684,202.919,210.212,202.824,209.926,202.54z
		 M211.628,205.754l-0.282-0.283c-0.38-0.661,0.377-1.228,0.567-1.7c0.379,0.095,0.659,0.188,0.944,0.473
		C212.764,204.999,212.193,205.282,211.628,205.754z M213.236,203.107c-0.19-0.188-0.854-0.094-0.568-0.567
		c0-0.566,0.661-1.228,1.23-0.66C213.803,202.353,213.803,203.014,213.236,203.107z M214.086,200.177
		c0,0.284-0.283,0.473-0.566,0.473c-0.283-0.188-0.474-0.282-0.474-0.566c-0.095-0.473,0.283-0.567,0.565-0.473
		C213.898,199.706,214.182,199.894,214.086,200.177z"/>
	<path fill="#FFFFFF" d="M126.887,205.878c-1.229,1.229-1.229,3.215-1.795,4.632l0.377-0.284l1.418-3.214
		c0.474-1.134,1.984-0.473,2.932-0.85c0.188-0.19,0.093-0.474-0.095-0.757c-0.757-0.378-1.797-0.378-2.553-0.944
		c-2.27-2.553,1.134-4.633,1.7-6.807c-1.039,1.512-2.93,2.552-3.402,4.254c-0.377,0.473,0.283,1.228-0.284,1.417
		c-0.754-0.473-1.606-0.756-2.363-1.134c-1.89-0.379-2.173-2.553-3.308-3.498l0.757,1.985l-0.189,0.283
		c-2.175-0.566-4.916-0.378-6.901-0.756c2.741,0.945,5.86,0.945,8.224,2.458c-2.079,0.756-3.687,2.741-5.104,4.16
		c1.513-0.662,2.741-2.175,4.255-2.932C122.917,202.664,125.185,204.555,126.887,205.878z"/>
	<path fill="#FFFFFF" d="M154.584,204.933c-0.544-0.478-1.213-0.956-1.826-1.481c-1.089-0.933-2.007-2.018-1.765-3.529
		c0.635,0.119,1.213,0.079,1.765-0.043c2.075-0.457,3.73-2.141,6.27-1.47c-2.25-0.931-4.185,0.176-6.27,0.498
		c-0.453,0.069-0.912,0.104-1.387,0.069c-0.758-0.188-1.135-0.755-1.418-1.418c-1.229-0.662-0.473,1.04-1.229,1.229
		c-2.932,0.757-5.957-1.606-8.32,0.095c3.216-0.945,5.767,1.89,9.076,0.852c1.322,2.078-1.513,3.214-2.553,4.631
		c-1.135,0.946-2.646,1.323-3.403,2.363c1.323-1.04,3.025-1.323,4.539-2.174c0.754-0.379,1.417-1.323,2.268-1.606
		c0.283,1.891-0.378,3.591-0.567,5.388c-0.851,3.215,0.662,6.145,1.607,8.886c-0.189-2.174-0.852-4.254-0.945-6.522
		c-0.095-2.363,0.852-4.254,1.135-6.523c0.375,0.344,0.78,0.618,1.197,0.864c1.99,1.183,4.381,1.409,6.648,1.878L154.584,204.933z"
		/>
	<path fill="#FFFFFF" d="M181.527,201.34l-0.285-0.188c0.189-0.662,0.568-1.513,0.474-2.08c-0.85,0.851-0.944,2.08-1.89,2.931
		c-1.23,0.473-2.555,1.134-3.782,1.513c0.188-1.796-1.04-3.214-2.458-4.253c-0.379-0.379-0.566-1.04-1.133-1.23
		c0.471,1.797,2.738,2.837,2.551,4.917c-0.095,0.755-0.189,1.606-1.04,1.984c-0.757,0.566-2.08,0.283-2.458,1.134
		c0.378,0.945,1.418,0.189,2.176,0.473c1.889,0.757,1.039,3.215,2.741,4.254c-0.565-0.851-0.565-1.984-0.757-2.931
		c-0.188-0.755-0.854-1.228-1.137-1.796l2.46-1.605c1.797-1.325,3.97-0.096,5.483,0.851c1.039,0.472,1.699,1.796,2.836,1.984
		c-1.418-1.418-3.402-3.403-5.199-4.443c2.268-1.606,5.388-1.323,7.939-2.363C185.876,200.772,183.7,201.057,181.527,201.34z"/>
	<path fill="#FFFFFF" d="M183.324,224.028c-0.19,0.283,0,0.473,0.188,0.661c0.094,0.379,0,0.662-0.283,0.946
		c-0.853,0.473-2.08,0.378-3.023,0.095c-0.757-0.758-2.08-1.513-2.271-2.648c1.135-0.566,2.836-0.944,3.119-2.457
		c0.096-4.631-5.482-1.418-7.751-3.119c-1.229-2.08-2.362-5.389-5.389-5.483c-0.19,0.284-0.378,0.473-0.283,0.851
		c0.093,0.473,0.565,0.568,0.945,0.662c3.213,0.851,2.837,5.767,6.616,5.389c1.606,0,3.781-1.041,5.012,0.472
		c0.188,0.379,0.283,1.04,0.093,1.419c-0.565,1.04-1.606,1.228-2.551,1.512c-0.662-0.284-0.757-1.039-1.229-1.605
		c-0.66-0.662-1.703-1.325-2.646-0.853c-0.376,0.378-0.376,0.853-0.283,1.324c0.565,1.513,2.271,1.606,3.688,2.08
		c0.283,1.134,1.322,2.175,2.363,2.93c1.321,0.474,3.311,0.474,4.441-0.472c0.189-0.473,0.378-1.136,0-1.513
		C183.891,223.934,183.514,223.839,183.324,224.028z"/>
	<path fill="#FFFFFF" d="M171.034,221.476l0.379-0.567c-0.474-1.229-1.702-2.362-1.702-3.687c-1.324-1.417-2.74-2.646-4.727-2.553
		c-0.947,0.19-1.894,0.851-2.934,0.567c-0.66-0.283-0.943-2.08-1.89-1.229c0.188,0.852,1.133,1.701,0.474,2.553
		c-0.096,0.661-1.043,0.756-1.322,1.512c-1.326,1.607-1.043,4.065-0.761,6.146c0.761,1.04,1.138,2.458,2.083,3.497
		c0.852,0.096,1.323,1.134,2.077,1.513c1.229,1.323,2.931,0.851,4.351,1.513c0.188,0.095,0.285-0.189,0.377-0.283l2.177,0.378
		l0.944-2.174c0.474,0.188,0.564-0.567,0.662-0.946l0.188-2.174c0.565,0,0.376-0.568,0.376-0.946
		C171.695,223.461,171.602,222.422,171.034,221.476z M168.671,218.829c0.565,0.473,1.134,1.229,1.323,1.985l-0.568,0.189
		c-0.566-0.473-0.755-1.136-1.133-1.702C168.104,219.019,168.387,218.734,168.671,218.829z M168.104,217.6
		c-0.565,0.379-1.229,0.568-1.891,0.756c-0.568-0.566-1.136-1.606-1.701-2.361C165.93,215.615,167.348,216.561,168.104,217.6z
		 M167.725,223.082c-0.472,0.19-0.851-0.094-1.229-0.188c-0.475-0.096-0.758-0.568-0.566-1.04c0.283-0.757,0-1.702,0.471-2.363
		c0.379-0.189,0.57,0.283,0.854,0.377C167.914,220.721,168.197,222.042,167.725,223.082z M159.312,221.949
		c-0.097-1.135,0-2.647,1.037-3.215c0.189,0.852,0.475,1.701,0.854,2.458c-0.283,0.757-1.137,1.229-1.702,1.513L159.312,221.949z
		 M160.92,226.014c-0.283-0.662-0.854-1.135-0.854-1.985c0-0.189,0.189-0.378,0.379-0.378c0.662,0.472,0.758,1.229,1.041,1.797
		C161.296,225.73,161.107,226.108,160.92,226.014z M163.85,228.661c-0.757-0.379-1.797-1.04-1.797-1.985
		c0.758-0.852,1.514,0.472,2.459,0.377C164.512,227.715,164.133,228.188,163.85,228.661z M164.323,225.636
		c-1.419-0.284-2.46-1.514-2.742-2.837c0.662-1.512,1.795,0.189,2.742,0.096C164.984,223.65,164.699,224.785,164.323,225.636z
		 M164.605,221.759l-1.701-0.755c-1.135-0.852-1.701-2.175-1.514-3.593c0.281-0.473,0.567-1.134,1.135-1.134
		c0.565,0.095,1.134,0.472,1.512,0.944C164.891,218.451,165.268,220.342,164.605,221.759z M166.971,228.661
		c-0.191,0.283-0.287,0.944-0.854,0.757c-0.283,0-0.85,0-0.944-0.474c0.283-0.379,0.188-1.134,0.851-1.04
		C166.4,228.094,167.062,228.094,166.971,228.661z M165.456,226.202c0.095-0.661,0.188-1.323,0.474-1.891
		c0.566-0.473,1.323,0.095,1.984,0.283c0.283,0.853,0,1.702-0.189,2.458C166.874,227.242,166.117,226.676,165.456,226.202z
		 M168.293,229.605c-0.189-0.188-0.568-0.188-0.475-0.566c-0.188-0.474,0.283-0.567,0.565-0.662c0.285,0,0.661,0.095,0.759,0.378
		C168.859,229.133,168.954,229.795,168.293,229.605z M169.898,227.336c-0.379,0.189-0.756,0-1.039-0.094c0-0.378-0.094-0.661,0-1.04
		c-0.094-0.661,0.66-0.661,1.135-0.566C170.373,226.108,170.184,226.864,169.898,227.336z M169.236,224.406
		c-0.853-0.567,0-1.701,0-2.457c1.324-0.379,0.945,1.323,1.324,1.984C170.373,224.501,169.616,224.122,169.236,224.406z"/>
	<path fill="#FFFFFF" d="M109.267,105.508c0-0.917-0.019-1.835-0.073-2.753h0.031l0.904,4.207h0.524l0.923-4.207h0.013
		c-0.054,0.918-0.073,1.836-0.073,2.753v1.454h0.861v-4.619h-1.367l-0.461,2.144c-0.062,0.3-0.093,0.609-0.137,1.064H110.4
		c-0.037-0.356-0.086-0.715-0.159-1.064l-0.462-2.144h-1.374v4.619h0.861L109.267,105.508L109.267,105.508z"/>
	<path fill="#FFFFFF" d="M114.209,105.791h1.01l0.229,1.171h0.924l-1.047-4.619h-1.165l-1.103,4.619h0.925L114.209,105.791z
		 M114.604,103.803c0.044-0.218,0.062-0.425,0.086-0.643c0.007-0.104,0.02-0.209,0.031-0.308h0.013
		c0.012,0.099,0.024,0.204,0.03,0.308c0.024,0.218,0.043,0.425,0.087,0.643l0.231,1.311h-0.737L114.604,103.803z"/>
	<path fill="#FFFFFF" d="M117.912,104.972h0.154c0.246,0,0.5-0.006,0.734,0.062c0.295,0.088,0.288,0.475,0.295,0.758
		c0.005,0.309-0.012,0.875,0.092,1.171h0.948v-0.087c-0.21-0.136-0.185-1.269-0.185-1.46c0-0.443-0.154-0.771-0.665-0.836v-0.014
		c0.579-0.079,0.708-0.609,0.708-1.114c0-0.85-0.566-1.108-1.311-1.108h-1.634v4.619h0.862v-1.991H117.912L117.912,104.972z
		 M117.912,103.02h0.642c0.326,0.007,0.542,0.092,0.542,0.609c0,0.463-0.222,0.647-0.505,0.666h-0.679V103.02z"/>
	<path fill="#FFFFFF" d="M122.509,107.071c0.358,0,0.604-0.036,0.813-0.142l0.48,0.469l0.438-0.406l-0.474-0.475
		c0.222-0.356,0.251-0.985,0.251-1.576v-0.659c-0.036-1.176-0.129-2.051-1.509-2.051c-1.379,0-1.472,0.875-1.509,2.051v0.659
		C121,106.173,121.093,107.071,122.509,107.071z M122.509,102.926c0.678,0,0.623,0.809,0.623,1.166l-0.008,1.28
		c0,0.147-0.017,0.32-0.049,0.462l-0.042-0.043l-0.468,0.395l0.166,0.161c-0.062,0.017-0.136,0.029-0.223,0.029
		c-0.591,0-0.622-0.622-0.622-1.004v-1.28C121.887,103.734,121.832,102.926,122.509,102.926z"/>
	<path fill="#FFFFFF" d="M126.496,107.071c1.128,0,1.46-0.485,1.46-1.509v-3.22h-0.862v3.146c0,0.443-0.031,0.887-0.592,0.887
		c-0.585,0-0.616-0.443-0.616-0.887v-3.146h-0.862v3.22C125.023,106.586,125.355,107.071,126.496,107.071z"/>
	<polygon fill="#FFFFFF" points="131.405,103.02 131.405,102.343 128.979,102.343 128.979,106.962 131.405,106.962 131.405,106.283 
		129.842,106.283 129.842,104.862 131.283,104.862 131.283,104.184 129.842,104.184 129.842,103.02 	"/>
	<path fill="#FFFFFF" d="M171.628,102.343h-1.797v4.619h1.594c0.216,0,0.449-0.013,0.644-0.125c0.707-0.411,0.707-1.465,0.707-2.376
		c0-0.764-0.057-1.273-0.254-1.596C172.258,102.436,171.838,102.343,171.628,102.343z M171.068,106.283h-0.377v-3.264h0.565
		c0.519,0,0.628,0.432,0.628,1.521C171.887,105.878,171.838,106.283,171.068,106.283z"/>
	<polygon fill="#FFFFFF" points="176.188,106.283 174.623,106.283 174.623,104.862 176.062,104.862 176.062,104.184 
		174.623,104.184 174.623,103.02 176.188,103.02 176.188,102.343 173.762,102.343 173.762,106.962 176.188,106.962 	"/>
	<path fill="#FFFFFF" d="M177.945,105.028h0.578c0.332,0.005,0.697-0.062,0.968-0.278c0.327-0.259,0.433-0.701,0.433-1.097
		c0-0.646-0.254-1.311-1.078-1.311h-1.762v4.619h0.861V105.028z M177.945,103.02h0.394c0.488,0,0.696,0.08,0.696,0.609
		c0,0.561-0.252,0.721-0.628,0.721h-0.462V103.02L177.945,103.02z"/>
	<path fill="#FFFFFF" d="M182.191,107.071c1.416,0,1.509-0.898,1.509-2.13v-0.659c-0.036-1.176-0.13-2.051-1.509-2.051
		s-1.474,0.875-1.51,2.051v0.659C180.684,106.173,180.775,107.071,182.191,107.071z M182.191,102.926c0.64,0,0.623,0.82,0.623,1.189
		v1.183c0,0.443-0.008,1.078-0.623,1.078c-0.592,0-0.623-0.622-0.623-1.004v-1.28C181.568,103.734,181.514,102.926,182.191,102.926z
		"/>
	<path fill="#FFFFFF" d="M185.993,107.071c0.845,0,1.423-0.454,1.423-1.33c0-0.399-0.093-0.677-0.389-0.967
		c-0.241-0.233-0.764-0.579-1.047-0.759c-0.271-0.17-0.494-0.306-0.494-0.657c0-0.315,0.187-0.433,0.475-0.433
		c0.477,0,0.514,0.408,0.506,0.82h0.832c-0.007-0.456,0.029-1.515-1.343-1.515c-0.91,0-1.354,0.431-1.354,1.22
		c0,0.246,0.08,0.498,0.224,0.708c0.352,0.461,0.909,0.715,1.358,1.065c0.224,0.154,0.344,0.338,0.344,0.609
		c0,0.352-0.17,0.542-0.532,0.542c-0.427,0-0.562-0.327-0.542-0.776v-0.271h-0.862v0.34
		C184.589,106.493,184.958,107.071,185.993,107.071z"/>
	<polygon fill="#FFFFFF" points="190.749,106.283 189.188,106.283 189.188,104.862 190.627,104.862 190.627,104.184 
		189.188,104.184 189.188,103.02 190.749,103.02 190.749,102.343 188.322,102.343 188.322,106.962 190.749,106.962 	"/>
	<polygon fill="#FFFFFF" points="194.047,106.283 192.482,106.283 192.482,104.862 193.923,104.862 193.923,104.184 
		192.482,104.184 192.482,103.02 194.047,103.02 194.047,102.343 191.62,102.343 191.62,106.962 194.047,106.962 	"/>
	<path fill="#FFFFFF" d="M236.439,131.684c-2.539,0-4.599,2.058-4.599,4.596c0,2.538,2.06,4.596,4.599,4.596
		c2.537,0,4.595-2.058,4.595-4.596C241.034,133.742,238.977,131.684,236.439,131.684z M236.439,139.931
		c-0.979,0-1.894-0.381-2.584-1.069c-0.688-0.691-1.068-1.606-1.068-2.582c0-0.976,0.381-1.891,1.068-2.582
		c0.69-0.688,1.605-1.068,2.584-1.068c0.975,0,1.89,0.38,2.58,1.068c0.688,0.691,1.068,1.606,1.068,2.582
		C240.09,138.292,238.451,139.931,236.439,139.931z"/>
	<path fill="#231F20" d="M236.439,132.629c-0.979,0-1.894,0.38-2.584,1.068c-0.688,0.691-1.068,1.606-1.068,2.582
		s0.381,1.891,1.068,2.582c0.69,0.688,1.605,1.069,2.584,1.069c2.012,0,3.648-1.639,3.648-3.651c0-0.976-0.381-1.891-1.068-2.582
		C238.329,133.009,237.414,132.629,236.439,132.629z M238.542,138.394h-1.022c-0.062-0.209-0.101-0.437-0.101-0.894
		c0-0.604-0.037-0.836-0.721-0.836h-0.954v1.729h-0.906v-4.423h2.236c1.177,0,1.392,0.869,1.392,1.25
		c0,0.487-0.245,0.906-0.684,1.055c0.364,0.159,0.562,0.296,0.562,1.121c0,0.646,0,0.806,0.198,0.88V138.394L238.542,138.394z"/>
	<path fill="#231F20" d="M236.896,134.735h-1.152v1.182h1.084c0.48,0,0.715-0.166,0.715-0.604
		C237.543,135.079,237.438,134.735,236.896,134.735z"/>
	<path fill="#FFFFFF" d="M238.344,137.396c0-0.825-0.197-0.962-0.562-1.121c0.438-0.148,0.684-0.567,0.684-1.055
		c0-0.381-0.215-1.25-1.392-1.25h-2.236v4.423h0.906v-1.729h0.954c0.684,0,0.721,0.232,0.721,0.836c0,0.457,0.039,0.685,0.101,0.894
		h1.022v-0.117C238.344,138.202,238.344,138.042,238.344,137.396z M236.828,135.917h-1.084v-1.182h1.152
		c0.541,0,0.646,0.344,0.646,0.578C237.543,135.751,237.309,135.917,236.828,135.917z"/>
</g>
<g>
	<path fill="#FFFFFF" d="M152.307,398.051l3.707,11.741c3.854,0.151,7.864-0.151,11.797,0c0.455,0.151,0.907,0.585,1.06,1.04
		c0.528,1.739-1.513,2.269-2.42,3.176c-2.421,1.893-4.99,3.705-7.261,5.748l3.556,11.646c0.075,0.604-0.229,1.283-0.832,1.663
		c-0.529,0.303-1.285,0.303-1.813-0.075l-9.228-6.809c-3.328,2.193-6.505,4.842-9.832,7.033c-0.453,0.229-0.982,0.076-1.361-0.151
		c-0.605-0.378-0.832-0.905-0.908-1.513c1.135-4.008,2.421-7.938,3.631-11.873l-9.453-7.336c-0.227-0.454-0.453-1.134-0.151-1.664
		c0.151-0.453,0.529-0.734,0.907-0.888c3.857-0.151,7.789,0.075,11.798,0l3.856-12.044c0.303-0.453,0.832-0.68,1.362-0.68
		C151.398,397.068,152.079,397.445,152.307,398.051L152.307,398.051z"/>
	<path fill="#CE2828" d="M166.979,411.361l-9.83,7.639c1.209,4.158,2.646,8.242,3.854,12.402l-10.209-7.487l-10.209,7.487
		c1.209-4.16,2.723-8.244,3.856-12.479c-3.252-2.571-6.579-4.992-9.831-7.562h12.176c1.437-4.084,2.57-8.243,3.932-12.403
		l3.935,12.403H166.979L166.979,411.361z"/>
	<path fill="#FFFFFF" d="M233.832,455.035c-0.982,0.529-2.041,1.361-2.723,2.42c-1.361,2.042-1.814,5.219-0.68,7.487
		c0.756,1.437,1.812,2.947,3.4,3.555l-4.84,17.091l-0.453,0.229l-28.172,5.896v-6.749H99.708v6.786l-28.549-5.975
		c-1.814-5.671-3.403-11.419-4.99-17.167c2.949-1.438,4.311-4.613,4.007-7.789c-0.453-2.271-1.739-4.689-4.007-5.599l4.915-17.167
		l28.624-6.05v6.712h100.659v-6.75l28.475,5.977L233.832,455.035L233.832,455.035z"/>
	<path fill="#231F20" d="M97.855,483.13l104.27-0.037c0.229,1.966-0.074,4.159,0,6.2l25.053-5.066L227.48,484
		c1.436-4.84,2.797-9.68,4.084-14.521c-1.967-1.588-3.104-3.779-3.48-6.126c-0.453-3.631,0.758-7.031,3.48-9.226l-4.16-14.597
		l-25.279-5.22v6.354l-104.27,0.038v-6.354l-25.335,5.369l-4.084,14.445c1.739,1.285,2.799,3.176,3.328,5.142
		c0.982,3.782-0.303,7.941-3.328,10.21l4.084,14.671l25.335,5.221V483.13L97.855,483.13z"/>
	<path fill="#FFFFFF" d="M204.037,436.658l21.855,4.462l3.629,12.251c-2.873,2.949-4.008,7.26-3.025,11.269
		c0.529,2.042,1.287,4.01,3.025,5.521l-3.479,12.402l-22.006,4.463v-5.748l-108.034-0.015c-0.227,1.893,0.075,3.907,0,5.725
		l-21.895-4.312l-0.227-0.302l-3.402-12.024c3.1-3.253,4.234-8.168,2.722-12.4c-0.528-1.664-1.36-3.177-2.722-4.463l3.554-12.252
		l2.949-0.682l19.021-3.855v5.748l108.034,0.037L204.037,436.658L204.037,436.658z"/>
	<polygon fill="#231F20" points="205.945,442.48 205.945,438.926 222.943,442.48 	"/>
	<path fill="#231F20" d="M94.074,442.52H77.059c5.672-1.211,11.343-2.421,17.016-3.479L94.074,442.52L94.074,442.52z"/>
	<path fill="#231F20" d="M224.908,444.429c0.908,2.798,1.74,5.614,2.42,8.488c-3.252,4.084-4.008,10.437-1.664,15.202
		c0.455,0.906,0.984,1.812,1.74,2.57l-2.344,8.546l-150.044,0.111l-2.344-8.471c3.024-3.781,4.083-9.604,2.117-14.292
		c-0.529-1.286-1.135-2.496-2.117-3.631l2.344-8.526L224.908,444.429L224.908,444.429z"/>
	<path fill="#FFFFFF" d="M126.064,449.25c0.604,0.604,0.831,1.285,0.831,2.117c-0.15,0.756-0.302,1.512-0.982,2.042
		c-0.682,0.681-1.664,0.907-2.646,0.681c-0.757-0.149-1.514-0.756-1.891-1.438c-0.529-0.982-0.455-2.346,0.302-3.178
		c0.529-0.681,1.361-0.981,2.118-1.135C124.702,448.342,125.459,448.721,126.064,449.25L126.064,449.25z"/>
	<path fill="#FFFFFF" d="M172.727,448.871c0.377,0,0.453,0.454,0.604,0.682c0,3.705-0.076,7.486,0.073,11.192
		c1.212-1.062,2.496-2.118,3.479-3.327c-0.148-0.454-0.756-0.379-0.98-0.832c-0.076-0.604-0.021-1.014,0.281-1.468h7.101
		c0.452,0.378,0.637,0.786,0.407,1.392c-0.377,0.378-0.981,0.229-1.36,0.683c-1.285,1.21-2.724,2.115-3.63,3.63
		c1.361,2.873,2.874,5.672,4.613,8.395c0.604,0.379,1.738,0.454,1.664,1.361c-0.076,0.907-0.285,1.564-1.588,1.564h-4.312
		c-1.591-2.569-2.952-5.194-4.464-7.69l-1.213,1.135c-0.227,1.361-0.227,3.024,0.908,3.935c0.305,0.149,0.682,0.227,0.908,0.604
		c0,0.756,0.076,1.567-0.604,2.021h-7.941c-0.451-0.529-0.527-1.188-0.451-1.944c0.451-0.681,1.551-0.832,1.775-1.664v-16.335
		c-0.15-0.983-1.324-1.135-1.775-1.814c0-0.528-0.152-1.211,0.303-1.514h6.201V448.871L172.727,448.871z"/>
	<path fill="#FFFFFF" d="M100.503,467.643c0.074,0.683-0.076,1.59,0.68,1.893c0.682,0.378,1.664,0.681,1.438,1.739
		c-0.151,0.302-0.076,0.698-0.453,0.851h-9.303c-0.605-0.378-0.303-1.153-0.303-1.758c0.529-0.529,1.513-0.454,1.815-1.286
		c0.151-2.495,0.453-5.067,0.228-7.562l-0.303-0.378h-4.841l-0.378,0.453c-0.227,2.572,0.076,5.067,0.227,7.563
		c0.454,0.756,1.438,0.681,1.891,1.359c-0.075,0.529,0.152,0.983-0.15,1.438l-0.379,0.17h-9.15
		c-0.605-0.454-0.303-1.229-0.227-1.833c0.604-0.53,1.55-0.606,1.852-1.438V451.99c-0.453-0.684-1.322-0.757-1.852-1.211
		c-0.076-0.604-0.303-1.438,0.302-1.893h8.849c0.453,0.455,0.303,1.286,0.227,1.815c-0.453,0.529-1.285,0.529-1.512,1.286
		c-0.152,1.891-0.228,3.555-0.076,5.443l0.303,0.305h4.916l0.303-0.305c0.15-1.967,0.074-3.706-0.152-5.598
		c-0.303-0.756-1.21-0.604-1.512-1.36c0.074-0.527-0.152-1.21,0.377-1.589h8.85c0.604,0.455,0.377,1.361,0.227,1.969
		c-0.605,0.378-1.588,0.527-1.891,1.359v15.429L100.503,467.643L100.503,467.643z"/>
	<path fill="#FFFFFF" d="M118.048,458.249c0.529,0.907,1.135,2.118,0.68,3.253c-2.797,2.797-6.578,3.402-10.133,4.612
		c-0.227,0.303-0.152,0.681,0,0.98c0.756,1.211,2.042,2.194,3.555,2.043c2.117,0.075,3.629-1.359,5.218-2.646
		c0.681-0.229,1.134,0.303,1.589,0.682c0.302,0.302,0.302,0.831,0.15,1.209c-1.814,2.799-4.916,4.159-8.242,4.084
		c-3.48,0-6.883-2.723-7.941-5.897c-1.059-3.856-0.152-8.018,3.101-10.438c2.345-1.891,6.276-2.268,8.848-0.68
		C116.081,456.131,117.216,457.039,118.048,458.249L118.048,458.249z"/>
	<path fill="#FFFFFF" d="M200.709,459.686c0.227,0.454,0.227,1.137,0.074,1.664c-1.285,1.74-3.328,2.346-5.066,3.103l-5.066,1.589
		c-0.379,0.227-0.227,0.756-0.15,0.982c0.684,1.21,1.967,2.191,3.402,2.116c2.27,0.151,3.855-1.21,5.445-2.646
		c0.756-0.229,1.361,0.378,1.814,0.908c-0.152,2.646-3.102,4.008-5.143,4.764c-3.781,1.135-7.412-0.227-9.832-3.176
		c-2.345-2.725-2.117-7.336-0.453-10.361c1.967-3.101,5.521-4.84,9.227-3.932C197.381,455.3,199.877,457.19,200.709,459.686
		L200.709,459.686z"/>
	<path fill="#FFFFFF" d="M164.784,458.552c0.303,0.756,0.907,1.588,0.682,2.571c-1.514,2.42-4.235,2.873-6.504,3.857l-3.705,1.134
		c-0.379,0.227-0.151,0.832,0,1.135c0.681,1.134,1.892,1.966,3.326,1.966c2.192,0.076,3.705-1.285,5.295-2.646
		c0.756-0.304,1.437,0.303,1.892,0.833c0.228,1.966-1.892,3.022-3.179,3.933c-2.344,1.36-5.821,1.663-8.317,0.453
		c-2.873-1.361-5.065-4.234-5.144-7.411c-0.15-3.63,1.21-7.033,4.463-8.849c1.966-1.136,4.765-1.36,6.957-0.529
		C162.214,455.678,163.878,456.888,164.784,458.552L164.784,458.552z"/>
	<path fill="#FFFFFF" d="M216.967,455.904c0.605,0.832,0.832,1.738,0.984,2.723v10.285c0.529,1.059,1.135-0.529,1.891-0.075
		c0.529,0.303,0.604,0.907,0.453,1.361c-0.68,1.437-2.268,2.042-3.705,2.191c-1.361-0.149-2.895-0.528-3.576-1.967
		c-0.604-3.555,0.021-7.638-0.508-11.344c-0.227-0.378-0.682-0.757-1.211-0.757c-0.83,0.076-1.588,0.604-2.041,1.359
		c-0.453,3.025-0.453,6.504,0,9.454l1.361,1.061c-0.076,0.68,0.303,1.489-0.379,1.942h-8.092c-0.529-0.453-0.305-1.188-0.377-1.793
		c0.453-0.681,1.674-0.756,1.748-1.738l-0.012-10.06c0.076-0.757-0.832-1.21-1.283-1.739c-0.076-0.604-0.229-1.316,0.303-1.695
		l6.125,0.012c0.303,0.227,0.227,1.156,0.908,0.854C211.598,454.695,215.002,453.787,216.967,455.904L216.967,455.904z"/>
	<path fill="#FFFFFF" d="M145.237,455.904c0.605,0.832,0.832,1.738,0.984,2.723v10.285c0.529,1.059,1.134-0.529,1.891-0.075
		c0.529,0.303,0.604,0.907,0.453,1.361c-0.681,1.437-2.27,2.042-3.706,2.191c-1.361-0.149-2.896-0.528-3.575-1.967
		c-0.605-3.555,0.021-7.638-0.509-11.344c-0.226-0.378-0.68-0.757-1.21-0.757c-0.832,0.076-1.588,0.604-2.041,1.359
		c-0.454,3.025-0.454,6.504,0,9.454l1.361,1.061c-0.076,0.68,0.302,1.489-0.379,1.942h-8.092c-0.529-0.453-0.303-1.188-0.378-1.793
		c0.454-0.681,1.674-0.756,1.749-1.738l-0.01-10.06c0.076-0.757-0.832-1.21-1.285-1.739c-0.076-0.604-0.228-1.316,0.303-1.695
		l6.125,0.012c0.303,0.227,0.227,1.156,0.908,0.854C139.868,454.695,143.272,453.787,145.237,455.904L145.237,455.904z"/>
	<path fill="#FFFFFF" d="M127.122,455.573v12.583c-0.302,1.135,0.984,1.513,1.589,2.042c0,0.604,0.228,1.359-0.151,1.813
		l-0.303,0.129h-7.94c-0.529-0.451-0.302-1.188-0.378-1.793c0.453-0.756,1.664-0.756,1.664-1.813l0.075-9.907
		c-0.075-0.68-0.907-0.982-1.361-1.588c0-0.605-0.227-1.541,0.378-1.92h6.051L127.122,455.573L127.122,455.573z"/>
	<path fill="#231F20" d="M113.132,458.778c0.379,0.757,0.832,2.042,0.152,2.798c-1.287,0.908-2.799,1.287-4.312,1.589
		c-1.06-0.075-0.681-1.286-0.907-1.892c0.074-1.438,0.529-2.799,1.588-3.631C110.788,457.039,112.603,457.342,113.132,458.778
		L113.132,458.778z"/>
	<path fill="#231F20" d="M194.205,457.645c0.906,0.832,1.436,1.893,1.361,3.178c-0.229,1.21-1.59,1.359-2.422,1.813
		c-0.982,0.075-2.27,1.136-2.949,0c-0.229-1.813-0.15-3.855,1.438-4.991C192.389,457.266,193.447,457.266,194.205,457.645
		L194.205,457.645z"/>
	<path fill="#231F20" d="M158.734,457.645c1.06,0.907,1.589,2.193,1.361,3.479c-0.38,0.907-1.438,1.135-2.271,1.513
		c-0.984,0-2.271,1.21-3.025,0c-0.303-1.813-0.075-3.933,1.589-4.989C156.995,457.266,158.13,457.266,158.734,457.645
		L158.734,457.645z"/>
	<polygon fill="#231F20" points="205.945,481.277 223.094,481.277 205.945,484.756 	"/>
	<path fill="#231F20" d="M94.074,484.794l-17.167-3.529c5.672-0.073,11.42,0,17.167,0V484.794L94.074,484.794z"/>
	<path fill="#FFFFFF" d="M219.152,452.908c2.029,0,3.676-1.646,3.676-3.677c0-2.031-1.646-3.679-3.676-3.679
		c-2.031,0-3.678,1.646-3.678,3.679C215.475,451.262,217.121,452.908,219.152,452.908L219.152,452.908z"/>
	<path fill="#231F20" d="M216.23,449.231c0-0.78,0.305-1.515,0.854-2.065c0.555-0.551,1.285-0.854,2.064-0.854
		s1.514,0.306,2.064,0.854c0.551,0.553,0.855,1.285,0.855,2.065c0,1.608-1.312,2.921-2.92,2.921c-0.781,0-1.516-0.307-2.066-0.855
		C216.535,450.744,216.23,450.012,216.23,449.231L216.23,449.231z"/>
	<path fill="#FFFFFF" d="M217.871,447.385h1.789c0.941,0,1.113,0.695,1.113,1c0,0.392-0.197,0.727-0.547,0.844
		c0.291,0.129,0.447,0.236,0.447,0.896c0,0.517,0,0.645,0.158,0.704v0.094h-0.816c-0.051-0.167-0.08-0.35-0.08-0.715
		c0-0.482-0.029-0.669-0.576-0.669h-0.764v1.384h-0.727L217.871,447.385L217.871,447.385z M219.463,448.941
		c0.385,0,0.572-0.135,0.572-0.482c0-0.188-0.084-0.463-0.518-0.463h-0.922v0.945H219.463L219.463,448.941z"/>
</g>
<g>
	<path fill="#FFFFFF" d="M151.557,704.719l2.504,7.934c2.605,0.102,5.314-0.104,7.973,0c0.307,0.102,0.611,0.395,0.715,0.701
		c0.355,1.176-1.021,1.531-1.637,2.146c-1.635,1.277-3.369,2.502-4.902,3.883l2.398,7.867c0.053,0.409-0.152,0.868-0.561,1.123
		c-0.357,0.205-0.869,0.205-1.227-0.05l-6.232-4.601c-2.249,1.481-4.395,3.271-6.642,4.752c-0.307,0.152-0.664,0.053-0.92-0.104
		c-0.409-0.255-0.562-0.612-0.613-1.021c0.767-2.708,1.635-5.362,2.452-8.021l-6.386-4.956c-0.153-0.306-0.306-0.766-0.102-1.124
		c0.102-0.306,0.357-0.497,0.612-0.599c2.606-0.104,5.263,0.05,7.97,0l2.605-8.139c0.204-0.306,0.562-0.459,0.92-0.459
		C150.945,704.055,151.404,704.31,151.557,704.719L151.557,704.719z"/>
	<path fill="#CE2828" d="M161.469,713.709l-6.641,5.161c0.816,2.81,1.787,5.567,2.605,8.378l-6.898-5.058l-6.896,5.058
		c0.817-2.811,1.84-5.568,2.605-8.43c-2.197-1.737-4.444-3.371-6.641-5.109h8.225c0.971-2.758,1.736-5.567,2.656-8.378l2.659,8.378
		H161.469L161.469,713.709z"/>
	<path fill="#231F20" d="M114.775,762.191l70.436-0.024c0.156,1.327-0.049,2.81,0,4.188l16.924-3.425l0.205-0.151
		c0.971-3.271,1.889-6.539,2.76-9.811c-1.328-1.072-2.096-2.555-2.352-4.139c-0.307-2.452,0.512-4.751,2.352-6.232l-2.811-9.858
		l-17.078-3.524v4.291l-70.436,0.026v-4.292l-17.114,3.628l-2.76,9.758c1.176,0.868,1.891,2.146,2.248,3.473
		c0.664,2.558-0.204,5.365-2.248,6.897l2.76,9.91l17.114,3.523V762.191L114.775,762.191z"/>
	<path fill="#FFFFFF" d="M133.831,739.305c0.408,0.408,0.562,0.868,0.562,1.432c-0.103,0.512-0.204,1.021-0.663,1.38
		c-0.461,0.46-1.125,0.61-1.789,0.46c-0.511-0.104-1.021-0.51-1.276-0.972c-0.358-0.663-0.308-1.584,0.203-2.146
		c0.358-0.46,0.92-0.664,1.431-0.767C132.911,738.691,133.421,738.947,133.831,739.305L133.831,739.305z"/>
	<path fill="#FFFFFF" d="M165.352,739.049c0.254,0,0.309,0.309,0.408,0.461c0,2.503-0.051,5.059,0.051,7.562
		c0.818-0.719,1.688-1.433,2.352-2.248c-0.104-0.309-0.512-0.256-0.664-0.562c-0.053-0.408-0.016-0.686,0.189-0.99h4.797
		c0.307,0.256,0.432,0.53,0.275,0.938c-0.256,0.256-0.664,0.152-0.92,0.46c-0.869,0.817-1.84,1.43-2.453,2.452
		c0.922,1.939,1.941,3.832,3.117,5.671c0.41,0.256,1.176,0.307,1.125,0.919c-0.053,0.613-0.193,1.061-1.072,1.061h-2.912
		c-1.074-1.737-1.994-3.512-3.016-5.196l-0.818,0.766c-0.15,0.921-0.15,2.044,0.613,2.657c0.205,0.104,0.459,0.152,0.613,0.408
		c0,0.512,0.053,1.059-0.408,1.365h-5.365c-0.307-0.357-0.355-0.805-0.307-1.313c0.307-0.46,1.049-0.562,1.201-1.125V741.3
		c-0.104-0.664-0.895-0.767-1.201-1.226c0-0.358-0.102-0.817,0.205-1.022L165.352,739.049L165.352,739.049z"/>
	<path fill="#FFFFFF" d="M116.563,751.729c0.05,0.462-0.052,1.072,0.459,1.277c0.461,0.256,1.125,0.459,0.972,1.175
		c-0.103,0.203-0.053,0.475-0.307,0.574h-6.284c-0.408-0.255-0.204-0.779-0.204-1.188c0.356-0.357,1.021-0.308,1.227-0.868
		c0.102-1.688,0.306-3.423,0.153-5.109l-0.205-0.255h-3.27l-0.255,0.306c-0.153,1.738,0.051,3.425,0.152,5.11
		c0.307,0.511,0.971,0.459,1.277,0.919c-0.051,0.357,0.103,0.665-0.102,0.97l-0.256,0.115h-6.182
		c-0.409-0.307-0.204-0.829-0.153-1.238c0.408-0.355,1.048-0.407,1.251-0.971v-11.392c-0.306-0.461-0.894-0.514-1.251-0.818
		c-0.051-0.409-0.204-0.971,0.204-1.278h5.978c0.306,0.31,0.204,0.869,0.153,1.229c-0.307,0.356-0.868,0.356-1.021,0.87
		c-0.103,1.274-0.154,2.399-0.051,3.678l0.204,0.204h3.32l0.205-0.204c0.102-1.328,0.05-2.504-0.104-3.782
		c-0.204-0.51-0.816-0.407-1.021-0.918c0.05-0.356-0.103-0.817,0.254-1.074h5.979c0.407,0.31,0.254,0.921,0.153,1.33
		c-0.409,0.255-1.073,0.357-1.277,0.919v10.422h0.002V751.729z"/>
	<path fill="#FFFFFF" d="M128.416,745.384c0.357,0.613,0.767,1.433,0.459,2.197c-1.89,1.89-4.443,2.299-6.845,3.116
		c-0.153,0.204-0.104,0.459,0,0.664c0.511,0.815,1.379,1.48,2.401,1.379c1.43,0.052,2.45-0.919,3.524-1.787
		c0.46-0.153,0.766,0.203,1.073,0.46c0.204,0.204,0.204,0.562,0.101,0.816c-1.225,1.891-3.32,2.81-5.567,2.759
		c-2.351,0-4.649-1.84-5.364-3.985c-0.715-2.604-0.104-5.414,2.095-7.051c1.584-1.276,4.24-1.531,5.977-0.458
		C127.086,743.952,127.853,744.566,128.416,745.384L128.416,745.384z"/>
	<path fill="#FFFFFF" d="M184.256,746.354c0.152,0.31,0.152,0.77,0.049,1.125c-0.867,1.178-2.248,1.584-3.422,2.097l-3.422,1.072
		c-0.258,0.152-0.154,0.511-0.104,0.663c0.461,0.816,1.328,1.481,2.301,1.432c1.531,0.104,2.604-0.816,3.678-1.787
		c0.51-0.153,0.92,0.255,1.225,0.612c-0.102,1.789-2.094,2.708-3.473,3.219c-2.555,0.766-5.008-0.153-6.643-2.146
		c-1.582-1.839-1.43-4.956-0.307-6.999c1.328-2.096,3.729-3.271,6.23-2.654C182.006,743.392,183.693,744.669,184.256,746.354
		L184.256,746.354z"/>
	<path fill="#FFFFFF" d="M159.986,745.589c0.205,0.51,0.613,1.072,0.461,1.736c-1.021,1.635-2.861,1.938-4.393,2.604l-2.506,0.769
		c-0.256,0.15-0.104,0.562,0,0.767c0.459,0.768,1.277,1.328,2.246,1.328c1.48,0.052,2.504-0.868,3.578-1.789
		c0.51-0.203,0.969,0.205,1.273,0.562c0.154,1.327-1.273,2.044-2.145,2.655c-1.584,0.918-3.934,1.124-5.619,0.308
		c-1.941-0.919-3.423-2.86-3.475-5.007c-0.101-2.451,0.817-4.751,3.014-5.979c1.328-0.766,3.219-0.918,4.701-0.354
		C158.25,743.646,159.375,744.465,159.986,745.589L159.986,745.589z"/>
	<path fill="#FFFFFF" d="M195.238,743.801c0.408,0.562,0.561,1.175,0.664,1.839v6.948c0.355,0.714,0.768-0.356,1.277-0.052
		c0.355,0.204,0.406,0.612,0.307,0.92c-0.459,0.971-1.533,1.38-2.502,1.481c-0.922-0.104-1.957-0.357-2.416-1.328
		c-0.41-2.401,0.014-5.16-0.344-7.664c-0.154-0.255-0.461-0.513-0.818-0.513c-0.561,0.054-1.072,0.409-1.379,0.92
		c-0.307,2.046-0.307,4.395,0,6.388l0.92,0.716c-0.053,0.46,0.203,1.007-0.256,1.312h-5.467c-0.357-0.308-0.205-0.804-0.254-1.213
		c0.305-0.459,1.131-0.51,1.182-1.175l-0.008-6.794c0.053-0.512-0.562-0.817-0.869-1.176c-0.051-0.408-0.152-0.891,0.205-1.146
		l4.139,0.009c0.203,0.152,0.152,0.781,0.613,0.577C191.611,742.983,193.91,742.369,195.238,743.801L195.238,743.801z"/>
	<path fill="#FFFFFF" d="M146.783,743.801c0.408,0.562,0.562,1.175,0.664,1.839v6.948c0.357,0.714,0.767-0.356,1.278-0.052
		c0.357,0.204,0.407,0.612,0.306,0.92c-0.46,0.971-1.533,1.38-2.504,1.481c-0.919-0.104-1.955-0.357-2.415-1.328
		c-0.409-2.401,0.015-5.16-0.344-7.664c-0.152-0.255-0.459-0.513-0.817-0.513c-0.562,0.054-1.072,0.409-1.379,0.92
		c-0.306,2.046-0.306,4.395,0,6.388l0.92,0.716c-0.051,0.46,0.204,1.007-0.256,1.312h-5.467c-0.357-0.308-0.204-0.804-0.255-1.213
		c0.307-0.459,1.131-0.51,1.182-1.175l-0.007-6.794c0.052-0.512-0.562-0.817-0.868-1.176c-0.052-0.408-0.153-0.891,0.204-1.146
		l4.138,0.009c0.205,0.152,0.153,0.781,0.614,0.577C143.155,742.983,145.455,742.369,146.783,743.801L146.783,743.801z"/>
	<path fill="#FFFFFF" d="M134.545,743.576v8.5c-0.204,0.768,0.665,1.021,1.073,1.38c0,0.408,0.153,0.92-0.103,1.227l-0.204,0.087
		h-5.364c-0.357-0.307-0.204-0.803-0.256-1.212c0.307-0.51,1.125-0.51,1.125-1.227l0.05-6.691c-0.05-0.46-0.612-0.664-0.919-1.071
		c0-0.408-0.153-1.041,0.255-1.299h4.087L134.545,743.576L134.545,743.576z"/>
	<path fill="#231F20" d="M125.094,745.741c0.256,0.512,0.562,1.38,0.103,1.891c-0.869,0.613-1.891,0.869-2.912,1.073
		c-0.716-0.051-0.46-0.869-0.613-1.278c0.051-0.97,0.358-1.89,1.072-2.451C123.51,744.566,124.736,744.771,125.094,745.741
		L125.094,745.741z"/>
	<path fill="#231F20" d="M179.861,744.976c0.613,0.562,0.971,1.277,0.92,2.146c-0.154,0.815-1.074,0.92-1.637,1.226
		c-0.662,0.054-1.531,0.769-1.992,0c-0.152-1.226-0.104-2.604,0.971-3.371C178.635,744.72,179.35,744.72,179.861,744.976
		L179.861,744.976z"/>
	<path fill="#231F20" d="M155.9,744.976c0.715,0.613,1.072,1.481,0.92,2.352c-0.256,0.611-0.971,0.767-1.533,1.021
		c-0.664,0-1.533,0.817-2.043,0c-0.205-1.226-0.051-2.654,1.072-3.371C154.725,744.72,155.492,744.72,155.9,744.976L155.9,744.976z"
		/>
	<path fill="#231F20" d="M112.22,763.315l-11.597-2.386c3.832-0.051,7.714,0,11.597,0V763.315L112.22,763.315z"/>
	<path fill="#FFFFFF" d="M196.715,741.775c1.369,0,2.482-1.112,2.482-2.483s-1.113-2.483-2.482-2.483
		c-1.373,0-2.486,1.112-2.486,2.483S195.342,741.775,196.715,741.775L196.715,741.775z"/>
	<path fill="#231F20" d="M194.74,739.292c0-0.526,0.205-1.021,0.578-1.396c0.373-0.372,0.867-0.576,1.396-0.576
		c0.524,0,1.021,0.204,1.396,0.576c0.371,0.372,0.576,0.867,0.576,1.396c0,1.088-0.886,1.973-1.972,1.973
		c-0.528,0-1.022-0.205-1.396-0.577C194.945,740.312,194.74,739.819,194.74,739.292L194.74,739.292z"/>
	<path fill="#FFFFFF" d="M195.848,738.045h1.209c0.637,0,0.752,0.47,0.752,0.676c0,0.266-0.133,0.488-0.369,0.569
		c0.197,0.087,0.307,0.16,0.307,0.604c0,0.352,0,0.438,0.104,0.479v0.062h-0.553c-0.033-0.11-0.053-0.234-0.053-0.481
		c0-0.325-0.021-0.451-0.391-0.451h-0.518v0.935h-0.488V738.045L195.848,738.045z M196.924,739.097c0.26,0,0.387-0.09,0.387-0.325
		c0-0.128-0.057-0.312-0.35-0.312h-0.623v0.64L196.924,739.097L196.924,739.097z"/>
</g>
<g>
	<path fill="#FFFFFF" d="M142.096,1048.515c-1.139,3.7-2.348,7.401-3.417,11.171c0.073,0.569,0.286,1.065,0.855,1.424
		c0.356,0.214,0.853,0.354,1.279,0.144c3.131-2.063,6.118-4.553,9.249-6.618l8.68,6.405c0.499,0.354,1.209,0.354,1.708,0.069
		c0.565-0.356,0.853-0.995,0.782-1.565l-3.344-10.954c2.135-1.921,4.553-3.63,6.826-5.406c0.855-0.854,2.773-1.353,2.278-2.988
		c-0.146-0.426-0.569-0.834-0.996-0.979c-3.7-0.144-7.472,0.145-11.099,0l-3.485-11.047c-0.214-0.568-0.854-0.922-1.496-0.922
		c-0.496,0-0.996,0.213-1.278,0.64l-3.627,11.329c-3.774,0.069-7.471-0.144-11.102,0c-0.353,0.145-0.709,0.407-0.853,0.834
		c-0.282,0.499-0.069,1.141,0.144,1.565L142.096,1048.515z M146.223,1040.691c1.352-3.846,2.418-7.756,3.696-11.669l3.7,11.669
		h11.598l-9.249,7.184c1.14,3.914,2.491,7.754,3.628,11.667l-9.604-7.042l-9.605,7.042c1.14-3.913,2.562-7.753,3.631-11.736
		c-3.061-2.42-6.191-4.694-9.249-7.112L146.223,1040.691L146.223,1040.691z"/>
	<path fill="#CE2828" d="M140.387,1059.542l9.605-7.042l9.604,7.042c-1.137-3.913-2.488-7.753-3.628-11.667l9.249-7.184h-11.598
		l-3.7-11.669c-1.278,3.913-2.345,7.823-3.696,11.669h-11.454c3.058,2.418,6.188,4.692,9.249,7.112
		C142.948,1051.789,141.526,1055.629,140.387,1059.542z"/>
</g>
</svg>
