<?xml version="1.0" encoding="utf-8"?>
<!-- Generator: Adobe Illustrator 15.0.0, SVG Export Plug-In . SVG Version: 6.00 Build 0)  -->
<!DOCTYPE svg PUBLIC "-//W3C//DTD SVG 1.1//EN" "http://www.w3.org/Graphics/SVG/1.1/DTD/svg11.dtd">
<svg version="1.1" id="Layer_1" xmlns="http://www.w3.org/2000/svg" xmlns:xlink="http://www.w3.org/1999/xlink" x="0px" y="0px"
	 width="300px" height="1200px" viewBox="0 0 300 1200" enable-background="new 0 0 300 1200" xml:space="preserve">
<rect x="334.182" y="1.273" fill="none" stroke="#70706E" stroke-width="0.7484" stroke-miterlimit="10" width="299.371" height="299.363"/>
<rect x="334.182" y="300.637" fill="none" stroke="#70706E" stroke-width="0.7484" stroke-miterlimit="10" width="299.371" height="299.362"/>
<rect x="334.182" y="600.001" fill="none" stroke="#70706E" stroke-width="0.7484" stroke-miterlimit="10" width="299.371" height="299.362"/>
<rect x="334.182" y="899.363" fill="none" stroke="#70706E" stroke-width="0.7484" stroke-miterlimit="10" width="299.371" height="299.363"/>
<g>
	<path d="M109.262,407.667c3.495,0,6.99,0,10.487,0c-0.456,6.387-0.755,12.209-1.25,18.602c1.388-2.955,2.455-6.093,3.621-9.238
		c1.155-3.105,2.371-6.251,3.497-9.362c3.285,0,6.572,0,9.861,0c-5.153,14.113-10.477,28.062-15.729,42.074
		c-3.538,0-7.076,0-10.61,0c0.269-6.266,0.823-12.243,1.122-18.479c-2.437,6.054-4.635,12.346-6.991,18.479
		c-3.289,0-6.575,0-9.862,0C98.667,435.69,103.83,421.546,109.262,407.667z"/>
	<path d="M136.979,407.667c3.287,0,6.576,0,9.862,0c-5.271,14-10.593,27.942-15.731,42.075c-3.328,0-6.657,0-9.986,0
		C126.428,435.736,131.581,421.579,136.979,407.667z"/>
	<path d="M185.298,431.265h-9.488l-3.996,10.363c3.871,0,7.74,0,11.611,0c-0.398,1.016-0.757,2.072-1.123,3.12
		c11.235-2.696,22.676-6.15,34.084-9.113c1.91-0.496,3.869-0.986,5.744-1.498c1.857-0.509,3.668-1.324,5.618-1.25
		c-0.261,1.016-1.511,1.058-2.249,1.373c-25.213,10.812-50.661,22.152-76.035,33.086c-6.496,2.799-13.075,5.64-19.726,8.487
		c-6.551,2.806-13.172,5.693-19.852,8.367c-6.337,2.534-15.017,5.605-23.226,3.995c-3.689-0.724-6.955-2.288-9.611-4.495
		c-2.594-2.151-4.454-5.257-4.745-9.239c-0.337-4.639,0.984-8.831,2.373-12.358c4.105-10.432,10.915-18.516,17.229-26.594
		c-2.124,5.123-5.374,12.35-3.247,19.354c2.054,6.765,8.396,10.63,17.729,10.112c2.569-0.143,5.002-0.945,7.492-1.622
		c16.374-4.456,34.18-9.165,50.19-13.484c-4.453-0.292-9.446-0.041-14.111-0.124c-0.157-6.059-0.25-11.737-0.499-17.479
		c-2.264,5.768-4.505,11.56-6.617,17.479c-3.328,0-6.658,0-9.988,0c5.193-14.035,10.48-27.975,15.607-42.075
		c3.371,0,6.742,0,10.115,0c-1.619,4.083-3.142,8.264-4.745,12.36c3.453-3.616,6.861-8.43,10.486-12.36c10.074,0,20.144,0,30.216,0
		c-0.722,2.402-1.772,4.472-2.498,6.867c-3.328,0-6.657,0-9.986,0l-3.497,8.988c3.205,0,6.409,0,9.614,0L185.298,431.265z
		 M159.205,425.271l0.748,21.476c4.717-12.722,9.534-25.342,14.233-38.08c-0.009-0.076-0.02-0.148-0.127-0.125L159.205,425.271z"/>
</g>
<g>
	<path d="M131.285,714.727c2.228,0,4.452,0,6.679,0c-0.29,4.065-0.48,7.771-0.796,11.843c0.884-1.882,1.562-3.88,2.308-5.882
		c0.732-1.979,1.508-3.979,2.226-5.961c2.092,0,4.185,0,6.278,0c-3.28,8.985-6.672,17.865-10.016,26.787c-2.251,0-4.506,0-6.757,0
		c0.172-3.988,0.524-7.794,0.716-11.765c-1.551,3.854-2.951,7.86-4.451,11.765c-2.095,0-4.188,0-6.281,0
		C124.541,732.567,127.826,723.562,131.285,714.727z"/>
	<path d="M172.475,729.751h-6.043l-2.543,6.597c2.465,0,4.928,0,7.395,0c-0.256,0.647-0.482,1.319-0.717,1.987
		c7.154-1.719,14.437-3.916,21.701-5.804c1.215-0.315,2.463-0.629,3.654-0.953c1.184-0.323,2.335-0.844,3.577-0.796
		c-0.166,0.647-0.961,0.674-1.431,0.874c-16.053,6.884-32.256,14.104-48.409,21.064c-4.138,1.782-8.325,3.592-12.56,5.405
		c-4.17,1.783-8.385,3.624-12.639,5.325c-4.034,1.613-9.562,3.569-14.785,2.543c-2.35-0.46-4.429-1.456-6.121-2.86
		c-1.65-1.37-2.836-3.349-3.021-5.882c-0.214-2.954,0.627-5.624,1.51-7.87c2.616-6.644,6.951-11.788,10.972-16.933
		c-1.354,3.262-3.423,7.862-2.067,12.32c1.308,4.308,5.346,6.769,11.288,6.439c1.635-0.092,3.184-0.604,4.768-1.033
		c10.426-2.837,21.762-5.835,31.958-8.585c-2.838-0.187-6.017-0.026-8.985-0.079c-0.101-3.855-0.158-7.474-0.316-11.128
		c-1.439,3.672-2.867,7.358-4.212,11.128c-2.12,0-4.24,0-6.361,0c3.308-8.937,6.675-17.811,9.938-26.787c2.146,0,4.292,0,6.439,0
		c-1.031,2.6-1.999,5.26-3.021,7.869c2.197-2.303,4.369-5.369,6.679-7.869c6.411,0,12.823,0,19.233,0
		c-0.457,1.528-1.127,2.845-1.59,4.37c-2.117,0-4.236,0-6.358,0l-2.226,5.725c2.039,0,4.08,0,6.121,0L172.475,729.751z
		 M155.861,725.934l0.476,13.672c3.004-8.099,6.07-16.134,9.062-24.244c-0.006-0.047-0.012-0.094-0.078-0.079L155.861,725.934z"/>
</g>
<path d="M133.431,1068.937c-2.619,1.047-6.205,2.316-9.597,1.649c-1.522-0.298-2.871-0.944-3.972-1.856
	c-1.071-0.89-1.84-2.171-1.961-3.816c-0.137-1.916,0.408-3.646,0.98-5.107c1.694-4.309,4.512-7.648,7.118-10.984
	c-0.877,2.115-2.22,5.102-1.34,7.994c0.848,2.795,3.467,4.393,7.323,4.178c1.061-0.058,2.065-0.391,3.097-0.671l47.04-12.586
	L133.431,1068.937z"/>
<g>
	<g>
		<g>
			<path d="M95.266,96.293c4.697,0,9.394,0,14.092,0c-0.612,8.58-1.014,16.4-1.678,24.992c1.86-3.971,3.295-8.187,4.862-12.412
				c1.552-4.173,3.183-8.398,4.696-12.579c4.419,0,8.836,0,13.253,0c-6.927,18.961-14.075,37.701-21.136,56.528
				c-4.754,0-9.506,0-14.258,0c0.363-8.417,1.109-16.45,1.511-24.825c-3.273,8.132-6.226,16.587-9.394,24.825
				c-4.417,0-8.834,0-13.251,0C81.029,133.944,87.968,114.938,95.266,96.293z"/>
			<path d="M132.504,96.293c4.417,0,8.835,0,13.253,0c-7.08,18.808-14.232,37.543-21.136,56.528c-4.474,0-8.947,0-13.42,0
				C118.327,134.003,125.25,114.983,132.504,96.293z"/>
			<path d="M197.422,127.998h-12.749l-5.367,13.922c5.198,0,10.399,0,15.601,0c-0.536,1.366-1.017,2.786-1.511,4.194
				c15.097-3.624,30.465-8.264,45.797-12.245c2.562-0.667,5.199-1.325,7.716-2.014c2.496-0.682,4.927-1.779,7.548-1.677
				c-0.35,1.365-2.027,1.421-3.02,1.845c-33.877,14.527-68.067,29.763-102.157,44.452c-8.728,3.759-17.567,7.58-26.503,11.406
				c-8.797,3.768-17.695,7.648-26.67,11.239c-8.512,3.405-20.175,7.533-31.199,5.367c-4.959-0.972-9.346-3.074-12.916-6.038
				c-3.485-2.893-5.984-7.062-6.375-12.414c-0.454-6.229,1.322-11.864,3.188-16.606c5.515-14.016,14.664-24.876,23.146-35.729
				c-2.854,6.882-7.219,16.593-4.361,26c2.759,9.089,11.279,14.282,23.819,13.587c3.451-0.19,6.719-1.27,10.063-2.181
				c22-5.984,45.922-12.312,67.433-18.116c-5.982-0.39-12.692-0.053-18.954-0.166c-0.212-8.138-0.337-15.768-0.674-23.485
				c-3.039,7.75-6.051,15.531-8.889,23.485c-4.474,0-8.945,0-13.42,0c6.978-18.855,14.081-37.584,20.969-56.528
				c4.528,0,9.058,0,13.586,0c-2.174,5.485-4.219,11.101-6.373,16.605c4.637-4.858,9.22-11.326,14.091-16.605
				c13.528,0,27.062,0,40.594,0c-0.967,3.227-2.381,6.004-3.356,9.225c-4.474,0-8.943,0-13.418,0l-4.697,12.076
				c4.307,0,8.609,0,12.916,0L197.422,127.998z M162.362,119.945l1.006,28.851c6.338-17.089,12.811-34.046,19.124-51.162
				c-0.011-0.101-0.024-0.198-0.169-0.167L162.362,119.945z"/>
		</g>
	</g>
	<g>
		<path fill="none" d="M217.875,177.588c1.076,0,1.979-0.146,2.688-0.439c0.699-0.289,1.295-0.708,1.775-1.245
			c0.492-0.55,0.922-1.246,1.276-2.063c0.366-0.844,0.714-1.841,1.034-2.959c0.32-1.12,0.545-2.114,0.662-2.952
			c0.109-0.788,0.063-1.458-0.133-1.995c-0.185-0.496-0.527-0.855-1.049-1.101c-0.568-0.265-1.42-0.399-2.529-0.399h-3.01
			l-3.77,13.151L217.875,177.588L217.875,177.588z"/>
		<polygon fill="none" points="180.183,173.146 173.623,186.801 178.915,186.801 		"/>
		<path d="M181.582,157.391l-23.552,46.176h7.551l4.691-9.719h8.014l-0.881,9.719h7.443l2.928-46.176H181.582L181.582,157.391z
			 M180.183,173.146l-1.268,13.654h-5.292L180.183,173.146z"/>
		<polygon points="200.381,157.391 187.14,203.565 194.606,203.565 207.847,157.391 		"/>
		<path d="M231.531,160.303c-1.456-1.932-4.017-2.912-7.608-2.912h-10.775l-13.239,46.176h7.466l5.537-19.309h3.055l0.494,19.309
			h7.825l-1.077-20.831c2.331-1.158,4.195-2.686,5.547-4.55c1.393-1.922,2.484-4.248,3.25-6.914
			C233.431,166.303,233.271,162.61,231.531,160.303z M221.603,164.438c1.108,0,1.959,0.135,2.528,0.399
			c0.521,0.245,0.864,0.604,1.048,1.101c0.197,0.536,0.242,1.207,0.133,1.994c-0.117,0.837-0.34,1.832-0.662,2.952
			c-0.319,1.118-0.668,2.114-1.033,2.959c-0.354,0.817-0.784,1.513-1.277,2.063c-0.479,0.537-1.076,0.956-1.775,1.245
			c-0.707,0.293-1.61,0.439-2.688,0.439h-3.053l3.771-13.151L221.603,164.438L221.603,164.438z"/>
	</g>
</g>
</svg>
