<?xml version="1.0" encoding="utf-8"?>
<!-- Generator: Adobe Illustrator 15.0.0, SVG Export Plug-In . SVG Version: 6.00 Build 0)  -->
<!DOCTYPE svg PUBLIC "-//W3C//DTD SVG 1.1//EN" "http://www.w3.org/Graphics/SVG/1.1/DTD/svg11.dtd">
<svg version="1.1" id="Layer_1" xmlns="http://www.w3.org/2000/svg" xmlns:xlink="http://www.w3.org/1999/xlink" x="0px" y="0px"
	 width="300px" height="1200px" viewBox="0 0 300 1200" enable-background="new 0 0 300 1200" xml:space="preserve">
<g>
	<path fill="#CE2828" d="M129.022,439.052c-3.233,0-4.43,2.736-4.43,3.9c0.726,0,9.285,0,9.285,0
		C133.904,440.818,132.255,439.052,129.022,439.052z"/>
	<path fill="#CE2828" d="M201.938,423.226h3.369c1.65,0,2.824-0.85,2.824-2.273c0-0.65-0.24-1.171-0.678-1.541h-5.516V423.226
		L201.938,423.226z"/>
	<path fill="#CE2828" d="M213.527,419.409c0.611,1.286,0.963,2.719,0.963,4.234c0,5.476-4.453,9.93-9.928,9.93
		c-5.476,0-9.931-4.454-9.931-9.93c0-1.517,0.353-2.945,0.964-4.233l-117.778,0.006l13.234,58.855
		c8.123-5.343,18.329-8.533,29.426-8.533c11.141,0,21.383,3.216,29.52,8.596c8.137-5.38,18.381-8.596,29.52-8.596
		c11.099,0,21.306,3.19,29.428,8.533l13.236-58.863L213.527,419.409z M115.882,455.144h-2.977h-2.626H97.447l-0.03-19.358h7.818
		v14.438h5.044h2.626h2.977V455.144L115.882,455.144z M130.122,451.685c3.03,0,4.039-1.551,4.189-2.107c1.468,0,6.288,0,7.116,0
		c-0.319,1.575-1.681,2.846-2.909,3.727c-2.96,2.107-7.549,2.4-9.043,2.4c-0.134,0-0.267,0-0.4,0
		c-6.751-0.318-12.708-2.741-12.708-10.363c0-9.194,10.252-10.472,12.573-10.447c0.028,0,0.082,0,0.135,0
		c3.176,0.056,6.91,0.723,9.443,3.441c1.683,1.789,2.83,4.727,2.909,8.702c0,0-16.069,0.023-16.835,0.023
		C124.593,449.897,127.093,451.685,130.122,451.685z M157.139,455.144h-1.457h-5.172l-10.925-19.035l-0.151-0.244h0.151h8.869
		l6.665,12.219l6-12.279h6.092L157.139,455.144z M175.889,455.142h-7.742v-19.356h7.742V455.142z M182.262,437.519
		c-0.117,1.101-0.9,2.073-1.967,2.5c-0.312,0.115-0.707,0.179-1.15,0.16v-0.807c1.263,0,1.199-1.574,1.101-1.937h-2.543v-3.469
		h2.594h1.968v3.552H182.262z M192.867,455.598c-6.332,0-9.461-2.381-9.799-6.143c3.27,0,2.402,0.026,5.646,0.054
		c0.584,2.472,1.979,2.916,4.8,2.891c1.436,0.107,3.508-0.687,3.508-2.058c0-1.33-1.41-1.732-4.519-2.419
		c-4.719-1.042-9.84-1.976-9.84-5.772c0-4.714,6.394-7.284,11.392-7.1c0.106,0,0.213,0,0.319,0c7.123,0,9.588,4.194,9.588,6.091
		l-5.767,0.054c-0.36-2.069-2.12-2.389-4.274-2.603c-0.187-0.024-0.371-0.024-0.56-0.024c-2.047,0-3.627,0.548-3.602,2.009
		c0.025,1.462,2.48,1.905,4.662,2.063c0.293,0.026,10.018,0.807,10.018,6.09C204.441,453.811,199.199,455.598,192.867,455.598z"/>
	<path fill="#CE2828" d="M209.387,420.903c0,1.836-1.256,2.899-2.979,3.216l3.37,4.482h-1.52l-3.186-4.265h-3.135v4.265h-1.24
		v-9.191h-3.732c-0.701,1.255-1.105,2.697-1.105,4.234c0,4.8,3.904,8.702,8.703,8.702s8.701-3.902,8.701-8.702
		c0-1.537-0.404-2.98-1.104-4.235l-3.144,0.001C209.25,419.847,209.387,420.344,209.387,420.903z"/>
	<polygon fill="#FFFFFF" points="110.279,450.222 105.235,450.222 105.235,435.784 97.417,435.784 97.447,455.144 110.279,455.144 
		112.905,455.144 115.882,455.144 115.882,450.222 112.905,450.222 	"/>
	<path fill="#FFFFFF" d="M138.519,438.334c-2.533-2.72-6.268-3.387-9.443-3.441c-0.053,0-0.106,0-0.135,0
		c-2.321-0.023-12.573,1.254-12.573,10.447c0,7.622,5.957,10.045,12.708,10.363c0.134,0,0.267,0,0.4,0
		c1.494,0,6.083-0.293,9.043-2.4c1.229-0.881,2.59-2.15,2.909-3.727c-0.828,0-5.648,0-7.116,0c-0.15,0.558-1.159,2.107-4.189,2.107
		c-3.029,0-5.529-1.786-5.529-4.624c0.766,0,16.835-0.023,16.835-0.023C141.349,443.061,140.201,440.123,138.519,438.334z
		 M124.593,442.952c0-1.164,1.196-3.9,4.43-3.9c3.232,0,4.882,1.768,4.855,3.9C133.878,442.952,125.318,442.952,124.593,442.952z"/>
	<path fill="#FFFFFF" d="M194.424,442.641c-2.182-0.158-4.637-0.603-4.662-2.063s1.555-2.009,3.602-2.009
		c0.188,0,0.373,0,0.56,0.024c2.154,0.214,3.914,0.532,4.275,2.603l5.766-0.054c0-1.896-2.465-6.091-9.588-6.091
		c-0.106,0-0.213,0-0.319,0c-4.998-0.186-11.392,2.386-11.392,7.1c0,3.798,5.121,4.73,9.84,5.772
		c3.106,0.687,4.519,1.089,4.519,2.419c0,1.371-2.072,2.165-3.508,2.058c-2.818,0.025-4.216-0.418-4.8-2.891
		c-3.243-0.026-2.377-0.054-5.646-0.054c0.338,3.762,3.467,6.143,9.799,6.143s11.574-1.787,11.574-6.867
		C204.441,443.446,194.717,442.667,194.424,442.641z"/>
	<path fill="#FFFFFF" d="M177.701,433.968v3.469h2.543c0.1,0.361,0.162,1.937-1.1,1.937v0.807c0.442,0.019,0.838-0.045,1.149-0.16
		c1.065-0.427,1.851-1.399,1.967-2.5v-3.551h-1.967L177.701,433.968L177.701,433.968z"/>
	<polygon fill="#FFFFFF" points="155.119,448.082 148.454,435.863 139.585,435.863 139.434,435.863 139.585,436.107 150.51,455.144 
		155.682,455.144 157.139,455.144 167.211,435.803 161.119,435.803 	"/>
	<rect x="168.146" y="435.784" fill="#FFFFFF" width="7.742" height="19.356"/>
	<path fill="#FFFFFF" d="M201.938,428.603v-4.265h3.136l3.186,4.265h1.521l-3.371-4.482c1.725-0.315,2.98-1.38,2.98-3.216
		c0-0.561-0.138-1.058-0.371-1.493h-1.562c0.438,0.37,0.678,0.891,0.678,1.541c0,1.425-1.174,2.273-2.824,2.273h-3.369v-3.814H200.7
		v9.191H201.938L201.938,428.603z"/>
	<path fill="#FFFFFF" d="M204.562,433.573c5.475,0,9.928-4.454,9.928-9.93c0-1.517-0.352-2.948-0.963-4.234h-1.369
		c0.701,1.255,1.105,2.698,1.105,4.234c0,4.801-3.902,8.703-8.701,8.703s-8.703-3.902-8.703-8.703c0-1.536,0.404-2.979,1.104-4.233
		h-1.369c-0.61,1.288-0.963,2.718-0.963,4.233C194.633,429.119,199.088,433.573,204.562,433.573z"/>
</g>
<g>
	<path fill="#CE2828" d="M138.692,744.388c-1.741,0-2.388,1.477-2.388,2.104c0.391,0,5.006,0,5.006,0
		C141.323,745.341,140.436,744.388,138.692,744.388z"/>
	<path fill="#CE2828" d="M111.09,733.804l7.134,31.728c4.378-2.88,9.879-4.601,15.862-4.601c6.005,0,11.527,1.734,15.913,4.634
		c4.388-2.899,9.907-4.634,15.914-4.634c5.981,0,11.483,1.719,15.862,4.601l7.135-31.731L111.09,733.804z M131.609,753.063h-1.605
		h-1.415h-6.917l-0.018-10.436h4.214v7.782h2.721h1.415h1.605V753.063z M139.285,751.198c1.633,0,2.178-0.836,2.259-1.136
		c0.791,0,3.391,0,3.836,0c-0.172,0.849-0.906,1.533-1.568,2.009c-1.597,1.136-4.069,1.294-4.876,1.294c-0.07,0-0.144,0-0.214,0
		c-3.64-0.171-6.852-1.477-6.852-5.586c0-4.956,5.525-5.645,6.778-5.632c0.015,0,0.042,0,0.072,0c1.711,0.03,3.724,0.389,5.09,1.856
		c0.905,0.964,1.525,2.547,1.568,4.69c0,0-8.663,0.014-9.075,0.014C136.305,750.235,137.651,751.198,139.285,751.198z
		 M153.848,753.063h-0.784h-2.789l-5.889-10.262l-0.082-0.131h0.082h4.781l3.594,6.586l3.233-6.62h3.285L153.848,753.063z
		 M163.956,753.062h-4.175v-10.435h4.175V753.062z M167.392,743.562c-0.062,0.593-0.484,1.117-1.062,1.347
		c-0.168,0.064-0.38,0.097-0.617,0.088v-0.435c0.68,0,0.646-0.849,0.593-1.043h-1.373v-1.871h1.397h1.062V743.562z M173.108,753.309
		c-3.412,0-5.101-1.283-5.283-3.312c1.764,0,1.296,0.015,3.045,0.028c0.315,1.332,1.067,1.572,2.588,1.559
		c0.771,0.059,1.893-0.371,1.893-1.109c0-0.717-0.762-0.936-2.437-1.305c-2.543-0.562-5.305-1.065-5.305-3.112
		c0-2.541,3.447-3.926,6.141-3.826c0.059,0,0.114,0,0.172,0c3.838,0,5.168,2.262,5.168,3.282l-3.105,0.029
		c-0.197-1.116-1.146-1.288-2.307-1.402c-0.101-0.015-0.202-0.015-0.3-0.015c-1.104,0-1.956,0.297-1.943,1.084
		c0.015,0.787,1.338,1.027,2.514,1.111c0.158,0.016,5.399,0.437,5.399,3.283C179.348,752.346,176.522,753.309,173.108,753.309z"/>
	<polygon fill="#FFFFFF" points="128.589,750.41 125.868,750.41 125.868,742.628 121.654,742.628 121.672,753.063 128.589,753.063 
		130.004,753.063 131.609,753.063 131.609,750.41 130.004,750.41 	"/>
	<path fill="#FFFFFF" d="M143.812,744.001c-1.365-1.465-3.378-1.823-5.09-1.854c-0.029,0-0.059,0-0.072,0
		c-1.252-0.013-6.778,0.676-6.778,5.632c0,4.107,3.212,5.415,6.852,5.586c0.07,0,0.144,0,0.214,0c0.806,0,3.278-0.158,4.876-1.294
		c0.662-0.477,1.396-1.16,1.568-2.009c-0.445,0-3.046,0-3.836,0c-0.081,0.299-0.624,1.136-2.258,1.136s-2.981-0.963-2.981-2.493
		c0.412,0,9.075-0.013,9.075-0.013C145.337,746.55,144.718,744.966,143.812,744.001z M136.305,746.491
		c0-0.627,0.646-2.104,2.388-2.104c1.743,0,2.632,0.953,2.618,2.104C141.311,746.491,136.695,746.491,136.305,746.491z"/>
	<path fill="#FFFFFF" d="M173.948,746.323c-1.177-0.085-2.501-0.325-2.514-1.112c-0.015-0.788,0.838-1.084,1.942-1.084
		c0.099,0,0.2,0,0.301,0.014c1.16,0.115,2.109,0.288,2.306,1.403l3.106-0.028c0-1.022-1.33-3.283-5.169-3.283
		c-0.057,0-0.114,0-0.172,0c-2.694-0.099-6.141,1.287-6.141,3.826c0,2.048,2.761,2.55,5.305,3.112
		c1.674,0.369,2.437,0.587,2.437,1.305c0,0.738-1.12,1.168-1.894,1.109c-1.519,0.014-2.271-0.227-2.586-1.559
		c-1.75-0.015-1.281-0.028-3.046-0.028c0.183,2.027,1.87,3.312,5.283,3.312c3.415,0,6.24-0.965,6.24-3.703
		C179.348,746.758,174.105,746.338,173.948,746.323z"/>
	<path fill="#FFFFFF" d="M164.932,741.647v1.87h1.373c0.054,0.195,0.088,1.044-0.594,1.044v0.435
		c0.239,0.009,0.451-0.023,0.619-0.088c0.575-0.23,0.998-0.754,1.062-1.348v-1.914h-1.062L164.932,741.647L164.932,741.647z"/>
	<polygon fill="#FFFFFF" points="152.761,749.257 149.167,742.671 144.386,742.671 144.304,742.671 144.386,742.802 
		150.274,753.063 153.063,753.063 153.848,753.063 159.279,742.637 155.994,742.637 	"/>
	<rect x="159.781" y="742.628" fill="#FFFFFF" width="4.175" height="10.435"/>
</g>
<g>
	<g>
		<path fill="#CE2828" d="M129.981,1042.149l3.67,16.321c2.253-1.48,5.084-2.365,8.161-2.365c3.09,0,5.931,0.893,8.188,2.384
			c2.256-1.491,5.096-2.384,8.186-2.384c3.078,0,5.908,0.885,8.16,2.365l3.672-16.323L129.981,1042.149z"/>
	</g>
</g>
<g>
	<path fill="#231F20" d="M150.079,206.73c0,0,32.97-12.279,56.546-12.279c23.572,0,30.451-2.701,64.586,5.894l-7.859-27.505
		c0,0-17.682-5.893-56.727-5.893c0,0-32.664,0.98-56.546,10.559l-0.16-0.168c-23.882-9.577-56.544-10.561-56.544-10.561
		c-39.047,0-56.728,5.895-56.728,5.895l-7.858,27.504c34.134-8.596,41.011-5.894,64.586-5.894s56.544,12.278,56.544,12.278
		L150.079,206.73L150.079,206.73z"/>
	<path fill="#FFFFFF" d="M43.464,175.217l4.031-0.766l2.817,16.578l-3.486,0.615l-0.611-4.19l-3.671,0.655l-1.16,4.487l-3.349,0.581
		L43.464,175.217L43.464,175.217z M45.927,184.939l-0.779-6.991l-1.901,7.476L45.927,184.939L45.927,184.939z"/>
	<path fill="#FFFFFF" d="M56.829,172.975l-0.956,11.75c-0.179,2.41,0.131,3.408,1.931,3.195c1.777-0.211,2.189-1.32,2.319-3.754
		l0.711-11.703l2.866-0.368l-0.55,12.029c-0.063,1.667-0.154,2.925-0.979,4.085c-0.951,1.312-2.477,2.113-4.569,2.358
		c-4.089,0.477-5.228-1.065-4.867-5.19l1.159-12.029L56.829,172.975L56.829,172.975z"/>
	<polygon fill="#FFFFFF" points="69.419,174.494 66.058,174.727 66.301,171.84 75.778,171.17 75.683,174.059 72.335,174.292 
		71.661,188.916 68.521,189.117 	"/>
	<polygon fill="#FFFFFF" points="78.345,171.062 81.173,171.029 80.826,177.912 84.878,177.866 85.08,170.983 87.906,170.95 
		87.668,188.492 84.574,188.525 84.8,180.571 80.691,180.617 80.299,188.572 77.2,188.605 	"/>
	<polygon fill="#FFFFFF" points="91.828,171.05 99.688,171.621 99.641,174.531 94.527,174.165 94.343,178.217 99.205,178.557 
		99.144,181.327 94.213,180.988 93.974,185.809 99.531,186.182 99.46,189.139 90.73,188.559 	"/>
	<polygon fill="#FFFFFF" points="103.342,172.04 106.293,172.527 109.831,185.334 110.249,173.178 112.985,173.625 112.441,190.983 
		109.214,190.5 105.657,177.666 104.883,189.845 101.936,189.398 	"/>
	<polygon fill="#FFFFFF" points="119.06,177.854 115.646,177.042 115.854,174.217 125.594,176.546 125.518,179.371 122.052,178.559 
		121.181,192.863 117.985,192.158 	"/>
	<polygon fill="#FFFFFF" points="128.236,177.324 131.251,178.178 130.158,195.11 126.91,194.254 	"/>
	<path fill="#FFFFFF" d="M144.239,193.188c-0.016,0.22-0.006,0.427-0.021,0.649c-0.294,3.859-2.179,5.176-5.776,4.082
		c-1.657-0.508-2.813-1.254-3.598-2.416c-1.312-1.928-1.146-4.359-0.733-8.172c0.312-3.193,0.72-5.227,1.424-6.09
		c1.018-1.255,2.33-1.455,4.335-0.795c3.397,1.107,4.788,3.265,4.633,7.152l-3.104-0.984c0.009-0.135,0.017-0.268,0.024-0.4
		c0.107-1.796-0.424-2.871-1.632-3.263c-1.936-0.63-2.063,1.12-2.415,5.379c-0.445,4.655-0.636,6.452,1.378,7.076
		c1.576,0.485,2.072-0.435,2.291-2.983c0.005-0.066,0.014-0.156,0.019-0.223L144.239,193.188L144.239,193.188z"/>
	<polygon fill="#FFFFFF" points="154.271,180.763 163.143,177.982 163.205,180.813 157.443,182.604 157.461,186.7 163.014,185.007 
		163.123,187.767 157.502,189.463 157.729,197.076 154.279,198.072 	"/>
	<path fill="#FFFFFF" d="M167.213,178.625c1.047-1.92,2.305-2.799,4.373-3.331c2.059-0.53,3.297-0.288,4.33,1.116
		c0.777,1.047,1.125,3.271,1.273,6.729c0.178,3.436,0.033,5.816-0.688,7.244c-0.981,1.92-2.301,2.801-4.556,3.335
		c-2.266,0.536-3.645,0.296-4.771-1.104c-0.817-1.025-1.108-3.272-1.096-6.734C166.119,182.416,166.432,180.033,167.213,178.625
		L167.213,178.625z M171.871,191.095c2.254-0.54,2.262-2.573,2.094-7.152c-0.119-4.583-0.246-6.593-2.373-6.052
		c-2.143,0.544-2.238,2.601-2.225,7.186C169.428,189.659,169.586,191.641,171.871,191.095L171.871,191.095z"/>
	<path fill="#FFFFFF" d="M181.309,175.214c1-1.86,2.213-2.649,4.217-3.019c1.996-0.367,3.209-0.02,4.229,1.483
		c0.771,1.124,1.129,3.397,1.297,6.901c0.188,3.48,0.052,5.871-0.651,7.259c-0.963,1.86-2.252,2.651-4.459,3.024
		c-2.215,0.372-3.555,0.025-4.646-1.477c-0.791-1.099-1.07-3.398-1.057-6.906C180.27,178.972,180.559,176.58,181.309,175.214
		L181.309,175.214z M185.873,188.205c2.197-0.373,2.203-2.426,2.031-7.068c-0.143-4.643-0.283-6.688-2.353-6.311
		c-2.077,0.375-2.157,2.452-2.127,7.096C183.488,186.567,183.643,188.586,185.873,188.205L185.873,188.205z"/>
	<polygon fill="#FFFFFF" points="196.697,173.943 193.289,174.261 193.336,171.297 202.932,170.389 203.047,173.349 
		199.656,173.666 200.049,188.668 196.838,188.947 	"/>
	<polygon fill="#FFFFFF" points="204.996,170.242 207.996,170.252 209.963,183.906 211.934,170.268 214.336,170.275 217.18,184.182 
		218.236,170.289 221.23,170.299 219.346,188.275 215.541,188.271 213.293,176.899 211.715,188.267 207.891,188.261 	"/>
	<polygon fill="#FFFFFF" points="224.109,170.547 232.213,171.105 232.463,174.083 227.182,173.729 227.396,177.879 232.43,178.207 
		232.645,181.043 227.533,180.717 227.758,185.654 233.533,186.01 233.754,189.037 224.676,188.49 	"/>
	<path fill="#FFFFFF" d="M238.021,171.713l4.026,0.484l5.58,18.268l-3.571-0.383l-1.214-4.577l-3.7-0.411l-0.593,4.395l-3.344-0.363
		L238.021,171.713L238.021,171.713z M242.176,182.774l-1.939-7.626l-0.76,7.32L242.176,182.774L242.176,182.774z"/>
	<path fill="#FFFFFF" d="M248.607,173.082l5.522,1.018c3.354,0.611,4.935,2.203,5.345,5.487c0.271,2.3-0.437,3.487-2.017,3.444
		c2.472,1.048,2.562,2.308,2.881,4.596l0.336,2.363c0.164,1.159,0.439,2.012,1.189,2.781l-4.046-0.665
		c-0.303-0.79-0.426-1.69-0.541-2.799l-0.207-1.863c-0.016-0.164-0.026-0.304-0.043-0.468c-0.211-2.301-1.204-2.843-3.528-3.244
		l-1.112-0.194l0.506,7.751l-3.234-0.54L248.607,173.082L248.607,173.082z M254.061,181.424c1.861,0.326,2.418-0.223,2.217-2.195
		c-0.198-1.877-1.038-2.512-2.946-2.854l-1.539-0.28l0.412,5.002L254.061,181.424L254.061,181.424z"/>
	<g>
		<path fill="#CE2828" d="M127.95,113.278c-3.397,0-4.655,2.876-4.655,4.101c0.764,0,9.76,0,9.76,0
			C133.082,115.136,131.348,113.278,127.95,113.278z"/>
		<path fill="#CE2828" d="M204.588,96.645h3.541c1.734,0,2.969-0.893,2.969-2.391c0-0.684-0.254-1.23-0.713-1.619h-5.797V96.645z"/>
		<path fill="#CE2828" d="M216.77,92.634c0.642,1.352,1.013,2.858,1.013,4.452c0,5.754-4.683,10.435-10.437,10.435
			s-10.436-4.681-10.436-10.435c0-1.594,0.369-3.097,1.012-4.451L74.134,92.642l13.91,61.858c8.537-5.615,19.264-8.968,30.928-8.968
			c11.708,0,22.474,3.379,31.025,9.034c8.554-5.655,19.319-9.034,31.026-9.034c11.664,0,22.391,3.354,30.928,8.968l13.914-61.867
			L216.77,92.634z M114.141,130.192h-3.129h-2.761H94.765l-0.032-20.348h8.218v15.174h5.301h2.761h3.129L114.141,130.192
			L114.141,130.192z M129.106,126.556c3.185,0,4.245-1.629,4.403-2.215c1.543,0,6.609,0,7.479,0
			c-0.336,1.655-1.767,2.99-3.058,3.917c-3.11,2.215-7.934,2.523-9.505,2.523c-0.14,0-0.279,0-0.421,0
			c-7.095-0.334-13.355-2.881-13.355-10.892c0-9.664,10.774-11.006,13.215-10.98c0.029,0,0.085,0,0.141,0
			c3.338,0.058,7.264,0.759,9.926,3.618c1.769,1.88,2.975,4.967,3.058,9.146c0,0-16.89,0.026-17.694,0.026
			C123.295,124.679,125.922,126.556,129.106,126.556z M157.502,130.192h-1.531h-5.436l-11.482-20.008l-0.159-0.256h0.159h9.321
			l7.007,12.842l6.305-12.906h6.402L157.502,130.192z M177.209,130.189h-8.137v-20.345h8.137V130.189z M183.906,111.667
			c-0.121,1.156-0.945,2.179-2.066,2.628c-0.328,0.121-0.742,0.187-1.207,0.168v-0.848c1.324,0,1.258-1.655,1.154-2.035h-2.674
			v-3.646h2.727h2.066V111.667L183.906,111.667z M195.055,130.668c-6.654,0-9.943-2.501-10.299-6.455
			c3.436,0,2.525,0.027,5.934,0.056c0.615,2.599,2.082,3.065,5.043,3.038c1.511,0.114,3.688-0.721,3.688-2.162
			c0-1.398-1.481-1.822-4.746-2.543c-4.961-1.095-10.344-2.076-10.344-6.068c0-4.953,6.719-7.655,11.974-7.46
			c0.11,0,0.225,0,0.336,0c7.485,0,10.077,4.409,10.077,6.402l-6.059,0.056c-0.384-2.176-2.229-2.51-4.494-2.734
			c-0.197-0.027-0.394-0.027-0.588-0.027c-2.152,0-3.812,0.576-3.785,2.112c0.024,1.536,2.606,2.002,4.899,2.17
			c0.308,0.027,10.527,0.846,10.527,6.399C207.219,128.792,201.709,130.668,195.055,130.668z"/>
		<path fill="#CE2828" d="M212.418,94.205c0,1.93-1.32,3.048-3.135,3.379l3.545,4.713h-1.6l-3.347-4.482h-3.295v4.482h-1.305v-9.662
			h-3.923c-0.735,1.319-1.161,2.835-1.161,4.451c0,5.044,4.104,9.147,9.146,9.147c5.045,0,9.146-4.103,9.146-9.147
			c0-1.616-0.424-3.133-1.164-4.452l-3.301,0.001C212.273,93.094,212.418,93.616,212.418,94.205z"/>
		<polygon fill="#FFFFFF" points="108.251,125.018 102.95,125.018 102.95,109.844 94.732,109.844 94.765,130.192 108.251,130.192 
			111.012,130.192 114.141,130.192 114.141,125.018 111.012,125.018 		"/>
		<path fill="#FFFFFF" d="M137.932,112.525c-2.662-2.858-6.588-3.56-9.926-3.618c-0.056,0-0.111,0-0.141,0
			c-2.44-0.026-13.215,1.317-13.215,10.98c0,8.011,6.261,10.558,13.355,10.892c0.142,0,0.281,0,0.421,0
			c1.571,0,6.395-0.308,9.505-2.523c1.291-0.926,2.722-2.261,3.058-3.917c-0.87,0-5.937,0-7.479,0
			c-0.158,0.586-1.219,2.215-4.403,2.215s-5.812-1.877-5.812-4.859c0.805,0,17.694-0.026,17.694-0.026
			C140.906,117.492,139.7,114.405,137.932,112.525z M123.295,117.379c0-1.224,1.258-4.101,4.655-4.101s5.132,1.857,5.104,4.101
			C133.055,117.379,124.059,117.379,123.295,117.379z"/>
		<path fill="#FFFFFF" d="M196.691,117.051c-2.293-0.167-4.875-0.634-4.9-2.17c-0.027-1.536,1.633-2.112,3.785-2.112
			c0.195,0,0.391,0,0.588,0.027c2.264,0.225,4.111,0.559,4.494,2.734l6.059-0.056c0-1.993-2.592-6.402-10.078-6.402
			c-0.111,0-0.225,0-0.336,0c-5.254-0.195-11.973,2.507-11.973,7.46c0,3.992,5.383,4.973,10.344,6.068
			c3.264,0.721,4.746,1.145,4.746,2.543c0,1.44-2.178,2.275-3.688,2.162c-2.961,0.027-4.428-0.439-5.043-3.038
			c-3.408-0.028-2.498-0.056-5.935-0.056c0.354,3.954,3.646,6.455,10.3,6.455c6.653,0,12.163-1.877,12.163-7.218
			C207.219,117.897,196.998,117.079,196.691,117.051z"/>
		<path fill="#FFFFFF" d="M179.113,107.936v3.646h2.674c0.104,0.379,0.17,2.035-1.154,2.035v0.848
			c0.465,0.018,0.879-0.047,1.207-0.168c1.121-0.449,1.945-1.472,2.066-2.628v-3.731h-2.066h-2.727V107.936z"/>
		<polygon fill="#FFFFFF" points="155.381,122.771 148.374,109.928 139.053,109.928 138.894,109.928 139.053,110.184 
			150.535,130.192 155.971,130.192 157.502,130.192 168.088,109.864 161.686,109.864 		"/>
		<rect x="169.072" y="109.844" fill="#FFFFFF" width="8.137" height="20.345"/>
		<path fill="#FFFFFF" d="M204.588,102.297v-4.482h3.295l3.346,4.482h1.601l-3.545-4.713c1.813-0.332,3.135-1.45,3.135-3.379
			c0-0.588-0.146-1.11-0.392-1.569h-1.643c0.459,0.389,0.713,0.936,0.713,1.619c0,1.498-1.234,2.391-2.969,2.391h-3.541v-4.01
			h-1.305v9.662L204.588,102.297L204.588,102.297z"/>
		<path fill="#FFFFFF" d="M207.346,107.521c5.754,0,10.437-4.681,10.437-10.435c0-1.594-0.371-3.1-1.013-4.452h-1.44
			c0.739,1.318,1.164,2.836,1.164,4.452c0,5.044-4.103,9.147-9.146,9.147s-9.146-4.103-9.146-9.147c0-1.616,0.426-3.131,1.162-4.451
			h-1.439c-0.643,1.354-1.012,2.857-1.012,4.451C196.91,102.84,201.592,107.521,207.346,107.521z"/>
	</g>
</g>
</svg>
