<?xml version="1.0" standalone="no"?>
<!DOCTYPE svg PUBLIC "-//W3C//DTD SVG 1.1//EN" "http://www.w3.org/Graphics/SVG/1.1/DTD/svg11.dtd" >
<svg xmlns="http://www.w3.org/2000/svg">
<metadata>
This is a custom SVG webfont generated by Font Squirrel.
</metadata>
<defs>
<font id="webfont4pkURqFE" horiz-adv-x="259" >
<font-face units-per-em="1000" ascent="800" descent="-200" />
<missing-glyph horiz-adv-x="150" />
<glyph unicode=" "  horiz-adv-x="150" />
<glyph unicode="&#x09;" horiz-adv-x="150" />
<glyph unicode="&#xa0;" horiz-adv-x="150" />
<glyph unicode="!" horiz-adv-x="127" d="M236 767l-124 -616h-40l95 616h69zM113 29q-3 -18 -18.5 -28.5t-34.5 -10.5q-17 0 -28 14q-8 11 -8 23q0 22 20 37q15 11 35 11t29 -13q6 -9 6 -21q0 -6 -1 -12z" />
<glyph unicode="&#x22;" horiz-adv-x="193" d="M309 767l-52 -210h-30l22 210h60zM216 767l-52 -210h-30l22 210h60z" />
<glyph unicode="#" horiz-adv-x="351" d="M436 566l-10 -56h-72l-25 -64h62l-10 -56h-74l-28 -72h-57l28 72h-55l-28 -72h-57l28 72h-59l10 56h71l25 64h-61l10 56h73l32 82h57l-32 -82h55l32 82h57l-32 -82h60zM297 510h-55l-25 -64h55z" />
<glyph unicode="$" horiz-adv-x="296" d="M375 619l-22 -120h-62l26 147q3 14 3 25q0 37 -28 48l-55 -316q11 -12 15 -17t14 -16.5t14 -18.5t11.5 -19t10.5 -22l5 -22q3 -13 3 -26.5t-3 -27.5l-16 -87q-15 -81 -43 -118t-85 -41l-9 -52h-33l9 52q-58 4 -74 42q-8 19 -8 50q0 28 7 67l20 109h62l-24 -136 q-2 -14 -2 -25q0 -40 30 -49l53 300q-28 35 -41.5 54t-24.5 57q-8 24 -8 47q0 15 3 29l16 86q15 80 51.5 116.5t79.5 42.5l9 52h33l-9 -53q40 -6 63 -43q15 -22 15 -60q0 -24 -6 -55zM259 720q-43 -13 -54 -74l-18 -104q-2 -13 -2 -25q0 -42 25 -79zM243 223q1 7 1 14 q0 33 -24 72l-46 -262q40 13 51 73z" />
<glyph unicode="%" horiz-adv-x="606" d="M635 338l-35 -199q-15 -86 -39.5 -118t-77.5 -32t-67 34q-7 16 -7 42q0 30 9 74l35 199q15 84 39.5 117t78.5 33t67 -34q6 -15 6 -39q0 -31 -9 -77zM551 768l-301 -768h-57l301 768h57zM323 630l-36 -199q-15 -86 -39.5 -118t-77.5 -32q-54 0 -68 34q-6 16 -6 41 q0 31 9 75l36 199q16 85 40 117.5t77 32.5q54 0 68 -34q6 -15 6 -41q0 -30 -9 -75zM584 362q5 27 5 44q0 9 -1 15q-5 17 -26 17t-31.5 -17t-18.5 -59l-43 -247q-5 -27 -5 -44q0 -9 2 -15q4 -17 25 -17t31.5 17t18.5 59zM272 654q5 26 5 42q0 10 -2 17q-5 17 -26 17 t-31 -16.5t-18 -59.5l-44 -247q-5 -26 -5 -42q0 -10 2 -17q5 -17 26 -17t31 16.5t18 59.5z" />
<glyph unicode="&#x26;" horiz-adv-x="298" d="M377 630l-6 -30h-62l10 57q2 12 2 21q0 45 -46 45q-56 0 -68 -66l-29 -168q-1 -7 -1 -13q0 -17 10 -28q14 -16 30.5 -20.5t34.5 -4.5h26l11 60h62l-11 -60h31l-9 -54h-31l-41 -232q-26 -150 -145 -150q-96 0 -96 100q0 23 5 50l22 128q10 55 33.5 88t74.5 48 q-47 13 -60 43q-6 16 -6 40q0 19 4 43l19 103q27 150 144 150q56 0 82 -36q16 -23 16 -61q0 -24 -6 -53zM269 369h-26q-31 0 -61 -14.5t-37 -51.5l-34 -193q-2 -12 -2 -21q0 -45 46 -45q56 0 68 66z" />
<glyph unicode="'" horiz-adv-x="100" d="M216 767l-52 -210h-30l22 210h60z" />
<glyph unicode="(" horiz-adv-x="182" d="M317 768q-65 -118 -107.5 -258t-55.5 -220q-8 -45 -15 -106.5t-7 -170.5t19 -184h-61q-14 78 -20 123q-3 27 -3 70q0 27 1 62q4 87 23 197q9 48 25 113.5t55 175.5t85 198h61z" />
<glyph unicode=")" horiz-adv-x="182" d="M207 703q10 -69 10 -144q0 -114 -23 -241q-35 -205 -114 -384q-22 -50 -50 -104h-59q22 42 41 85q78 172 119 393q6 33 12 80.5t11 137.5q2 32 2 61q0 52 -6 94q-3 34 -16 88h61q7 -33 12 -66z" />
<glyph unicode="*" horiz-adv-x="295" d="M393 675l-9 -48h-84l29 -73l-47 -24l-29 69l-53 -70l-38 25l55 73h-86l9 49h83l-29 72l47 25l30 -74l54 73l38 -24l-53 -73h83z" />
<glyph unicode="+" horiz-adv-x="312" d="M358 400l-10 -56h-103l-18 -103h-56l18 103h-103l10 56h103l18 103h56l-18 -103h103z" />
<glyph unicode="," horiz-adv-x="126" d="M131 83l-164 -218h-36l125 218h75z" />
<glyph unicode="-" horiz-adv-x="249" d="M279 320l-10 -56h-199l10 56h199z" />
<glyph unicode="." horiz-adv-x="137" d="M117 29q-3 -18 -18.5 -28.5t-34.5 -10.5q-17 0 -28 14q-8 11 -8 23q0 22 20 37q15 11 35 11t29 -13q6 -9 6 -21q0 -6 -1 -12z" />
<glyph unicode="/" horiz-adv-x="223" d="M358 768l-301 -768h-57l301 768h57z" />
<glyph unicode="0" horiz-adv-x="306" d="M380 619l-84 -472q-16 -90 -58.5 -125t-87.5 -35q-19 0 -36 6.5t-34.5 24t-21.5 48.5q-2 12 -2 28q0 23 4 53l84 472q11 62 39 100t54 49t53 11q18 0 34.5 -6t34.5 -23.5t23 -48.5q1 -13 1 -30q0 -23 -3 -52zM322 646q3 14 3 25q0 21 -9 33q-12 18 -36 18t-43.5 -18.5 t-26.5 -57.5l-92 -526q-3 -14 -3 -25q0 -21 9 -33q12 -18 36 -18t43.5 18.5t26.5 57.5z" />
<glyph unicode="1" horiz-adv-x="198" d="M293 766l-135 -766h-62l122 693l-98 -37l11 61l112 49h50z" />
<glyph unicode="2" horiz-adv-x="281" d="M365 619l-16 -88q-8 -46 -47 -112.5t-81.5 -123t-80.5 -122.5t-46 -111h154l-10 -62h-218l15 86q8 48 47 113t81 118.5t80 116.5t46 108l18 104q3 14 3 25q0 21 -8 33q-13 18 -37 18t-43.5 -18.5t-26.5 -57.5l-23 -132h-62l19 105q14 80 53 120t93 40t79 -41 q16 -25 16 -67q0 -24 -5 -52z" />
<glyph unicode="3" horiz-adv-x="298" d="M377 630l-19 -103q-10 -54 -32.5 -83.5t-73.5 -42.5q46 -16 58 -49q7 -17 7 -42q0 -20 -5 -45l-22 -128q-26 -150 -145 -150q-96 0 -96 100q0 23 5 50l19 108h62l-24 -135q-2 -12 -2 -21q0 -45 46 -45q56 0 68 66l34 193q1 7 1 13q0 17 -10 28q-14 16 -30.5 20.5 t-34.5 4.5q-8 0 -20 -2l10 58q6 -2 19 -2q31 0 61 14.5t37 51.5l29 168q2 12 2 21q0 45 -46 45q-56 0 -68 -66l-24 -139h-60q2 23 4 34l14 78q28 150 144 150q97 0 97 -100q0 -22 -5 -50z" />
<glyph unicode="4" horiz-adv-x="296" d="M361 766l-87 -492h60l-11 -62h-60l-37 -212h-62l37 212h-154l11 62l218 492h85zM287 700l-165 -426h90z" />
<glyph unicode="5" horiz-adv-x="297" d="M376 766l-11 -62h-149l-47 -267q2 3 12 15.5t14.5 17t15.5 12t24.5 10.5t30.5 3q68 0 68 -86q0 -24 -5 -54l-37 -208q-14 -79 -53 -119.5t-93 -40.5t-80 40q-16 26 -16 68q0 24 5 52l10 57h62l-14 -84q-2 -13 -2 -23q0 -22 9 -35q12 -18 36 -18t43.5 18.5t26.5 57.5 l45 256q2 14 2 25q0 20 -8 33q-13 18 -37 18q-42 0 -72 -90h-63l72 404h211z" />
<glyph unicode="6" horiz-adv-x="304" d="M379 617l-10 -57h-62l15 84q2 14 2 25q0 20 -8 33q-13 18 -37 18t-43 -18.5t-26 -57.5l-38 -217q15 19 25 28.5t29.5 19.5t42.5 10q68 0 68 -86q0 -24 -5 -54l-35 -198q-14 -79 -53 -119.5t-93 -40.5t-79 40q-17 26 -17 68q0 24 5 52l83 470q14 79 53.5 119.5t93.5 40.5 t78 -40q16 -25 16 -67q0 -24 -5 -53zM274 366q2 14 2 25q0 20 -8 33q-13 18 -37 18q-22 0 -42.5 -22t-26.5 -54l-44 -246q-2 -14 -2 -25q0 -20 8 -33q13 -18 37 -18t43.5 18.5t26.5 57.5z" />
<glyph unicode="7" horiz-adv-x="290" d="M420 766l-4 -18l-343 -748h-68l329 704h-184l11 62h259z" />
<glyph unicode="8" horiz-adv-x="300" d="M379 630l-14 -78q-9 -49 -32.5 -82t-53.5 -44q44 -34 44 -97q0 -19 -4 -39l-27 -153q-27 -150 -145 -150q-96 0 -96 100q0 23 5 50l28 163q14 82 87 126q-27 12 -39 44q-7 19 -7 43q0 18 4 39l14 78q28 150 144 150q97 0 97 -100q0 -22 -5 -50zM321 657q2 12 2 21 q0 45 -46 45q-56 0 -68 -66l-25 -143q-2 -12 -2 -21q0 -45 46 -45q56 0 68 66zM263 328q2 12 2 21q0 45 -46 45q-56 0 -68 -66l-38 -218q-2 -12 -2 -21q0 -45 46 -45q56 0 68 66z" />
<glyph unicode="9" horiz-adv-x="304" d="M377 617l-83 -470q-14 -79 -53 -119.5t-93 -40.5t-79 40q-16 26 -16 68q0 23 5 52l10 57h62l-14 -84q-2 -13 -2 -23q0 -22 8 -35q13 -18 36 -18q24 0 43.5 18.5t26.5 57.5l38 217q-15 -19 -25 -28.5t-29.5 -19.5t-42.5 -10q-69 0 -69 86q0 24 5 54l35 198 q14 79 53.5 119.5t93.5 40.5t79 -40q16 -26 16 -68q0 -23 -5 -52zM320 644q2 13 2 24q0 21 -8 34q-14 18 -38 18t-43 -18.5t-26 -57.5l-43 -246q-3 -14 -3 -25q0 -21 9 -33q12 -18 36 -18q22 0 43 22t27 54z" />
<glyph unicode=":" horiz-adv-x="137" d="M179 382q-3 -18 -18.5 -28.5t-34.5 -10.5q-17 0 -27.5 13.5t-8.5 28.5q4 20 19.5 31.5t35.5 11.5t29 -13q6 -9 6 -21q0 -6 -1 -12zM117 29q-3 -18 -18.5 -28.5t-34.5 -10.5q-17 0 -28 14q-8 11 -8 23q0 22 20 37q15 11 35 11t29 -13q6 -9 6 -21q0 -6 -1 -12z" />
<glyph unicode=";" horiz-adv-x="137" d="M179 382q-3 -18 -18.5 -28.5t-34.5 -10.5q-17 0 -27.5 13.5t-8.5 28.5q4 20 19.5 31.5t35.5 11.5t29 -13q6 -9 6 -21q0 -6 -1 -12zM131 83l-164 -218h-36l125 218h75z" />
<glyph unicode="&#x3c;" horiz-adv-x="169" d="M253 491l-131 -193l61 -207h-64l-61 206l132 194h63z" />
<glyph unicode="=" horiz-adv-x="312" d="M363 430l-10 -56h-262l10 56h262zM342 310l-10 -56h-262l10 56h262z" />
<glyph unicode="&#x3e;" horiz-adv-x="169" d="M216 285l-132 -194h-63l131 193l-61 207h64z" />
<glyph unicode="?" horiz-adv-x="292" d="M369 630l-19 -103q-12 -67 -41.5 -105t-90.5 -50l-39 -222h-62l48 275q6 -2 19 -2q31 0 61 14.5t37 51.5l29 168q2 12 2 21q0 45 -46 45q-56 0 -68 -66l-24 -139h-62l20 112q26 150 144 150q97 0 97 -100q0 -22 -5 -50zM174 29q-3 -18 -18.5 -28.5t-34.5 -10.5 q-17 0 -27 14q-9 11 -9 23q0 22 19 37q16 11 36 11t29 -13q6 -9 6 -21q0 -6 -1 -12z" />
<glyph unicode="@" horiz-adv-x="666" d="M707 355q-15 -85 -51 -162.5t-95.5 -132t-126.5 -54.5q-68 0 -68 66v11q-18 -27 -50 -45.5t-56 -18.5q-26 0 -36 14q-6 9 -6 26q0 9 2 20q6 35 28 90l66 170q35 89 57.5 121t60.5 32q16 0 27.5 -8t16.5 -16.5t11 -24.5l15 40h60q-147 -377 -148 -384q-2 -10 -2 -19 q0 -33 32 -33q46 0 91 51.5t73.5 120t40.5 134.5q6 43 6 82q0 34 -5 64q-10 65 -53 105.5t-113 40.5t-134.5 -41.5t-112 -109t-81 -149t-48.5 -165.5q-10 -56 -10 -102q0 -85 33 -138q51 -84 158 -84q78 0 159 45l5 -52q-90 -49 -174 -49q-135 0 -197 102q-40 67 -40 166 q0 50 10 108q17 99 56 191.5t94.5 167.5t132 120.5t159.5 45.5q68 0 117 -29.5t71.5 -77.5t30.5 -110q3 -23 3 -46q0 -41 -9 -83zM469 403q1 5 1 10q0 21 -23 21q-21 0 -34.5 -16.5t-30.5 -59.5l-81 -208q-12 -31 -14 -46q-1 -5 -1 -10q0 -20 22 -20q35 0 65 76l86 220 q9 23 10 33z" />
<glyph unicode="A" horiz-adv-x="277" d="M308 766l-31 -766h-62l11 190h-109l-55 -190h-62l238 766h70zM262 704q-8 -23 -13 -55l-112 -397h91l28 397q1 8 2 17.5t2 20.5t2 17z" />
<glyph unicode="B" horiz-adv-x="313" d="M377 606l-17 -96q-17 -98 -93 -116q40 -9 55 -43q9 -22 9 -49q0 -15 -3 -31l-19 -111q-14 -84 -53 -122t-111 -38h-105l135 766h95q72 0 97 -38q16 -24 16 -65q0 -25 -6 -57zM320 633q3 17 3 30q0 18 -6 29q-10 17 -39 17h-51l-51 -288h51q29 0 45.5 17.5t23.5 58.5z M270 290q2 13 2 24q0 52 -55 52h-51l-54 -309h61q29 0 45.5 17.5t23.5 58.5z" />
<glyph unicode="C" horiz-adv-x="301" d="M380 619l-22 -120h-62l26 147q3 14 3 25q0 21 -9 33q-12 18 -36 18t-43.5 -18.5t-26.5 -57.5l-92 -526q-3 -14 -3 -25q0 -21 9 -33q12 -18 36 -18t43.5 18.5t26.5 57.5l24 136h62l-20 -109q-17 -90 -59 -125t-87 -35q-19 0 -36 6.5t-34.5 24t-21.5 48.5q-2 12 -2 28 q0 23 4 53l84 472q11 62 39 100t54 49t53 11q20 0 36.5 -6t34.5 -23.5t22 -48.5q1 -11 1 -25q0 -25 -4 -57z" />
<glyph unicode="D" horiz-adv-x="306" d="M377 606l-78 -446q-17 -97 -52 -128.5t-112 -31.5h-95l135 766h95q52 0 76.5 -11.5t35.5 -46.5q4 -15 4 -35q0 -28 -9 -67zM320 633q3 17 3 30q0 18 -6 29q-10 17 -39 17h-51l-115 -652h51q29 0 45.5 17.5t23.5 58.5z" />
<glyph unicode="E" d="M379 766l-11 -62h-142l-51 -287h135l-11 -62h-135l-52 -293h142l-10 -62h-204l135 766h204z" />
<glyph unicode="F" horiz-adv-x="249" d="M379 766l-11 -62h-142l-51 -287h135l-11 -62h-135l-62 -355h-62l135 766h204z" />
<glyph unicode="G" horiz-adv-x="313" d="M390 619l-21 -119h-62l25 146q3 14 3 26q0 50 -50 50q-61 0 -75 -76l-92 -526q-3 -14 -3 -26q0 -50 50 -50q42 0 67 30l42 241h-68l11 62h130l-55 -313q-11 -16 -20 -26.5t-25 -24t-39.5 -20t-52.5 -6.5q-62 0 -87 33q-15 20 -15 61q0 28 7 66l84 472q17 93 53.5 126.5 t97.5 33.5t87 -33q15 -20 15 -62q0 -27 -7 -65z" />
<glyph unicode="H" horiz-adv-x="316" d="M411 766l-135 -766h-62l63 360h-112l-63 -360h-62l135 766h62l-61 -344h112l61 344h62z" />
<glyph unicode="I" horiz-adv-x="142" d="M237 766l-135 -766h-62l135 766h62z" />
<glyph unicode="J" horiz-adv-x="142" d="M237 766l-141 -798q-16 -90 -58 -125t-87 -35h-1l10 57h1q23 0 42 18.5t26 57.5l146 825h62z" />
<glyph unicode="K" horiz-adv-x="301" d="M422 766l-183 -380l67 -386h-62l-74 383l190 383h62zM237 766l-135 -766h-62l135 766h62z" />
<glyph unicode="L" horiz-adv-x="209" d="M237 766l-125 -704h102l-10 -62h-164l135 766h62z" />
<glyph unicode="M" horiz-adv-x="440" d="M535 766l-135 -766h-62l105 600l17 55l-25 -53l-206 -602h-30l18 602l-7 53l-3 -55l-105 -600h-62l135 766h95l-15 -537l-7 -69l17 70l175 536h95z" />
<glyph unicode="N" horiz-adv-x="338" d="M433 766l-135 -766h-64l-31 522l-7 53l-3 -55l-91 -520h-62l135 766h59l32 -546l10 -56l-2 56l97 546h62z" />
<glyph unicode="O" horiz-adv-x="306" d="M380 619l-84 -472q-16 -90 -58.5 -125t-87.5 -35q-19 0 -36 6.5t-34.5 24t-21.5 48.5q-2 12 -2 28q0 23 4 53l84 472q11 62 39 100t54 49t53 11q18 0 34.5 -6t34.5 -23.5t23 -48.5q1 -13 1 -30q0 -23 -3 -52zM322 646q3 14 3 25q0 21 -9 33q-12 18 -36 18t-43.5 -18.5 t-26.5 -57.5l-92 -526q-3 -14 -3 -25q0 -21 9 -33q12 -18 36 -18t43.5 18.5t26.5 57.5z" />
<glyph unicode="P" horiz-adv-x="291" d="M377 606l-20 -113q-17 -97 -52 -128.5t-112 -31.5h-33l-58 -333h-62l135 766h95q52 0 76.5 -11.5t35.5 -46.5q4 -15 4 -35q0 -28 -9 -67zM320 631q3 16 3 29q0 19 -7 30q-10 17 -39 17h-51l-55 -315h51q29 0 45.5 17.5t23.5 58.5z" />
<glyph unicode="Q" horiz-adv-x="306" d="M380 619l-84 -472q-18 -102 -78 -142l33 -112q-10 -4 -27 -13t-24 -12l-32 119q-15 0 -26.5 1.5t-28.5 6.5t-27 15.5t-20 28.5q-11 17 -11 42q0 23 5 66l84 472q11 62 39 100t54 49t53 11q20 0 36.5 -6t34.5 -23.5t21 -48.5q2 -11 2 -26q0 -24 -4 -56zM322 646q3 14 3 25 q0 21 -9 33q-12 18 -36 18t-43.5 -18.5t-26.5 -57.5l-92 -526q-3 -14 -3 -25q0 -21 9 -33q12 -18 36 -18t43.5 18.5t26.5 57.5z" />
<glyph unicode="R" horiz-adv-x="291" d="M377 606l-20 -113q-23 -128 -99 -146l33 -347h-62l-31 335h-37l-59 -335h-62l135 766h107q74 0 94 -30q10 -16 10 -51q0 -31 -9 -79zM320 633q3 17 3 30q0 18 -6 29q-10 17 -39 17h-51l-56 -317h51q29 0 45.5 17.5t23.5 58.5z" />
<glyph unicode="S" horiz-adv-x="296" d="M375 619l-22 -120h-62l26 147q3 14 3 25q0 21 -8 33q-13 18 -37 18t-43.5 -18.5t-26.5 -57.5l-18 -104q-3 -13 -3 -26q0 -23 8 -44q13 -32 34 -56l43 -50q21 -25 33 -59q8 -21 8 -45q0 -14 -3 -28l-16 -87q-16 -87 -47 -123.5t-99 -36.5t-87 37q-10 21 -10 55q0 29 7 68 l20 109h62l-24 -136q-3 -14 -3 -25q0 -21 8 -33q13 -18 37 -18t43.5 18.5t26.5 57.5l18 103q1 8 1 16q0 21 -9 42q-13 29 -34 55l-42 55q-21 28 -32 65q-7 23 -7 46q0 15 3 31l16 86q17 89 59 124.5t87 35.5q20 0 36.5 -6t34.5 -23.5t22 -48.5q1 -11 1 -25q0 -25 -4 -57z " />
<glyph unicode="T" horiz-adv-x="262" d="M392 766l-11 -62h-95l-124 -704h-62l124 704h-95l11 62h252z" />
<glyph unicode="U" horiz-adv-x="310" d="M408 766l-110 -619q-16 -90 -58.5 -125t-87.5 -35q-19 0 -36 6.5t-34.5 24t-21.5 48.5q-2 12 -2 28q0 23 4 53l110 619h62l-114 -642q-2 -14 -2 -25q0 -20 8 -33q13 -18 37 -18t43 18.5t26 57.5l114 642h62z" />
<glyph unicode="V" horiz-adv-x="257" d="M392 766l-228 -766h-70l41 766h62l-49 -639q-6 -35 -7 -55q10 34 13 55l176 639h62z" />
<glyph unicode="W" horiz-adv-x="434" d="M569 766l-218 -766h-70l41 576q1 14 4.5 36t4.5 35q-4 -15 -9 -37.5t-8 -33.5l-160 -576h-70l51 766h62l-55 -615q-1 -9 -3.5 -27.5t-3.5 -27.5q8 23 13 55l172 615h64l-45 -611q-3 -15 -5 -49q4 12 13 49l160 611h62z" />
<glyph unicode="X" horiz-adv-x="302" d="M435 766l-180 -373l47 -393h-62l-30 307l-148 -307h-62l203 394l-62 372h63l37 -281l131 281h63z" />
<glyph unicode="Y" horiz-adv-x="278" d="M413 768l-202 -481l-50 -287h-60l50 286l-16 481h63l10 -343l142 344h63z" />
<glyph unicode="Z" horiz-adv-x="256" d="M381 766l-4 -18l-293 -686h172l-10 -62h-236l10 62l275 642h-152l11 62h227z" />
<glyph unicode="[" horiz-adv-x="182" d="M318 768l-9 -52h-78l-147 -831h78l-9 -55h-136l165 938h136z" />
<glyph unicode="\" horiz-adv-x="252" d="M245 -20h-58l-109 788h57z" />
<glyph unicode="]" horiz-adv-x="182" d="M270 768l-165 -937h-135l9 55h75l147 830h-76l9 52h136z" />
<glyph unicode="^" horiz-adv-x="329" d="M474 767l-9 -50h-30q-21 0 -31 -16.5t-18 -59.5l-14 -75h65l-9 -54h-65l-90 -512h-60l90 512h-98l-90 -512h-60l90 512h-55l9 54h55l10 56q26 150 113 150q17 0 39 -5l-9 -50h-30q-21 0 -31 -16.5t-18 -59.5l-14 -75h98l10 56q26 150 113 150q17 0 39 -5z" />
<glyph unicode="_" horiz-adv-x="223" d="M227 28l-9 -56h-222l8 56h223z" />
<glyph unicode="`" horiz-adv-x="98" d="M220 642h-54l-45 101h71z" />
<glyph unicode="a" horiz-adv-x="254" d="M296 421l-74 -421h-47l-5 46q-32 -53 -73 -53q-27 0 -39 14t-13 47v6q0 33 10 83l7 39q14 78 42.5 110t69.5 32h45l20 116q5 26 5 42q0 10 -2 17q-5 17 -26 17t-31.5 -17t-17.5 -59l-9 -54h-60l6 35q14 84 41 117t81 33t69 -33q8 -18 8 -48q0 -29 -7 -69zM210 277h-36 q-36 0 -53 -96l-10 -57q-5 -26 -5 -42q0 -10 2 -17q5 -17 26 -17q36 0 49 76z" />
<glyph unicode="b" horiz-adv-x="262" d="M306 423l-49 -280q-14 -84 -35 -117t-61 -33q-23 0 -36 16.5t-17 36.5l-21 -46h-47l135 767h60l-43 -240q47 49 82 49q38 0 43 -35q1 -8 1 -19q0 -36 -12 -99zM249 442q5 27 5 44q0 9 -2 15q-4 17 -25 17q-36 0 -47 -64l-59 -330q-3 -19 -3 -33q0 -15 4 -25q7 -18 22 -18 q21 0 31 16.5t18 59.5z" />
<glyph unicode="c" horiz-adv-x="247" d="M297 429l-12 -70h-60l15 89q5 25 5 41q0 19 -7 27q-6 8 -20 8q-21 0 -31.5 -17t-18.5 -59l-57 -326q-5 -26 -5 -42q0 -10 2 -17q5 -17 26 -17t31 16.5t18 59.5l18 100h60l-15 -81q-16 -84 -42 -117t-80 -33t-69 33q-8 18 -8 48q0 29 7 69l51 288q14 83 41.5 116.5 t81.5 33.5t68 -33q8 -17 8 -47q0 -29 -7 -70z" />
<glyph unicode="d" horiz-adv-x="262" d="M357 767l-135 -767h-47l-5 46q-32 -53 -73 -53q-39 0 -48 33q-3 13 -3 33q0 32 9 84l49 280q15 89 31.5 121t54.5 32q37 0 64 -49l43 240h60zM242 454q3 17 3 29t-3 20q-6 15 -25 15q-21 0 -31.5 -17t-18.5 -59l-56 -318q-5 -26 -5 -42q0 -10 2 -17q5 -17 26 -17 q35 0 49 76z" />
<glyph unicode="e" horiz-adv-x="247" d="M296 421l-28 -160h-132l-25 -139q-5 -26 -5 -42q0 -10 2 -17q5 -17 26 -17t31.5 17t17.5 59l11 65h60l-8 -46q-14 -84 -41 -117t-81 -33t-69 33q-8 18 -8 48q0 29 7 69l50 280q14 83 41 116.5t81 33.5t69 -33q8 -17 8 -48q0 -28 -7 -69zM239 440q5 26 5 42q0 10 -2 17 q-5 17 -26 17t-31 -16.5t-18 -59.5l-22 -125h72z" />
<glyph unicode="f" horiz-adv-x="171" d="M316 767l-9 -50h-30q-21 0 -31 -16.5t-18 -59.5l-14 -75h65l-9 -54h-65l-90 -512h-60l90 512h-55l9 54h55l10 56q26 150 113 150q17 0 39 -5z" />
<glyph unicode="g" horiz-adv-x="250" d="M348 558l-7 -37h-52q11 -24 11 -56q0 -20 -4 -44l-11 -60q-15 -81 -50.5 -115.5t-95.5 -34.5q-16 0 -21 -35q-2 -8 8 -18.5t24 -10.5q56 0 72 -33q7 -17 7 -45q0 -29 -8 -71l-9 -50q-15 -82 -45.5 -116t-86.5 -34q-54 0 -70 34q-7 17 -7 47q0 29 7 69l13 70 q7 36 17.5 55.5t30.5 41.5q-6 20 -6 36q0 6 1 11q7 37 44 74q-22 24 -22 72q0 24 5 53l11 60q15 83 41.5 116.5t80.5 33.5q8 0 13.5 -1t8 -2t7.5 -4.5t9 -5.5h84zM239 440q5 26 5 42q0 10 -2 17q-5 17 -26 17t-31 -16.5t-18 -59.5l-17 -98q-5 -27 -5 -44q0 -9 1 -15 q5 -17 26 -17t31.5 17t18.5 59zM164 17q6 31 6 49t-8 27q-7 10 -23 10q-25 0 -35.5 -12.5t-17.5 -53.5l-19 -108q-3 -19 -3 -33q0 -43 31 -43q21 0 34 17.5t20 58.5z" />
<glyph unicode="h" horiz-adv-x="264" d="M306 423l-74 -423h-60l77 442q5 27 5 44q0 9 -2 15q-4 17 -25 17q-36 0 -47 -64l-80 -454h-60l135 767h60l-43 -240q39 49 63 49q40 0 53 -35q5 -17 5 -44q0 -30 -7 -74z" />
<glyph unicode="i" horiz-adv-x="130" d="M233 686q-4 -20 -19 -31.5t-35 -11.5t-29 13q-6 9 -6 21q0 6 1 12q3 18 18.5 28.5t34.5 10.5q17 0 27 -13q8 -11 8 -24v-5zM194 567l-99 -567h-60l99 567h60z" />
<glyph unicode="j" horiz-adv-x="130" d="M232 686q-4 -20 -19 -31.5t-35 -11.5t-29 13q-6 9 -6 21q0 6 1 12q3 18 18.5 28.5t34.5 10.5q17 0 27 -13q8 -11 8 -24v-5zM194 567l-105 -601q-18 -100 -50 -165h-59q31 66 49 169l105 597h60z" />
<glyph unicode="k" horiz-adv-x="267" d="M364 567l-146 -274l46 -293h-61l-51 290l150 277h62zM235 766l-135 -766h-60l135 766h60z" />
<glyph unicode="l" horiz-adv-x="140" d="M235 767l-135 -767h-60l135 767h60z" />
<glyph unicode="m" horiz-adv-x="391" d="M433 424l-74 -424h-60l78 443q5 26 5 42q0 10 -2 17q-5 17 -26 17q-36 0 -49 -76l-78 -443h-60l79 453q4 26 4 40q0 9 -2 14q-4 12 -26 12q-36 0 -49 -76l-78 -443h-60l99 567h47l5 -46q3 3 10 12l10 12q2 3 8 9.5t10 8.5t10 5.5t12 4.5t13 1q49 0 50 -65q32 65 82 65 q39 0 48 -34q3 -12 3 -32q0 -32 -9 -84z" />
<glyph unicode="n" d="M301 423l-74 -421h-60l77 440q5 27 5 44q0 9 -1 15q-5 17 -26 17q-36 0 -47 -64l-80 -452h-60l99 565h50l3 -40q39 49 63 49q41 0 53 -35q6 -16 6 -43q0 -30 -8 -75z" />
<glyph unicode="o" horiz-adv-x="252" d="M296 421l-50 -280q-15 -84 -41.5 -117t-80.5 -33t-69 33q-8 18 -8 48q0 29 7 69l50 280q14 83 41 116.5t81 33.5q55 0 70 -33q8 -16 8 -45.5t-8 -71.5zM239 440q5 26 5 42q0 10 -2 17q-5 17 -26 17t-31 -16.5t-18 -59.5l-56 -318q-5 -26 -5 -42q0 -10 2 -17q5 -17 26 -17 t31 16.5t18 59.5z" />
<glyph unicode="p" horiz-adv-x="257" d="M301 425l-49 -280q-15 -89 -31.5 -121t-54.5 -32q-37 0 -64 49l-43 -240h-59l135 767h47l5 -46q11 20 30 36.5t42 16.5q39 0 48 -33q3 -13 3 -33q0 -32 -9 -84zM245 444q5 26 5 42q0 10 -2 17q-5 17 -26 17q-35 0 -49 -76l-58 -330q-3 -18 -3 -30t2 -19q6 -15 25 -15 q21 0 31.5 17t18.5 59z" />
<glyph unicode="q" horiz-adv-x="257" d="M322 568l-136 -767h-60l43 240q-47 -49 -82 -49q-38 0 -43 35q-1 8 -1 19q0 36 12 99l49 280q14 84 35 117t61 33q23 0 36 -16.5t18 -36.5l21 46h47zM240 444q3 19 3 33q0 15 -3 25q-8 18 -23 18q-21 0 -31 -16.5t-18 -59.5l-56 -318q-5 -27 -5 -44q0 -9 1 -15 q5 -17 26 -17q37 0 48 64z" />
<glyph unicode="r" horiz-adv-x="201" d="M293 562l-15 -66q-30 7 -47 7q-24 0 -39 -17t-23 -63l-74 -423h-60l99 567h47l5 -46q32 53 73 53q21 0 34 -12z" />
<glyph unicode="s" horiz-adv-x="242" d="M295 418l-7 -40h-60l12 69q5 27 5 44q0 9 -1 15q-5 17 -26 17q-28 0 -40.5 -19t-22.5 -75q-2 -14 -2 -27q0 -20 5 -38q10 -30 27 -51l34 -42q17 -21 27 -51q5 -17 5 -37q0 -15 -3 -31q-15 -85 -42.5 -122.5t-81.5 -37.5q-60 0 -76 38q-9 19 -9 52q0 30 7 70l6 35h60 l-11 -64q-4 -23 -4 -39q0 -12 3 -20q6 -17 34 -17q21 0 31.5 19.5t21.5 76.5q2 9 2 18q0 19 -7 36q-10 26 -27 48l-34 46q-17 24 -26 57q-5 19 -5 38q0 16 3 32q15 85 44.5 122.5t89.5 37.5q53 0 69 -38q7 -19 7 -49q0 -31 -8 -73z" />
<glyph unicode="t" horiz-adv-x="176" d="M269 567l-9 -55h-65l-69 -389q-5 -26 -5 -42q0 -10 2 -17q5 -17 26 -17h30l-9 -50q-23 -5 -41 -5q-53 0 -64 34q-4 14 -4 36q0 31 9 80l65 370h-45l9 55h45l25 140h60l-25 -140h65z" />
<glyph unicode="u" d="M323 567l-99 -566h-50l-3 40q-39 -49 -63 -49q-40 0 -52 35q-6 17 -6 44q0 30 7 74l74 422h60l-77 -441q-5 -27 -5 -44q0 -9 1 -15q5 -17 26 -17q37 0 48 64l79 453h60z" />
<glyph unicode="v" horiz-adv-x="219" d="M318 567l-175 -567h-66l22 567h64l-34 -432l-3 -27l-3 -28q7 26 12 55l119 432h64z" />
<glyph unicode="w" horiz-adv-x="377" d="M476 567l-175 -567h-64l21 374q1 12 3.5 34t3.5 29q-1 -6 -7.5 -29t-8.5 -35l-108 -373h-64l22 567h64l-34 -432l-3 -27l-3 -28q7 26 12 55l119 432h67l-34 -432l-3 -27l-3 -28q7 26 12 55l119 432h64z" />
<glyph unicode="x" horiz-adv-x="231" d="M328 567l-141 -278l44 -289h-59l-26 199l-88 -199h-58l140 290l-40 277h59l23 -182l85 182h61z" />
<glyph unicode="y" horiz-adv-x="229" d="M328 567l-251 -767h-64l59 176l27 591h64l-28 -432q-2 -12 -7 -51l3 6q8 30 10 45l123 432h64z" />
<glyph unicode="z" horiz-adv-x="230" d="M321 567l-6 -38l-227 -469h132l-10 -60h-202l9 53l221 454h-122l10 60h195z" />
<glyph unicode="{" horiz-adv-x="308" d="M411 686q-4 -20 -19 -31.5t-35 -11.5t-29 13q-6 9 -6 21q0 6 1 12q3 18 18.5 28.5t34.5 10.5q17 0 27 -13q8 -11 8 -24v-5zM372 567l-99 -567h-60l99 567h60zM316 767l-9 -50h-30q-21 0 -31 -16.5t-18 -59.5l-14 -75h65l-9 -54h-65l-90 -512h-60l90 512h-55l9 54h55 l10 56q26 150 113 150q17 0 39 -5z" />
<glyph unicode="|" horiz-adv-x="142" d="M237 766l-171 -966h-62l171 966h62z" />
<glyph unicode="}" horiz-adv-x="314" d="M409 767l-135 -767h-60l135 767h60zM316 767l-9 -50h-30q-21 0 -31 -16.5t-18 -59.5l-14 -75h65l-9 -54h-65l-90 -512h-60l90 512h-55l9 54h55l10 56q26 150 113 150q17 0 39 -5z" />
<glyph unicode="~" horiz-adv-x="466" d="M569 686q-4 -20 -19 -31.5t-35 -11.5t-29 13q-6 9 -6 21q0 6 1 12q3 18 18.5 28.5t34.5 10.5q17 0 27 -13q8 -11 8 -24v-5zM530 567l-99 -567h-60l99 567h60zM474 767l-9 -50h-30q-21 0 -31 -16.5t-18 -59.5l-14 -75h65l-9 -54h-65l-90 -512h-60l90 512h-98l-90 -512h-60 l90 512h-55l9 54h55l10 56q26 150 113 150q17 0 39 -5l-9 -50h-30q-21 0 -31 -16.5t-18 -59.5l-14 -75h98l10 56q26 150 113 150q17 0 39 -5z" />
<glyph unicode="&#xa1;" horiz-adv-x="127" d="M203 536q-4 -20 -19.5 -31.5t-35.5 -11.5t-28 13q-6 9 -6 21q0 6 1 12q3 18 18.5 28.5t33.5 10.5q17 0 28 -14q9 -10 9 -22q0 -3 -1 -6zM155 417l-95 -616h-68l123 616h40z" />
<glyph unicode="&#xa2;" horiz-adv-x="247" d="M316 536l-12 -70h-60l15 89q5 25 5 41q0 19 -7 28q-6 7 -20 7q-21 0 -31.5 -17t-18.5 -59l-57 -326q-5 -27 -5 -44q0 -9 1 -15q5 -17 26 -17t31.5 17t18.5 59l18 100h60l-15 -81q-14 -73 -34.5 -106.5t-58.5 -41.5l-17 -100h-60l17 101q-35 9 -44 43q-3 14 -3 33 q0 29 8 71l51 288q12 70 33 104t58 42l15 85h60l-15 -84q35 -7 45 -42q4 -15 4 -36q0 -29 -8 -69z" />
<glyph unicode="&#xa3;" horiz-adv-x="331" d="M406 619l-9 -51h-62l13 78q2 13 2 23q0 22 -8 35q-13 18 -36 18q-24 0 -43.5 -18.5t-26.5 -57.5l-38 -216h165l-10 -56h-165l-11 -64h165l-10 -56h-165l-34 -192h172l-10 -62h-269l10 62h35l34 192h-35l10 56h35l11 64h-35l10 56h35l34 189q11 62 39 100t54 49t53 11 q20 0 36.5 -6t34.5 -23.5t21 -48.5q2 -11 2 -26q0 -24 -4 -56z" />
<glyph unicode="&#xa4;" horiz-adv-x="318" d="M397 619l-9 -50h-62l13 77q2 13 2 23q0 22 -9 35q-12 18 -35 18q-24 0 -43.5 -18.5t-26.5 -57.5l-31 -176h161l-10 -56h-161l-11 -64h162l-10 -56h-162l-30 -174q-3 -14 -3 -25q0 -21 8 -33q13 -18 37 -18t44 18.5t26 57.5l11 66h62l-7 -39q-16 -90 -58.5 -125t-87.5 -35 q-19 0 -36 6.5t-34.5 24t-21.5 48.5q-2 12 -2 28q0 23 4 53l26 147h-38l10 56h38l11 64h-39l10 56h39l27 149q11 62 39 100t54 49t53 11q20 0 36.5 -6t34.5 -23.5t22 -48.5q1 -11 1 -26q0 -24 -4 -56z" />
<glyph unicode="&#xa5;" horiz-adv-x="278" d="M413 768l-188 -448h99l-10 -56h-107l-11 -64h107l-10 -56h-107l-25 -144h-60l25 144h-95l10 56h95l11 64h-95l10 56h88l-15 447h63l10 -343l142 344h63z" />
<glyph unicode="&#xa6;" horiz-adv-x="142" d="M237 766l-70 -393h-62l70 393h62zM132 174l-66 -374h-62l66 374h62z" />
<glyph unicode="&#xa7;" horiz-adv-x="344" d="M437 566l-9 -54h-65l-69 -389q-5 -26 -5 -42q0 -10 2 -17q5 -17 26 -17h30l-9 -50q-23 -5 -41 -5q-53 0 -64 34q-4 14 -4 36q0 31 9 80l65 370h-98l-90 -512h-60l90 512h-55l9 54h55l10 56q26 150 113 150q17 0 39 -5l-9 -50h-30q-21 0 -31 -16.5t-18 -59.5l-14 -75h98 l25 141h60l-25 -141h65z" />
<glyph unicode="&#xa8;" horiz-adv-x="255" d="M354 671q-3 -18 -18.5 -28.5t-34.5 -10.5q-17 0 -27.5 13.5t-8.5 28.5q4 20 19.5 31.5t35.5 11.5t29 -13q6 -9 6 -21q0 -6 -1 -12zM224 671q-3 -18 -18.5 -28.5t-34.5 -10.5q-17 0 -27 14q-9 11 -9 23q0 22 19 37q16 11 36 11t29 -13q6 -9 6 -21q0 -6 -1 -12z" />
<glyph unicode="&#xa9;" horiz-adv-x="661" d="M698 381q-29 -164 -137.5 -280t-232.5 -116q-82 0 -141.5 53t-83.5 144q-13 51 -13 107q0 44 8 92q28 164 136.5 280.5t233.5 116.5q124 0 192 -116q47 -81 47 -186q0 -45 -9 -95zM647 382q7 43 7 83q0 46 -10 89q-18 79 -67.5 127t-118.5 48q-105 0 -195.5 -103 t-115.5 -244q-7 -43 -7 -83q0 -46 10 -89q18 -79 67.5 -127t118.5 -48q105 0 195.5 103t115.5 244zM513 502l-12 -70h-60l15 89q5 25 5 41q0 19 -7 28q-6 7 -20 7q-21 0 -31.5 -17t-18.5 -59l-50 -286q-5 -26 -5 -42q0 -10 2 -17q5 -17 26 -17t31 16.5t18 59.5l18 100h60 l-15 -81q-16 -84 -42 -117t-80 -33t-69 34q-8 17 -8 47q0 29 7 69l44 248q14 83 41 116.5t81 33.5t69 -33q8 -17 8 -48q0 -28 -7 -69z" />
<glyph unicode="&#xaa;" horiz-adv-x="257" d="M321 567l-99 -567h-47l-5 46q-32 -53 -73 -53q-39 0 -48 33q-3 13 -3 33q0 32 9 84l49 280q15 89 31.5 121t54.5 32q37 0 64 -49l7 40h60zM242 454q3 17 3 29t-3 20q-6 15 -25 15q-21 0 -31.5 -17t-18.5 -59l-56 -318q-5 -26 -5 -42q0 -10 2 -17q5 -17 26 -17q35 0 49 76 z" />
<glyph unicode="&#xab;" horiz-adv-x="280" d="M339 457l-104 -169l44 -167h-59l-46 167l104 169h61zM229 457l-104 -169l45 -167h-62l-44 167l103 169h62z" />
<glyph unicode="&#xac;" horiz-adv-x="313" d="M390 619l-21 -119h-62l25 146q3 14 3 26q0 50 -50 50q-61 0 -75 -76l-92 -526q-3 -14 -3 -26q0 -50 50 -50q42 0 67 30l49 281h-68l11 62h130l-62 -353q-11 -16 -20 -26.5t-25 -24t-39.5 -20t-52.5 -6.5q-62 0 -87 33q-15 20 -15 61q0 28 7 66l84 472q17 93 53.5 126.5 t97.5 33.5t87 -33q15 -20 15 -62q0 -27 -7 -65z" />
<glyph unicode="&#xad;" horiz-adv-x="249" d="M279 320l-10 -56h-199l10 56h199z" />
<glyph unicode="&#xae;" horiz-adv-x="661" d="M698 381q-29 -164 -137.5 -280t-232.5 -116q-82 0 -141.5 53t-83.5 144q-13 51 -13 107q0 44 8 92q28 164 136.5 280.5t233.5 116.5q124 0 192 -116q47 -81 47 -186q0 -45 -9 -95zM491 518q3 16 3 29q0 19 -6 29q-11 18 -40 18h-51l-36 -204h51q29 0 46 17.5t24 58.5z M647 382q7 43 7 83q0 46 -10 89q-18 79 -67.5 127t-118.5 48q-105 0 -195.5 -103t-115.5 -244q-7 -43 -7 -83q0 -46 10 -89q18 -79 67.5 -127t118.5 -48t135 49h-60l-23 249h-37l-44 -249h-62l100 567h107q74 0 94 -31q11 -16 11 -51q0 -31 -9 -78q-23 -128 -100 -146 l24 -260q64 46 111.5 125.5t63.5 171.5z" />
<glyph unicode="&#xaf;" horiz-adv-x="466" d="M566 767l-135 -767h-60l135 767h60zM474 767l-9 -50h-30q-21 0 -31 -16.5t-18 -59.5l-14 -75h65l-9 -54h-65l-90 -512h-60l90 512h-98l-90 -512h-60l90 512h-55l9 54h55l10 56q26 150 113 150q17 0 39 -5l-9 -50h-30q-21 0 -31 -16.5t-18 -59.5l-14 -75h98l10 56 q26 150 113 150q17 0 39 -5z" />
<glyph unicode="&#xb0;" horiz-adv-x="576" d="M639 533l-29 -170q-14 -84 -41 -117t-82 -33q-54 0 -69 33q-7 18 -7 47t7 70l29 170q14 83 41.5 116.5t81.5 33.5t68 -33q8 -17 8 -47q0 -29 -7 -70zM433 766l-135 -766h-64l-31 522l-7 53l-3 -55l-91 -520h-62l135 766h59l32 -546l10 -56l-2 56l97 546h62zM561 140 l-10 -56h-170l10 56h170zM583 552q5 26 5 42q0 10 -2 17q-5 17 -26 17t-31 -16.5t-18 -59.5l-37 -208q-5 -26 -5 -42q0 -10 2 -17q5 -17 26 -17t31 16.5t18 59.5z" />
<glyph unicode="&#xb1;" horiz-adv-x="312" d="M369 460l-10 -56h-103l-18 -103h-56l18 103h-103l10 56h103l18 103h56l-18 -103h103zM328 243l-10 -56h-262l10 56h262z" />
<glyph unicode="&#xb2;" horiz-adv-x="281" d="M365 619l-16 -88q-8 -46 -47 -112.5t-81.5 -123t-80.5 -122.5t-46 -111h154l-10 -62h-218l15 86q8 48 47 113t81 118.5t80 116.5t46 108l18 104q3 14 3 25q0 21 -8 33q-13 18 -37 18t-43.5 -18.5t-26.5 -57.5l-23 -132h-62l19 105q14 80 53 120t93 40t79 -41 q16 -25 16 -67q0 -24 -5 -52z" />
<glyph unicode="&#xb3;" horiz-adv-x="298" d="M377 630l-19 -103q-10 -54 -32.5 -83.5t-73.5 -42.5q46 -16 58 -49q7 -17 7 -42q0 -20 -5 -45l-22 -128q-26 -150 -145 -150q-96 0 -96 100q0 23 5 50l19 108h62l-24 -135q-2 -12 -2 -21q0 -45 46 -45q56 0 68 66l34 193q1 7 1 13q0 17 -10 28q-14 16 -30.5 20.5 t-34.5 4.5q-8 0 -20 -2l10 58q6 -2 19 -2q31 0 61 14.5t37 51.5l29 168q2 12 2 21q0 45 -46 45q-56 0 -68 -66l-24 -139h-60q2 23 4 34l14 78q28 150 144 150q97 0 97 -100q0 -22 -5 -50z" />
<glyph unicode="&#xb4;" horiz-adv-x="98" d="M246 743l-80 -101h-53l62 101h71z" />
<glyph unicode="&#xb5;" horiz-adv-x="686" d="M626 606h-40v88h39v-18h-16v-16h15v-17h-15v-20h17v-17zM580 662q0 -12 -4.5 -16t-16.5 -4h-6v-36h-23v88h23q18 0 22.5 -4.5t4.5 -20.5v-7zM526 694l-16 -57v-31h-21v31l-16 57h20q5 -24 6 -33q1 5 3 16t3 17h21zM472 676h-13v-70h-23v70h-14v18h50v-18zM403 606h-24 l-1 16h-8l-2 -16h-23l11 88h33zM341 632q0 -18 -4.5 -22t-19.5 -4h-29v88h17q25 0 30.5 -4.5t5.5 -26.5v-31zM285 606h-24l-1 16h-9l-1 -16h-23l11 88h33zM223 606h-20l-12 40v-40h-19v88h18l13 -40v40h20v-88zM168 606h-24l-1 16h-8l-2 -16h-23l11 88h33zM107 638 q0 -34 -27 -34q-15 0 -21 7.5t-6 25.5v26q0 33 26 33q28 0 28 -32v-8h-23v15q0 10 -4 10t-4 -11v-41q0 -10 4 -10t4 11v12h23v-4zM629 0h-578v578h578v-578zM561 664v8q0 7 -8 7v-23h2q6 0 6 8zM377 637q-1 14 -3 38q-4 -23 -4 -38h7zM318 633v35q0 8 -1 9.5t-6 1.5v-58 q5 0 6 1.5t1 10.5zM259 637q-1 14 -3 38q-1 -5 -5 -38h8zM142 637q-1 11 -3 36q-4 -32 -4 -36h7zM544 285h-11q-9 9 -12 11l23 68l-56 -12q-4 2 -11 12l-11 22l-45 -45l-11 -11q-9 4 -11 11l33 112l-33 -11q-12 -6 -12 -10v-1q-7 4 -11 11l-33 67l-34 -67q-2 -4 -11 -11 q0 5 -11 11l-23 11l23 -112l-12 -11l-5 4q-4 3 -6 7l-45 45l-11 -22q-8 -10 -11 -12l-56 12l22 -68q-5 -4 -11 -11h-22l101 -78q7 -5 11 -23q-4 -13 -23 -33l101 22q13 -6 13 -9q0 -1 -1 -2v-101h22v101q-1 1 -1 3q0 3 12 8l101 -22q-7 8 -12 15.5t-7.5 12t-3.5 5.5 q3 15 11 23z" />
<glyph unicode="&#x3bc;" horiz-adv-x="686" d="M626 606h-40v88h39v-18h-16v-16h15v-17h-15v-20h17v-17zM580 662q0 -12 -4.5 -16t-16.5 -4h-6v-36h-23v88h23q18 0 22.5 -4.5t4.5 -20.5v-7zM526 694l-16 -57v-31h-21v31l-16 57h20q5 -24 6 -33q1 5 3 16t3 17h21zM472 676h-13v-70h-23v70h-14v18h50v-18zM403 606h-24 l-1 16h-8l-2 -16h-23l11 88h33zM341 632q0 -18 -4.5 -22t-19.5 -4h-29v88h17q25 0 30.5 -4.5t5.5 -26.5v-31zM285 606h-24l-1 16h-9l-1 -16h-23l11 88h33zM223 606h-20l-12 40v-40h-19v88h18l13 -40v40h20v-88zM168 606h-24l-1 16h-8l-2 -16h-23l11 88h33zM107 638 q0 -34 -27 -34q-15 0 -21 7.5t-6 25.5v26q0 33 26 33q28 0 28 -32v-8h-23v15q0 10 -4 10t-4 -11v-41q0 -10 4 -10t4 11v12h23v-4zM629 0h-578v578h578v-578zM561 664v8q0 7 -8 7v-23h2q6 0 6 8zM377 637q-1 14 -3 38q-4 -23 -4 -38h7zM318 633v35q0 8 -1 9.5t-6 1.5v-58 q5 0 6 1.5t1 10.5zM259 637q-1 14 -3 38q-1 -5 -5 -38h8zM142 637q-1 11 -3 36q-4 -32 -4 -36h7zM544 285h-11q-9 9 -12 11l23 68l-56 -12q-4 2 -11 12l-11 22l-45 -45l-11 -11q-9 4 -11 11l33 112l-33 -11q-12 -6 -12 -10v-1q-7 4 -11 11l-33 67l-34 -67q-2 -4 -11 -11 q0 5 -11 11l-23 11l23 -112l-12 -11l-5 4q-4 3 -6 7l-45 45l-11 -22q-8 -10 -11 -12l-56 12l22 -68q-5 -4 -11 -11h-22l101 -78q7 -5 11 -23q-4 -13 -23 -33l101 22q13 -6 13 -9q0 -1 -1 -2v-101h22v101q-1 1 -1 3q0 3 12 8l101 -22q-7 8 -12 15.5t-7.5 12t-3.5 5.5 q3 15 11 23z" />
<glyph unicode="&#xb6;" horiz-adv-x="390" d="M350 -87h-62v794h-49v-795h-62v334h-12q-77 0 -106.5 31.5t-29.5 128.5v200q0 97 29.5 128.5t106.5 31.5h185v-853z" />
<glyph unicode="&#xb7;" horiz-adv-x="345" d="M439 568l-10 -54h-65l-69 -391q-5 -26 -5 -42q0 -10 2 -17q5 -17 26 -17h30l-9 -50q-23 -5 -41 -5q-53 0 -64 34q-4 14 -4 36q0 31 9 80l65 372h-109l-69 -391q-5 -26 -5 -42q0 -10 2 -17q5 -17 26 -17h30l-9 -50q-23 -5 -41 -5q-53 0 -64 34q-4 14 -4 36q0 31 9 80 l65 372h-45l10 54h45l24 139h60l-24 -139h109l24 139h60l-24 -139h65z" />
<glyph unicode="&#xb8;" horiz-adv-x="163" d="M127 22l-79 -105h-27l60 105h46z" />
<glyph unicode="&#xb9;" horiz-adv-x="198" d="M293 766l-135 -766h-62l122 693l-98 -37l11 61l112 49h50z" />
<glyph unicode="&#xba;" horiz-adv-x="252" d="M322 571l-30 -170q-15 -84 -41.5 -117t-80.5 -33t-69 33q-8 18 -8 48q0 29 7 69l30 170q14 83 41.5 116.5t81.5 33.5t69 -33q8 -17 8 -46.5t-8 -70.5zM244 178l-10 -56h-170l10 56h170zM266 590q5 26 5 42q0 10 -2 17q-5 17 -26 17t-31 -16.5t-18 -59.5l-37 -208 q-5 -27 -5 -44q0 -9 2 -15q4 -17 25 -17t31.5 17t18.5 59z" />
<glyph unicode="&#xbb;" horiz-adv-x="281" d="M315 288l-102 -167h-62l103 167l-44 169h62zM205 288l-104 -167h-59l102 167l-44 169h61z" />
<glyph unicode="&#xbf;" horiz-adv-x="280" d="M299 538q-4 -20 -19 -31.5t-35 -11.5t-29 13q-6 9 -6 21q0 6 1 12q3 18 18.5 28.5t34.5 10.5q17 0 28 -14q8 -10 8 -21q0 -4 -1 -7zM272 52l-20 -112q-26 -150 -145 -150q-96 0 -96 100q0 23 5 50l18 103q12 67 41.5 105t90.5 50l40 222h62l-49 -275q-6 2 -19 2 q-31 0 -60.5 -14.5t-36.5 -51.5l-30 -168q-2 -11 -2 -21q0 -45 47 -45q55 0 67 66l25 139h62z" />
<glyph unicode="&#xc0;" horiz-adv-x="277" d="M322 841h-54l-45 101h71zM308 766l-31 -766h-62l11 190h-109l-55 -190h-62l238 766h70zM262 704q-8 -23 -13 -55l-112 -397h91l28 397q1 8 2 17.5t2 20.5t2 17z" />
<glyph unicode="&#xc1;" horiz-adv-x="277" d="M396 942l-80 -101h-53l62 101h71zM308 766l-31 -766h-62l11 190h-109l-55 -190h-62l238 766h70zM262 704q-8 -23 -13 -55l-112 -397h91l28 397q1 8 2 17.5t2 20.5t2 17z" />
<glyph unicode="&#xc2;" horiz-adv-x="277" d="M378 841h-53l-28 62l-47 -62h-56l73 101h70zM308 766l-31 -766h-62l11 190h-109l-55 -190h-62l238 766h70zM262 704q-8 -23 -13 -55l-112 -397h91l28 397q1 8 2 17.5t2 20.5t2 17z" />
<glyph unicode="&#xc3;" horiz-adv-x="277" d="M395 903q-10 -29 -30 -46t-46 -17q-11 0 -28.5 8.5t-27.5 8.5q-14 0 -19 -16h-56q2 8 6 16t12.5 20t22.5 19.5t32 7.5q12 0 31.5 -7.5t28.5 -7.5q5 0 9 3.5t5.5 7t1.5 4.5zM308 766l-31 -766h-62l11 190h-109l-55 -190h-62l238 766h70zM262 704q-8 -23 -13 -55l-112 -397 h91l28 397q1 8 2 17.5t2 20.5t2 17z" />
<glyph unicode="&#xc4;" horiz-adv-x="277" d="M401 870q-3 -18 -18.5 -28.5t-34.5 -10.5q-17 0 -27.5 13.5t-8.5 28.5q4 20 19.5 31.5t35.5 11.5t29 -13q6 -9 6 -21q0 -6 -1 -12zM271 870q-3 -18 -18.5 -28.5t-34.5 -10.5q-17 0 -27.5 13.5t-8.5 28.5q4 20 19.5 31.5t35.5 11.5t29 -13q6 -9 6 -21q0 -6 -1 -12z M308 766l-31 -766h-62l11 190h-109l-55 -190h-62l238 766h70zM262 704q-8 -23 -13 -55l-112 -397h91l28 397q1 8 2 17.5t2 20.5t2 17z" />
<glyph unicode="&#xc5;" horiz-adv-x="277" d="M358 881q-5 -27 -28 -46t-49 -19q-25 0 -41 17q-13 12 -13 33q0 7 2 16q4 27 27 45.5t50 18.5q26 0 42 -20q11 -14 11 -33q0 -6 -1 -12zM308 766l-31 -766h-62l11 190h-109l-55 -190h-62l238 766h70zM330 882v5q0 12 -7 21q-9 10 -24 10q-15 -1 -27 -12t-14 -25 q-3 -17 6 -26.5t24 -9.5q14 0 26.5 11t15.5 26zM262 704q-8 -23 -13 -55l-112 -397h91l28 397q1 8 2 17.5t2 20.5t2 17z" />
<glyph unicode="&#xc6;" horiz-adv-x="436" d="M556 766l-11 -62h-142l-51 -287h135l-11 -62h-135l-52 -293h142l-10 -62h-207l36 190h-109l-80 -190h-61l340 766h216zM333 662l-164 -410h92z" />
<glyph unicode="&#xc7;" horiz-adv-x="301" d="M380 619l-22 -120h-62l26 147q3 14 3 25q0 21 -9 33q-12 18 -36 18t-43.5 -18.5t-26.5 -57.5l-92 -526q-3 -14 -3 -25q0 -21 9 -33q12 -18 36 -18t43.5 18.5t26.5 57.5l24 136h62l-20 -109q-25 -135 -115 -156l-72 -95h-27l53 92q-80 11 -80 106q0 24 5 53l84 472 q11 62 39 100t54 49t53 11q20 0 36.5 -6t34.5 -23.5t22 -48.5q1 -11 1 -25q0 -25 -4 -57z" />
<glyph unicode="&#xc8;" d="M336 841h-54l-45 101h71zM379 766l-11 -62h-142l-51 -287h135l-11 -62h-135l-52 -293h142l-10 -62h-204l135 766h204z" />
<glyph unicode="&#xc9;" d="M403 942l-80 -101h-53l62 101h71zM379 766l-11 -62h-142l-51 -287h135l-11 -62h-135l-52 -293h142l-10 -62h-204l135 766h204z" />
<glyph unicode="&#xca;" d="M385 841h-53l-28 62l-47 -62h-56l73 101h70zM379 766l-11 -62h-142l-51 -287h135l-11 -62h-135l-52 -293h142l-10 -62h-204l135 766h204z" />
<glyph unicode="&#xcb;" d="M414 870q-3 -18 -18.5 -28.5t-34.5 -10.5q-17 0 -27.5 13.5t-8.5 28.5q4 20 19.5 31.5t35.5 11.5t29 -13q6 -9 6 -21q0 -6 -1 -12zM284 870q-3 -18 -18.5 -28.5t-34.5 -10.5q-17 0 -27.5 13.5t-8.5 28.5q4 20 19.5 31.5t35.5 11.5t29 -13q6 -9 6 -21q0 -6 -1 -12z M379 766l-11 -62h-142l-51 -287h135l-11 -62h-135l-52 -293h142l-10 -62h-204l135 766h204z" />
<glyph unicode="&#xcc;" horiz-adv-x="142" d="M248 841h-54l-45 101h71zM237 766l-135 -766h-62l135 766h62z" />
<glyph unicode="&#xcd;" horiz-adv-x="142" d="M324 942l-80 -101h-53l62 101h71zM237 766l-135 -766h-62l135 766h62z" />
<glyph unicode="&#xce;" horiz-adv-x="142" d="M311 841h-53l-28 62l-47 -62h-56l73 101h70zM237 766l-135 -766h-62l135 766h62z" />
<glyph unicode="&#xcf;" horiz-adv-x="142" d="M334 870q-3 -18 -18.5 -28.5t-34.5 -10.5q-17 0 -27.5 13.5t-8.5 28.5q4 20 19.5 31.5t35.5 11.5t29 -13q6 -9 6 -21q0 -6 -1 -12zM204 870q-3 -18 -18.5 -28.5t-34.5 -10.5q-17 0 -27.5 13.5t-8.5 28.5q4 20 19.5 31.5t35.5 11.5t29 -13q6 -9 6 -21q0 -6 -1 -12z M237 766l-135 -766h-62l135 766h62z" />
<glyph unicode="&#xd0;" horiz-adv-x="307" d="M378 606l-78 -446q-17 -97 -52 -128.5t-112 -31.5h-95l67 382h-34l10 56h34l58 328h95q52 0 76.5 -11.5t34.5 -46.5q5 -15 5 -35q0 -28 -9 -67zM321 633q3 17 3 30q0 18 -6 29q-10 17 -39 17h-51l-48 -271h59l-10 -56h-59l-57 -325h51q29 0 45.5 17.5t23.5 58.5z" />
<glyph unicode="&#xd1;" horiz-adv-x="338" d="M421 903q-10 -29 -30 -46t-46 -17q-11 0 -28.5 8.5t-27.5 8.5q-14 0 -19 -16h-56q2 8 6 16t12.5 20t22.5 19.5t32 7.5q12 0 31.5 -7.5t28.5 -7.5q5 0 9 3.5t5.5 7t1.5 4.5zM433 766l-135 -766h-64l-31 522l-7 53l-3 -55l-91 -520h-62l135 766h59l32 -546l10 -56l-2 56 l97 546h62z" />
<glyph unicode="&#xd2;" horiz-adv-x="306" d="M334 841h-54l-45 101h71zM380 619l-84 -472q-16 -90 -58.5 -125t-87.5 -35q-19 0 -36 6.5t-34.5 24t-21.5 48.5q-2 12 -2 28q0 23 4 53l84 472q11 62 39 100t54 49t53 11q18 0 34.5 -6t34.5 -23.5t23 -48.5q1 -13 1 -30q0 -23 -3 -52zM322 646q3 14 3 25q0 21 -9 33 q-12 18 -36 18t-43.5 -18.5t-26.5 -57.5l-92 -526q-3 -14 -3 -25q0 -21 9 -33q12 -18 36 -18t43.5 18.5t26.5 57.5z" />
<glyph unicode="&#xd3;" horiz-adv-x="306" d="M405 942l-80 -101h-53l62 101h71zM380 619l-84 -472q-16 -90 -58.5 -125t-87.5 -35q-19 0 -36 6.5t-34.5 24t-21.5 48.5q-2 12 -2 28q0 23 4 53l84 472q11 62 39 100t54 49t53 11q18 0 34.5 -6t34.5 -23.5t23 -48.5q1 -13 1 -30q0 -23 -3 -52zM322 646q3 14 3 25 q0 21 -9 33q-12 18 -36 18t-43.5 -18.5t-26.5 -57.5l-92 -526q-3 -14 -3 -25q0 -21 9 -33q12 -18 36 -18t43.5 18.5t26.5 57.5z" />
<glyph unicode="&#xd4;" horiz-adv-x="306" d="M393 841h-53l-28 62l-47 -62h-56l73 101h70zM380 619l-84 -472q-16 -90 -58.5 -125t-87.5 -35q-19 0 -36 6.5t-34.5 24t-21.5 48.5q-2 12 -2 28q0 23 4 53l84 472q11 62 39 100t54 49t53 11q18 0 34.5 -6t34.5 -23.5t23 -48.5q1 -13 1 -30q0 -23 -3 -52zM322 646 q3 14 3 25q0 21 -9 33q-12 18 -36 18t-43.5 -18.5t-26.5 -57.5l-92 -526q-3 -14 -3 -25q0 -21 9 -33q12 -18 36 -18t43.5 18.5t26.5 57.5z" />
<glyph unicode="&#xd5;" horiz-adv-x="306" d="M410 903q-10 -29 -30 -46t-46 -17q-11 0 -28.5 8.5t-27.5 8.5q-14 0 -19 -16h-56q2 8 6 16t12.5 20t22.5 19.5t32 7.5q12 0 31.5 -7.5t28.5 -7.5q5 0 9 3.5t5.5 7t1.5 4.5zM380 619l-84 -472q-16 -90 -58.5 -125t-87.5 -35q-19 0 -36 6.5t-34.5 24t-21.5 48.5 q-2 12 -2 28q0 23 4 53l84 472q11 62 39 100t54 49t53 11q18 0 34.5 -6t34.5 -23.5t23 -48.5q1 -13 1 -30q0 -23 -3 -52zM322 646q3 14 3 25q0 21 -9 33q-12 18 -36 18t-43.5 -18.5t-26.5 -57.5l-92 -526q-3 -14 -3 -25q0 -21 9 -33q12 -18 36 -18t43.5 18.5t26.5 57.5z" />
<glyph unicode="&#xd6;" horiz-adv-x="306" d="M415 870q-3 -18 -18.5 -28.5t-34.5 -10.5q-17 0 -27.5 13.5t-8.5 28.5q4 20 19.5 31.5t35.5 11.5t29 -13q6 -9 6 -21q0 -6 -1 -12zM285 870q-3 -18 -18.5 -28.5t-34.5 -10.5q-17 0 -27.5 13.5t-8.5 28.5q4 20 19.5 31.5t35.5 11.5t29 -13q6 -9 6 -21q0 -6 -1 -12z M380 619l-84 -472q-16 -90 -58.5 -125t-87.5 -35q-19 0 -36 6.5t-34.5 24t-21.5 48.5q-2 12 -2 28q0 23 4 53l84 472q11 62 39 100t54 49t53 11q18 0 34.5 -6t34.5 -23.5t23 -48.5q1 -13 1 -30q0 -23 -3 -52zM322 646q3 14 3 25q0 21 -9 33q-12 18 -36 18t-43.5 -18.5 t-26.5 -57.5l-92 -526q-3 -14 -3 -25q0 -21 9 -33q12 -18 36 -18t43.5 18.5t26.5 57.5z" />
<glyph unicode="&#xd7;" horiz-adv-x="267" d="M324 440l-87 -70l57 -75l-49 -38l-57 75l-87 -70l-31 42l87 70l-56 75l48 38l57 -75l87 70z" />
<glyph unicode="&#xd8;" horiz-adv-x="306" d="M405 818l-34 -86q13 -27 13 -65q0 -22 -4 -48l-84 -472q-16 -90 -58.5 -125t-87.5 -35q-37 0 -61 20l-24 -60h-37l37 95q-9 23 -9 56q0 22 4 49l84 472q11 62 39 100t54 49t53 11q32 0 56 -18l22 57h37zM320 696q-12 26 -40 26q-24 0 -43.5 -18.5t-26.5 -57.5l-74 -422z M310 574l-193 -494q7 -36 43 -36q24 0 43.5 18.5t26.5 57.5z" />
<glyph unicode="&#xd9;" horiz-adv-x="310" d="M338 841h-54l-45 101h71zM408 766l-110 -619q-16 -90 -58.5 -125t-87.5 -35q-19 0 -36 6.5t-34.5 24t-21.5 48.5q-2 12 -2 28q0 23 4 53l110 619h62l-114 -642q-2 -14 -2 -25q0 -20 8 -33q13 -18 37 -18t43 18.5t26 57.5l114 642h62z" />
<glyph unicode="&#xda;" horiz-adv-x="310" d="M414 942l-80 -101h-53l62 101h71zM408 766l-110 -619q-16 -90 -58.5 -125t-87.5 -35q-19 0 -36 6.5t-34.5 24t-21.5 48.5q-2 12 -2 28q0 23 4 53l110 619h62l-114 -642q-2 -14 -2 -25q0 -20 8 -33q13 -18 37 -18t43 18.5t26 57.5l114 642h62z" />
<glyph unicode="&#xdb;" horiz-adv-x="310" d="M394 841h-53l-28 62l-47 -62h-56l73 101h70zM408 766l-110 -619q-16 -90 -58.5 -125t-87.5 -35q-19 0 -36 6.5t-34.5 24t-21.5 48.5q-2 12 -2 28q0 23 4 53l110 619h62l-114 -642q-2 -14 -2 -25q0 -20 8 -33q13 -18 37 -18t43 18.5t26 57.5l114 642h62z" />
<glyph unicode="&#xdc;" horiz-adv-x="310" d="M417 870q-3 -18 -18.5 -28.5t-34.5 -10.5q-17 0 -27.5 13.5t-8.5 28.5q4 20 19.5 31.5t35.5 11.5t29 -13q6 -9 6 -21q0 -6 -1 -12zM287 870q-3 -18 -18.5 -28.5t-34.5 -10.5q-17 0 -27.5 13.5t-8.5 28.5q4 20 19.5 31.5t35.5 11.5t29 -13q6 -9 6 -21q0 -6 -1 -12z M408 766l-110 -619q-16 -90 -58.5 -125t-87.5 -35q-19 0 -36 6.5t-34.5 24t-21.5 48.5q-2 12 -2 28q0 23 4 53l110 619h62l-114 -642q-2 -14 -2 -25q0 -20 8 -33q13 -18 37 -18t43 18.5t26 57.5l114 642h62z" />
<glyph unicode="&#xdd;" horiz-adv-x="278" d="M385 942l-80 -101h-53l62 101h71zM413 768l-202 -481l-50 -287h-60l50 286l-16 481h63l10 -343l142 344h63z" />
<glyph unicode="&#xde;" horiz-adv-x="291" d="M349 446l-20 -113q-17 -97 -52 -128.5t-112 -31.5h-33l-30 -173h-62l135 766h62l-29 -160h33q77 0 101 -32q14 -18 14 -59q0 -29 -7 -69zM292 471q3 16 3 29q0 19 -7 30q-10 17 -39 17h-51l-56 -315h51q29 0 46 17.5t24 58.5z" />
<glyph unicode="&#xdf;" horiz-adv-x="315" d="M393 646q-14 -84 -84 -103q38 -15 47 -51q5 -16 5 -34q0 -24 -7 -51l-47 -270q-26 -150 -140 -150h-2l9 52h2q56 0 68 66l60 343q1 7 1 13q0 20 -13 33q-18 15 -44 19l9 50q69 10 79 65l6 34q2 12 2 21q0 45 -46 45q-26 0 -44.5 -21.5t-30.5 -91.5l-108 -615h-60l90 511 h-55l9 54h55l12 65q28 150 141 150q90 0 90 -90q0 -20 -4 -44z" />
<glyph unicode="&#xe0;" horiz-adv-x="254" d="M278 642h-54l-45 101h71zM296 421l-74 -421h-47l-5 46q-32 -53 -73 -53q-27 0 -39 14t-13 47v6q0 33 10 83l7 39q14 78 42.5 110t69.5 32h45l20 116q5 26 5 42q0 10 -2 17q-5 17 -26 17t-31.5 -17t-17.5 -59l-9 -54h-60l6 35q14 84 41 117t81 33t69 -33q8 -18 8 -48 q0 -29 -7 -69zM210 277h-36q-36 0 -53 -96l-10 -57q-5 -26 -5 -42q0 -10 2 -17q5 -17 26 -17q36 0 49 76z" />
<glyph unicode="&#xe1;" horiz-adv-x="254" d="M344 743l-80 -101h-53l62 101h71zM296 421l-74 -421h-47l-5 46q-32 -53 -73 -53q-27 0 -39 14t-13 47v6q0 33 10 83l7 39q14 78 42.5 110t69.5 32h45l20 116q5 26 5 42q0 10 -2 17q-5 17 -26 17t-31.5 -17t-17.5 -59l-9 -54h-60l6 35q14 84 41 117t81 33t69 -33 q8 -18 8 -48q0 -29 -7 -69zM210 277h-36q-36 0 -53 -96l-10 -57q-5 -26 -5 -42q0 -10 2 -17q5 -17 26 -17q36 0 49 76z" />
<glyph unicode="&#xe2;" horiz-adv-x="254" d="M332 642h-53l-28 62l-47 -62h-56l73 101h70zM296 421l-74 -421h-47l-5 46q-32 -53 -73 -53q-27 0 -39 14t-13 47v6q0 33 10 83l7 39q14 78 42.5 110t69.5 32h45l20 116q5 26 5 42q0 10 -2 17q-5 17 -26 17t-31.5 -17t-17.5 -59l-9 -54h-60l6 35q14 84 41 117t81 33 t69 -33q8 -18 8 -48q0 -29 -7 -69zM210 277h-36q-36 0 -53 -96l-10 -57q-5 -26 -5 -42q0 -10 2 -17q5 -17 26 -17q36 0 49 76z" />
<glyph unicode="&#xe3;" horiz-adv-x="254" d="M349 704q-10 -29 -30 -46t-46 -17q-11 0 -28.5 8.5t-27.5 8.5q-14 0 -19 -16h-56q2 8 6 16t12.5 20t22.5 19.5t32 7.5q12 0 31.5 -7.5t28.5 -7.5q5 0 9 3.5t5.5 7t1.5 4.5zM296 421l-74 -421h-47l-5 46q-32 -53 -73 -53q-27 0 -39 14t-13 47v6q0 33 10 83l7 39 q14 78 42.5 110t69.5 32h45l20 116q5 26 5 42q0 10 -2 17q-5 17 -26 17t-31.5 -17t-17.5 -59l-9 -54h-60l6 35q14 84 41 117t81 33t69 -33q8 -18 8 -48q0 -29 -7 -69zM210 277h-36q-36 0 -53 -96l-10 -57q-5 -26 -5 -42q0 -10 2 -17q5 -17 26 -17q36 0 49 76z" />
<glyph unicode="&#xe4;" horiz-adv-x="254" d="M354 671q-3 -18 -18.5 -28.5t-34.5 -10.5q-17 0 -27.5 13.5t-8.5 28.5q4 20 19.5 31.5t35.5 11.5t29 -13q6 -9 6 -21q0 -6 -1 -12zM224 671q-3 -18 -18.5 -28.5t-34.5 -10.5q-17 0 -27.5 13.5t-8.5 28.5q4 20 19.5 31.5t35.5 11.5t29 -13q6 -9 6 -21q0 -6 -1 -12z M296 421l-74 -421h-47l-5 46q-32 -53 -73 -53q-27 0 -39 14t-13 47v6q0 33 10 83l7 39q14 78 42.5 110t69.5 32h45l20 116q5 26 5 42q0 10 -2 17q-5 17 -26 17t-31.5 -17t-17.5 -59l-9 -54h-60l6 35q14 84 41 117t81 33t69 -33q8 -18 8 -48q0 -29 -7 -69zM210 277h-36 q-36 0 -53 -96l-10 -57q-5 -26 -5 -42q0 -10 2 -17q5 -17 26 -17q36 0 49 76z" />
<glyph unicode="&#xe5;" horiz-adv-x="254" d="M311 682q-5 -27 -28 -46t-49 -19q-25 0 -42 17q-12 12 -12 33q0 7 2 16q4 27 27 45.5t50 18.5q26 0 41 -19q12 -15 12 -34q0 -6 -1 -12zM296 421l-74 -421h-47l-5 46q-32 -53 -73 -53q-27 0 -39 14t-13 47v6q0 33 10 83l7 39q14 78 42.5 110t69.5 32h45l20 116q5 26 5 42 q0 10 -2 17q-5 17 -26 17t-31.5 -17t-17.5 -59l-9 -54h-60l6 35q14 84 41 117t81 33t69 -33q8 -18 8 -48q0 -29 -7 -69zM283 683v5q0 12 -7 20q-9 11 -24 11q-15 -1 -27 -12t-14 -25q-3 -17 6 -26.5t24 -9.5q14 0 26.5 11t15.5 26zM210 277h-36q-36 0 -53 -96l-10 -57 q-5 -26 -5 -42q0 -10 2 -17q5 -17 26 -17q36 0 49 76z" />
<glyph unicode="&#xe6;" horiz-adv-x="379" d="M428 421l-28 -160h-132l-27 -151q-3 -18 -3 -31q0 -12 2 -19q6 -14 26 -14q21 0 31.5 17t17.5 59l11 65h60l-8 -46q-14 -84 -41 -117t-81 -33q-40 0 -58.5 16.5t-19.5 54.5q-36 -69 -81 -69q-27 0 -39 14t-13 47v6q0 33 10 83l7 39q14 78 42.5 110t69.5 32h45l20 116 q5 26 5 42q0 10 -2 17q-5 17 -26 17t-31.5 -17t-17.5 -59l-9 -54h-60l6 35q14 84 41 117t81 33q44 0 62 -22q26 22 70 22q54 0 69 -33q8 -17 8 -48q0 -28 -7 -69zM371 440q5 26 5 42q0 10 -2 17q-5 17 -26 17t-31 -16.5t-18 -59.5l-22 -125h72zM210 277h-36q-36 0 -53 -96 l-10 -57q-5 -26 -5 -42q0 -10 2 -17q5 -17 26 -17q36 0 49 76z" />
<glyph unicode="&#xe7;" horiz-adv-x="247" d="M297 429l-12 -70h-60l15 89q5 25 5 41q0 19 -7 27q-6 8 -20 8q-21 0 -31.5 -17t-18.5 -59l-57 -326q-5 -26 -5 -42q0 -10 2 -17q5 -17 26 -17t31 16.5t18 59.5l18 100h60l-15 -81q-13 -72 -33.5 -105.5t-58.5 -41.5l-65 -87h-27l49 85q-46 4 -59 38q-5 17 -5 42 q0 29 7 69l51 288q14 83 41.5 116.5t81.5 33.5t68 -33q8 -17 8 -47q0 -29 -7 -70z" />
<glyph unicode="&#xe8;" horiz-adv-x="247" d="M275 642h-54l-45 101h71zM296 421l-28 -160h-132l-25 -139q-5 -26 -5 -42q0 -10 2 -17q5 -17 26 -17t31.5 17t17.5 59l11 65h60l-8 -46q-14 -84 -41 -117t-81 -33t-69 33q-8 18 -8 48q0 29 7 69l50 280q14 83 41 116.5t81 33.5t69 -33q8 -17 8 -48q0 -28 -7 -69zM239 440 q5 26 5 42q0 10 -2 17q-5 17 -26 17t-31 -16.5t-18 -59.5l-22 -125h72z" />
<glyph unicode="&#xe9;" horiz-adv-x="247" d="M341 743l-80 -101h-53l62 101h71zM296 421l-28 -160h-132l-25 -139q-5 -26 -5 -42q0 -10 2 -17q5 -17 26 -17t31.5 17t17.5 59l11 65h60l-8 -46q-14 -84 -41 -117t-81 -33t-69 33q-8 18 -8 48q0 29 7 69l50 280q14 83 41 116.5t81 33.5t69 -33q8 -17 8 -48q0 -28 -7 -69z M239 440q5 26 5 42q0 10 -2 17q-5 17 -26 17t-31 -16.5t-18 -59.5l-22 -125h72z" />
<glyph unicode="&#xea;" horiz-adv-x="247" d="M328 642h-53l-28 62l-47 -62h-56l73 101h70zM296 421l-28 -160h-132l-25 -139q-5 -26 -5 -42q0 -10 2 -17q5 -17 26 -17t31.5 17t17.5 59l11 65h60l-8 -46q-14 -84 -41 -117t-81 -33t-69 33q-8 18 -8 48q0 29 7 69l50 280q14 83 41 116.5t81 33.5t69 -33q8 -17 8 -48 q0 -28 -7 -69zM239 440q5 26 5 42q0 10 -2 17q-5 17 -26 17t-31 -16.5t-18 -59.5l-22 -125h72z" />
<glyph unicode="&#xeb;" horiz-adv-x="247" d="M351 671q-3 -18 -18.5 -28.5t-34.5 -10.5q-17 0 -27.5 13.5t-8.5 28.5q4 20 19.5 31.5t35.5 11.5t29 -13q6 -9 6 -21q0 -6 -1 -12zM221 671q-3 -18 -18.5 -28.5t-34.5 -10.5q-17 0 -27.5 13.5t-8.5 28.5q4 20 19.5 31.5t35.5 11.5t29 -13q6 -9 6 -21q0 -6 -1 -12z M296 421l-28 -160h-132l-25 -139q-5 -26 -5 -42q0 -10 2 -17q5 -17 26 -17t31.5 17t17.5 59l11 65h60l-8 -46q-14 -84 -41 -117t-81 -33t-69 33q-8 18 -8 48q0 29 7 69l50 280q14 83 41 116.5t81 33.5t69 -33q8 -17 8 -48q0 -28 -7 -69zM239 440q5 26 5 42q0 10 -2 17 q-5 17 -26 17t-31 -16.5t-18 -59.5l-22 -125h72z" />
<glyph unicode="&#xec;" horiz-adv-x="130" d="M210 642h-54l-45 101h71zM194 567l-99 -567h-60l99 567h60z" />
<glyph unicode="&#xed;" horiz-adv-x="130" d="M283 743l-80 -101h-53l62 101h71zM194 567l-99 -567h-60l99 567h60z" />
<glyph unicode="&#xee;" horiz-adv-x="130" d="M270 642h-53l-28 62l-47 -62h-56l73 101h70zM194 567l-99 -567h-60l99 567h60z" />
<glyph unicode="&#xef;" horiz-adv-x="130" d="M293 671q-3 -18 -18.5 -28.5t-34.5 -10.5q-17 0 -27.5 13.5t-8.5 28.5q4 20 19.5 31.5t35.5 11.5t29 -13q6 -9 6 -21q0 -6 -1 -12zM163 671q-3 -18 -18.5 -28.5t-34.5 -10.5q-17 0 -27.5 13.5t-8.5 28.5q4 20 19.5 31.5t35.5 11.5t29 -13q6 -9 6 -21q0 -6 -1 -12z M194 567l-99 -567h-60l99 567h60z" />
<glyph unicode="&#xf0;" horiz-adv-x="257" d="M371 672l-6 -34h-31l-88 -497q-15 -84 -41.5 -117t-80.5 -33t-69 33q-8 18 -8 48q0 29 7 69l50 280q14 83 41 116.5t81 33.5q18 0 35 -5l13 72h-39l6 34h38v10q0 37 -27 37h-30l9 50q23 5 41 5q66 0 66 -85q0 -8 -1 -17h34zM241 452q3 18 3 31q0 12 -2 19q-6 14 -26 14 q-21 0 -31 -16.5t-18 -59.5l-56 -318q-5 -26 -5 -42q0 -10 2 -17q5 -17 26 -17t31 16.5t18 59.5z" />
<glyph unicode="&#xf1;" horiz-adv-x="260" d="M351 704q-10 -29 -30 -46t-46 -17q-11 0 -28.5 8.5t-27.5 8.5q-14 0 -19 -16h-56q2 8 6 16t12.5 20t22.5 19.5t32 7.5q12 0 31.5 -7.5t28.5 -7.5q5 0 9 3.5t5.5 7t1.5 4.5zM301 423l-74 -421h-60l77 440q5 27 5 44q0 9 -1 15q-5 17 -26 17q-36 0 -47 -64l-80 -452h-60 l99 565h50l3 -40q39 49 63 49q41 0 53 -35q6 -16 6 -43q0 -30 -8 -75z" />
<glyph unicode="&#xf2;" horiz-adv-x="252" d="M267 642h-54l-45 101h71zM296 421l-50 -280q-15 -84 -41.5 -117t-80.5 -33t-69 33q-8 18 -8 48q0 29 7 69l50 280q14 83 41 116.5t81 33.5q55 0 70 -33q8 -16 8 -45.5t-8 -71.5zM239 440q5 26 5 42q0 10 -2 17q-5 17 -26 17t-31 -16.5t-18 -59.5l-56 -318q-5 -26 -5 -42 q0 -10 2 -17q5 -17 26 -17t31 16.5t18 59.5z" />
<glyph unicode="&#xf3;" horiz-adv-x="252" d="M342 743l-80 -101h-53l62 101h71zM296 421l-50 -280q-15 -84 -41.5 -117t-80.5 -33t-69 33q-8 18 -8 48q0 29 7 69l50 280q14 83 41 116.5t81 33.5q55 0 70 -33q8 -16 8 -45.5t-8 -71.5zM239 440q5 26 5 42q0 10 -2 17q-5 17 -26 17t-31 -16.5t-18 -59.5l-56 -318 q-5 -26 -5 -42q0 -10 2 -17q5 -17 26 -17t31 16.5t18 59.5z" />
<glyph unicode="&#xf4;" horiz-adv-x="252" d="M328 642h-53l-28 62l-47 -62h-56l73 101h70zM296 421l-50 -280q-15 -84 -41.5 -117t-80.5 -33t-69 33q-8 18 -8 48q0 29 7 69l50 280q14 83 41 116.5t81 33.5q55 0 70 -33q8 -16 8 -45.5t-8 -71.5zM239 440q5 26 5 42q0 10 -2 17q-5 17 -26 17t-31 -16.5t-18 -59.5 l-56 -318q-5 -26 -5 -42q0 -10 2 -17q5 -17 26 -17t31 16.5t18 59.5z" />
<glyph unicode="&#xf5;" horiz-adv-x="252" d="M347 704q-10 -29 -30 -46t-46 -17q-11 0 -28.5 8.5t-27.5 8.5q-14 0 -19 -16h-56q2 8 6 16t12.5 20t22.5 19.5t32 7.5q12 0 31.5 -7.5t28.5 -7.5q5 0 9 3.5t5.5 7t1.5 4.5zM296 421l-50 -280q-15 -84 -41.5 -117t-80.5 -33t-69 33q-8 18 -8 48q0 29 7 69l50 280 q14 83 41 116.5t81 33.5q55 0 70 -33q8 -16 8 -45.5t-8 -71.5zM239 440q5 26 5 42q0 10 -2 17q-5 17 -26 17t-31 -16.5t-18 -59.5l-56 -318q-5 -26 -5 -42q0 -10 2 -17q5 -17 26 -17t31 16.5t18 59.5z" />
<glyph unicode="&#xf6;" horiz-adv-x="252" d="M354 671q-3 -18 -18.5 -28.5t-34.5 -10.5q-17 0 -27.5 13.5t-8.5 28.5q4 20 19.5 31.5t35.5 11.5t29 -13q6 -9 6 -21q0 -6 -1 -12zM224 671q-3 -18 -18.5 -28.5t-34.5 -10.5q-17 0 -27.5 13.5t-8.5 28.5q4 20 19.5 31.5t35.5 11.5t29 -13q6 -9 6 -21q0 -6 -1 -12z M296 421l-50 -280q-15 -84 -41.5 -117t-80.5 -33t-69 33q-8 18 -8 48q0 29 7 69l50 280q14 83 41 116.5t81 33.5q55 0 70 -33q8 -16 8 -45.5t-8 -71.5zM239 440q5 26 5 42q0 10 -2 17q-5 17 -26 17t-31 -16.5t-18 -59.5l-56 -318q-5 -26 -5 -42q0 -10 2 -17q5 -17 26 -17 t31 16.5t18 59.5z" />
<glyph unicode="&#xf7;" horiz-adv-x="312" d="M293 513q-3 -18 -18.5 -28.5t-34.5 -10.5q-17 0 -27.5 13.5t-8.5 28.5q4 20 19.5 31.5t35.5 11.5t29 -13q6 -9 6 -21q0 -6 -1 -12zM358 400l-10 -56h-262l10 56h262zM241 220q-3 -18 -18.5 -28.5t-34.5 -10.5q-17 0 -28 13q-8 11 -8 22q0 4 1 7q4 20 19 31.5t35 11.5 t29 -13q6 -9 6 -21q0 -6 -1 -12z" />
<glyph unicode="&#xf8;" horiz-adv-x="252" d="M325 613l-30 -75q8 -17 8 -48q0 -28 -7 -69l-50 -280q-15 -84 -41.5 -117t-80.5 -33q-27 0 -41 7l-19 -48h-37l28 72q-8 18 -8 49q0 29 7 70l50 280q14 83 41 116.5t81 33.5q23 0 42 -7l20 49h37zM242 497q-6 19 -26 19q-21 0 -31 -16.5t-18 -59.5l-43 -244zM225 358 l-117 -296q4 -16 26 -16q21 0 31 16.5t18 59.5z" />
<glyph unicode="&#xf9;" d="M281 642h-54l-45 101h71zM323 567l-99 -566h-50l-3 40q-39 -49 -63 -49q-40 0 -52 35q-6 17 -6 44q0 30 7 74l74 422h60l-77 -441q-5 -27 -5 -44q0 -9 1 -15q5 -17 26 -17q37 0 48 64l79 453h60z" />
<glyph unicode="&#xfa;" d="M348 743l-80 -101h-53l62 101h71zM323 567l-99 -566h-50l-3 40q-39 -49 -63 -49q-40 0 -52 35q-6 17 -6 44q0 30 7 74l74 422h60l-77 -441q-5 -27 -5 -44q0 -9 1 -15q5 -17 26 -17q37 0 48 64l79 453h60z" />
<glyph unicode="&#xfb;" d="M331 642h-53l-28 62l-47 -62h-56l73 101h70zM323 567l-99 -566h-50l-3 40q-39 -49 -63 -49q-40 0 -52 35q-6 17 -6 44q0 30 7 74l74 422h60l-77 -441q-5 -27 -5 -44q0 -9 1 -15q5 -17 26 -17q37 0 48 64l79 453h60z" />
<glyph unicode="&#xfc;" d="M357 671q-3 -18 -18.5 -28.5t-34.5 -10.5q-17 0 -27.5 13.5t-8.5 28.5q4 20 19.5 31.5t35.5 11.5t29 -13q6 -9 6 -21q0 -6 -1 -12zM227 671q-3 -18 -18.5 -28.5t-34.5 -10.5q-17 0 -27.5 13.5t-8.5 28.5q4 20 19.5 31.5t35.5 11.5t29 -13q6 -9 6 -21q0 -6 -1 -12z M323 567l-99 -566h-50l-3 40q-39 -49 -63 -49q-40 0 -52 35q-6 17 -6 44q0 30 7 74l74 422h60l-77 -441q-5 -27 -5 -44q0 -9 1 -15q5 -17 26 -17q37 0 48 64l79 453h60z" />
<glyph unicode="&#xfd;" horiz-adv-x="229" d="M333 743l-80 -101h-53l62 101h71zM328 567l-251 -767h-64l59 176l27 591h64l-28 -432q-2 -12 -7 -51l3 6q8 30 10 45l123 432h64z" />
<glyph unicode="&#xfe;" horiz-adv-x="262" d="M306 425l-49 -280q-15 -89 -31.5 -121t-54.5 -32q-37 0 -64 49l-43 -240h-60l171 965h60l-43 -244q11 20 30 36.5t42 16.5q39 0 48 -33q3 -13 3 -33q0 -32 -9 -84zM250 444q5 26 5 42q0 10 -2 17q-5 17 -26 17q-35 0 -49 -76l-58 -330q-3 -18 -3 -30t3 -19q5 -15 24 -15 q21 0 31.5 17t18.5 59z" />
<glyph unicode="&#xff;" horiz-adv-x="229" d="M342 671q-3 -18 -18.5 -28.5t-34.5 -10.5q-17 0 -27.5 13.5t-8.5 28.5q4 20 19.5 31.5t35.5 11.5t29 -13q6 -9 6 -21q0 -6 -1 -12zM212 671q-3 -18 -18.5 -28.5t-34.5 -10.5q-17 0 -27.5 13.5t-8.5 28.5q4 20 19.5 31.5t35.5 11.5t29 -13q6 -9 6 -21q0 -6 -1 -12z M328 567l-251 -767h-64l59 176l27 591h64l-28 -432q-2 -12 -7 -51l3 6q8 30 10 45l123 432h64z" />
<glyph unicode="&#x152;" horiz-adv-x="428" d="M548 766l-11 -62h-142l-51 -287h135l-11 -62h-135l-52 -293h142l-10 -62h-204q-27 -13 -59 -13q-19 0 -36 6.5t-34.5 24t-21.5 48.5q-2 12 -2 28q0 23 4 53l84 472q11 62 39 100t54 49t53 11q28 0 55 -13h203zM324 654q2 10 2 19q0 20 -10 32q-13 17 -36 17 q-24 0 -43.5 -18.5t-26.5 -57.5l-92 -526q-3 -14 -3 -25q0 -21 9 -33q12 -18 36 -18t43.5 18.5t26.5 57.5z" />
<glyph unicode="&#x153;" horiz-adv-x="379" d="M428 421l-28 -160h-132l-25 -139q-5 -26 -5 -42q0 -10 2 -17q5 -17 26 -17t31.5 17t17.5 59l11 65h60l-8 -46q-14 -84 -41 -117t-81 -33q-44 0 -62 22q-26 -22 -70 -22q-54 0 -69 33q-8 18 -8 48q0 29 7 69l50 280q14 83 41 116.5t81 33.5q44 0 62 -22q26 22 70 22 q54 0 69 -33q8 -17 8 -48q0 -28 -7 -69zM371 440q5 26 5 42q0 10 -2 17q-5 17 -26 17t-31 -16.5t-18 -59.5l-22 -125h72zM239 440q5 26 5 42q0 10 -2 17q-5 17 -26 17t-31 -16.5t-18 -59.5l-56 -318q-5 -26 -5 -42q0 -10 2 -17q5 -17 26 -17t31 16.5t18 59.5z" />
<glyph unicode="&#x178;" horiz-adv-x="278" d="M397 870q-3 -18 -18.5 -28.5t-34.5 -10.5q-17 0 -27.5 13.5t-8.5 28.5q4 20 19.5 31.5t35.5 11.5t29 -13q6 -9 6 -21q0 -6 -1 -12zM267 870q-3 -18 -18.5 -28.5t-34.5 -10.5q-17 0 -27.5 13.5t-8.5 28.5q4 20 19.5 31.5t35.5 11.5t29 -13q6 -9 6 -21q0 -6 -1 -12z M413 768l-202 -481l-50 -287h-60l50 286l-16 481h63l10 -343l142 344h63z" />
<glyph unicode="&#x2c6;" horiz-adv-x="203" d="M305 642h-53l-28 62l-47 -62h-56l73 101h70z" />
<glyph unicode="&#x2dc;" horiz-adv-x="203" d="M323 704q-10 -29 -30 -46t-46 -17q-11 0 -28.5 8.5t-27.5 8.5q-14 0 -19 -16h-56q2 8 6 16t12.5 20t22.5 19.5t32 7.5q12 0 31.5 -7.5t28.5 -7.5q5 0 9 3.5t5.5 7t1.5 4.5z" />
<glyph unicode="&#x2000;" horiz-adv-x="473" />
<glyph unicode="&#x2001;" horiz-adv-x="946" />
<glyph unicode="&#x2002;" horiz-adv-x="473" />
<glyph unicode="&#x2003;" horiz-adv-x="946" />
<glyph unicode="&#x2004;" horiz-adv-x="315" />
<glyph unicode="&#x2005;" horiz-adv-x="236" />
<glyph unicode="&#x2006;" horiz-adv-x="157" />
<glyph unicode="&#x2007;" horiz-adv-x="157" />
<glyph unicode="&#x2008;" horiz-adv-x="118" />
<glyph unicode="&#x2009;" horiz-adv-x="189" />
<glyph unicode="&#x200a;" horiz-adv-x="52" />
<glyph unicode="&#x2010;" horiz-adv-x="249" d="M279 320l-10 -56h-199l10 56h199z" />
<glyph unicode="&#x2011;" horiz-adv-x="249" d="M279 320l-10 -56h-199l10 56h199z" />
<glyph unicode="&#x2013;" horiz-adv-x="242" d="M272 320l-10 -56h-192l10 56h192z" />
<glyph unicode="&#x2014;" horiz-adv-x="377" d="M407 320l-10 -56h-327l10 56h327z" />
<glyph unicode="&#x2018;" horiz-adv-x="129" d="M280 767l-128 -207h-72l166 207h34z" />
<glyph unicode="&#x2019;" horiz-adv-x="130" d="M281 766l-166 -207h-34l128 207h72z" />
<glyph unicode="&#x201a;" horiz-adv-x="126" d="M131 83l-164 -218h-36l125 218h75z" />
<glyph unicode="&#x201c;" horiz-adv-x="252" d="M403 767l-128 -207h-72l166 207h34zM281 767l-130 -207h-71l166 207h35z" />
<glyph unicode="&#x201d;" horiz-adv-x="253" d="M404 766l-166 -207h-35l130 207h71zM281 766l-166 -207h-34l128 207h72z" />
<glyph unicode="&#x201e;" horiz-adv-x="249" d="M254 83l-165 -207h-35l129 207h71zM131 83l-164 -207h-34l126 207h72z" />
<glyph unicode="&#x2022;" horiz-adv-x="284" d="M326 344q-9 -55 -51 -88.5t-89 -33.5q-52 0 -82 34q-24 27 -24 65q0 11 2 23q9 50 51.5 86t93.5 36q43 0 77 -29q25 -22 25 -63q0 -14 -3 -30z" />
<glyph unicode="&#x2026;" horiz-adv-x="397" d="M377 29q-3 -18 -18.5 -28.5t-34.5 -10.5q-17 0 -27.5 13.5t-8.5 28.5q4 20 19.5 31.5t35.5 11.5t29 -13q6 -9 6 -21q0 -6 -1 -12zM247 29q-3 -18 -18.5 -28.5t-34.5 -10.5q-17 0 -27.5 13.5t-8.5 28.5q4 20 19.5 31.5t35.5 11.5t29 -13q6 -9 6 -21q0 -6 -1 -12zM117 29 q-3 -18 -18.5 -28.5t-34.5 -10.5q-17 0 -28 14q-8 11 -8 23q0 22 20 37q15 11 35 11t29 -13q6 -9 6 -21q0 -6 -1 -12z" />
<glyph unicode="&#x202f;" horiz-adv-x="189" />
<glyph unicode="&#x2039;" horiz-adv-x="170" d="M229 457l-104 -169l45 -167h-62l-44 167l103 169h62z" />
<glyph unicode="&#x203a;" horiz-adv-x="171" d="M205 288l-102 -167h-62l103 167l-44 169h62z" />
<glyph unicode="&#x205f;" horiz-adv-x="236" />
<glyph unicode="&#x20ac;" horiz-adv-x="318" d="M397 619l-9 -50h-62l13 77q2 13 2 23q0 22 -9 35q-12 18 -35 18q-24 0 -43.5 -18.5t-26.5 -57.5l-31 -176h161l-10 -56h-161l-11 -64h162l-10 -56h-162l-30 -174q-3 -14 -3 -25q0 -21 8 -33q13 -18 37 -18t44 18.5t26 57.5l11 66h62l-7 -39q-16 -90 -58.5 -125t-87.5 -35 q-19 0 -36 6.5t-34.5 24t-21.5 48.5q-2 12 -2 28q0 23 4 53l26 147h-38l10 56h38l11 64h-39l10 56h39l27 149q11 62 39 100t54 49t53 11q20 0 36.5 -6t34.5 -23.5t22 -48.5q1 -11 1 -26q0 -24 -4 -56z" />
<glyph unicode="&#x2122;" horiz-adv-x="576" d="M682 766l-63 -352h-53l45 251l14 47l-22 -45l-125 -253h-30l-29 253l-6 45l-2 -47l-45 -251h-52l63 352h80l24 -245l-6 -59l14 59l112 245h81zM353 766l-10 -52h-80l-53 -300h-53l53 300h-80l10 52h213z" />
</font>
</defs>
</svg>
